<svg width="512" height="512" viewBox="0 0 512 512" fill="none" xmlns="http://www.w3.org/2000/svg">
<path d="M261.56 101.28C260.071 99.8558 258.09 99.0609 256.03 99.0609C253.97 99.0609 251.989 99.8558 250.5 101.28L66.4 277.15C65.6181 277.898 64.9961 278.797 64.5716 279.792C64.147 280.787 63.9288 281.858 63.93 282.94L63.9 448C63.9 456.487 67.2714 464.626 73.2726 470.627C79.2737 476.629 87.4131 480 95.9 480H192C196.243 480 200.313 478.314 203.314 475.314C206.314 472.313 208 468.243 208 464V328C208 325.878 208.843 323.843 210.343 322.343C211.843 320.843 213.878 320 216 320H296C298.122 320 300.157 320.843 301.657 322.343C303.157 323.843 304 325.878 304 328V464C304 468.243 305.686 472.313 308.686 475.314C311.687 478.314 315.757 480 320 480H416.06C424.547 480 432.686 476.629 438.687 470.627C444.689 464.626 448.06 456.487 448.06 448V282.94C448.061 281.858 447.843 280.787 447.418 279.792C446.994 278.797 446.372 277.898 445.59 277.15L261.56 101.28Z" fill="black"/>
<path d="M490.91 244.15L416.11 172.59V64C416.11 59.7565 414.424 55.6869 411.424 52.6863C408.423 49.6857 404.353 48 400.11 48H352.11C347.867 48 343.797 49.6857 340.796 52.6863C337.796 55.6869 336.11 59.7565 336.11 64V96L278.19 40.62C272.77 35.14 264.71 32 256 32C247.32 32 239.28 35.14 233.86 40.63L21.16 244.13C14.94 250.13 14.16 260 19.82 266.5C21.2413 268.141 22.9816 269.475 24.935 270.422C26.8884 271.368 29.014 271.908 31.1824 272.007C33.3509 272.106 35.5168 271.763 37.5484 270.999C39.5801 270.234 41.4349 269.064 43 267.56L250.5 69.28C251.989 67.8558 253.97 67.0609 256.03 67.0609C258.09 67.0609 260.071 67.8558 261.56 69.28L469.08 267.56C472.137 270.491 476.231 272.091 480.466 272.009C484.7 271.926 488.73 270.168 491.67 267.12C497.81 260.76 497.3 250.26 490.91 244.15Z" fill="black"/>
</svg>
