<svg width="27" height="31" viewBox="0 0 27 31" xmlns="http://www.w3.org/2000/svg">
<path d="M25.7777 6.28484L19.8402 0.347344C19.7298 0.237103 19.5988 0.149687 19.4546 0.0900884C19.3105 0.03049 19.156 -0.000122296 19 3.67173e-07H7.125C6.49511 3.67173e-07 5.89102 0.250223 5.44562 0.695622C5.00022 1.14102 4.75 1.74511 4.75 2.375V4.75H2.375C1.74511 4.75 1.14102 5.00022 0.695621 5.44562C0.250222 5.89102 0 6.49511 0 7.125V28.5C0 29.1299 0.250222 29.734 0.695621 30.1794C1.14102 30.6248 1.74511 30.875 2.375 30.875H19C19.6299 30.875 20.234 30.6248 20.6794 30.1794C21.1248 29.734 21.375 29.1299 21.375 28.5V26.125H23.75C24.3799 26.125 24.984 25.8748 25.4294 25.4294C25.8748 24.984 26.125 24.3799 26.125 23.75V7.125C26.1251 6.96901 26.0945 6.81452 26.0349 6.67037C25.9753 6.52621 25.8879 6.39521 25.7777 6.28484ZM19 28.5H2.375V7.125H13.7587L19 12.3663V28.5ZM23.75 23.75H21.375V11.875C21.3751 11.719 21.3445 11.5645 21.2849 11.4204C21.2253 11.2762 21.1379 11.1452 21.0277 11.0348L15.0902 5.09734C14.9798 4.9871 14.8488 4.89969 14.7046 4.84009C14.5605 4.78049 14.406 4.74988 14.25 4.75H7.125V2.375H18.5087L23.75 7.61633V23.75ZM15.4375 19C15.4375 19.3149 15.3124 19.617 15.0897 19.8397C14.867 20.0624 14.5649 20.1875 14.25 20.1875H7.125C6.81006 20.1875 6.50801 20.0624 6.28531 19.8397C6.06261 19.617 5.9375 19.3149 5.9375 19C5.9375 18.6851 6.06261 18.383 6.28531 18.1603C6.50801 17.9376 6.81006 17.8125 7.125 17.8125H14.25C14.5649 17.8125 14.867 17.9376 15.0897 18.1603C15.3124 18.383 15.4375 18.6851 15.4375 19ZM15.4375 23.75C15.4375 24.0649 15.3124 24.367 15.0897 24.5897C14.867 24.8124 14.5649 24.9375 14.25 24.9375H7.125C6.81006 24.9375 6.50801 24.8124 6.28531 24.5897C6.06261 24.367 5.9375 24.0649 5.9375 23.75C5.9375 23.4351 6.06261 23.133 6.28531 22.9103C6.50801 22.6876 6.81006 22.5625 7.125 22.5625H14.25C14.5649 22.5625 14.867 22.6876 15.0897 22.9103C15.3124 23.133 15.4375 23.4351 15.4375 23.75Z"/>
</svg>
