<svg width="30" height="30" viewBox="0 0 30 30" xmlns="http://www.w3.org/2000/svg">
<path d="M10.5 0.687V3.873C7.92139 4.92007 5.7867 6.83056 4.46109 9.27767C3.13548 11.7248 2.70132 14.5565 3.23288 17.2883C3.76444 20.0202 5.22869 22.4825 7.37515 24.254C9.52161 26.0255 12.2169 26.9962 15 27C17.3909 27.0002 19.7275 26.2865 21.7101 24.9503C23.6928 23.6141 25.2313 21.7162 26.1285 19.5H29.313C27.402 25.5855 21.717 30 15 30C6.7155 30 0 23.2845 0 15C0 8.283 4.4145 2.598 10.5 0.687ZM15 0C23.2845 0 30 6.7155 30 15C30 15.507 29.9745 16.0065 29.925 16.5H13.5V0.0749999C13.9935 0.0254999 14.493 0 15 0ZM16.5 3.093V13.5H26.907C26.5731 10.8564 25.3693 8.399 23.4851 6.51485C21.601 4.6307 19.1436 3.42688 16.5 3.093Z"/>
</svg>
