<svg width="15" height="12" viewBox="0 0 15 12" xmlns="http://www.w3.org/2000/svg">
<path d="M3.21448 0.21975C3.3553 0.0791469 3.54627 0.000160217 3.74539 0.000160217C3.9445 0.000160217 4.13547 0.0791469 4.27629 0.21975L7.27998 3.21975C7.41677 3.3612 7.49246 3.55065 7.49074 3.7473C7.48903 3.94395 7.41006 4.13206 7.27083 4.27111C7.13161 4.41017 6.94326 4.48905 6.74638 4.49076C6.54949 4.49246 6.3598 4.41687 6.21817 4.28025L4.49631 2.5605V11.25C4.49631 11.4489 4.41719 11.6397 4.27637 11.7803C4.13554 11.921 3.94454 12 3.74539 12C3.54623 12 3.35523 11.921 3.2144 11.7803C3.07358 11.6397 2.99446 11.4489 2.99446 11.25V2.5605L1.2726 4.28025C1.13097 4.41687 0.941287 4.49246 0.744398 4.49076C0.547508 4.48905 0.359167 4.41017 0.21994 4.27111C0.0807131 4.13206 0.0017393 3.94395 2.83869e-05 3.7473C-0.00168253 3.55065 0.0740062 3.3612 0.210793 3.21975L3.21448 0.21975ZM10.5037 9.4395V0.75C10.5037 0.551088 10.5828 0.360322 10.7236 0.21967C10.8645 0.0790178 11.0555 0 11.2546 0C11.4538 0 11.6448 0.0790178 11.7856 0.21967C11.9264 0.360322 12.0055 0.551088 12.0055 0.75V9.4395L13.7274 7.71975C13.869 7.58313 14.0587 7.50754 14.2556 7.50924C14.4525 7.51095 14.6408 7.58983 14.7801 7.72889C14.9193 7.86794 14.9983 8.05605 15 8.2527C15.0017 8.44935 14.926 8.6388 14.7892 8.78025L11.7855 11.7803C11.6447 11.9209 11.4537 11.9998 11.2546 11.9998C11.0555 11.9998 10.8645 11.9209 10.7237 11.7803L7.72002 8.78025C7.58323 8.6388 7.50755 8.44935 7.50926 8.2527C7.51097 8.05605 7.58994 7.86794 7.72917 7.72889C7.8684 7.58983 8.05674 7.51095 8.25363 7.50924C8.45051 7.50754 8.6402 7.58313 8.78182 7.71975L10.5037 9.4395Z"/>
</svg>
