<svg width="34" height="34" viewBox="0 0 34 34" xmlns="http://www.w3.org/2000/svg">
<path d="M28.2 16.2H29C30.496 16.2 31.2432 16.2 31.8 16.5216C32.1648 16.7322 32.4678 17.0352 32.6784 17.4C33 17.9568 33 18.704 33 20.2C33 21.696 33 22.4432 32.6784 23C32.4678 23.3648 32.1648 23.6678 31.8 23.8784C31.2432 24.2 30.496 24.2 29 24.2H28.2M5.8 16.2H5C3.504 16.2 2.7568 16.2 2.2 16.5216C1.83518 16.7322 1.53224 17.0352 1.3216 17.4C1 17.9568 1 18.704 1 20.2C1 21.696 1 22.4432 1.3216 23C1.53224 23.3648 1.83518 23.6678 2.2 23.8784C2.7568 24.2 3.504 24.2 5 24.2H5.8M17 5.8C17.6365 5.8 18.247 5.54714 18.6971 5.09706C19.1471 4.64697 19.4 4.03652 19.4 3.4C19.4 2.76348 19.1471 2.15303 18.6971 1.70294C18.247 1.25286 17.6365 1 17 1C16.3635 1 15.753 1.25286 15.3029 1.70294C14.8529 2.15303 14.6 2.76348 14.6 3.4C14.6 4.03652 14.8529 4.64697 15.3029 5.09706C15.753 5.54714 16.3635 5.8 17 5.8ZM17 5.8V10.6M12.2 17V18.6M21.8 17V18.6M15.4 10.6H18.6C23.1248 10.6 25.3888 10.6 26.7936 12.0064C28.2 13.4112 28.2 15.6752 28.2 20.2C28.2 24.7248 28.2 26.9888 26.7936 28.3936C25.3888 29.8 23.1248 29.8 18.6 29.8H17C17 29.8 16.2 33 10.6 33C10.6 33 12.2 31.3856 12.2 29.7728C9.7152 29.6976 8.232 29.4208 7.2064 28.3936C5.8 26.9888 5.8 24.7248 5.8 20.2C5.8 15.6752 5.8 13.4112 7.2064 12.0064C8.6112 10.6 10.8752 10.6 15.4 10.6Z" stroke="white" stroke-width="1.5" stroke-linecap="round" stroke-linejoin="round"/>
<path d="M13.8 24.2C13.8 24.2 14.8672 25 17 25C19.1328 25 20.2 24.2 20.2 24.2" stroke="white" stroke-width="1.5" stroke-linecap="round" stroke-linejoin="round"/>
</svg>
