<svg width="34" height="34" viewBox="0 0 34 34" fill="none" xmlns="http://www.w3.org/2000/svg">
<path d="M17 29.7082C18.6484 31.1869 20.7856 32.0033 23 32.0002C27.9702 32.0002 32 27.9704 32 23.0002C32 18.8069 29.132 15.2827 25.25 14.2837" stroke="white" stroke-width="2.08333" stroke-linejoin="round"/>
<path d="M8.75 14.2837C4.868 15.2827 2 18.8062 2 23.0002C2 27.9704 6.02975 32.0002 11 32.0002C15.9703 32.0002 20 27.9704 20 23.0002C20 21.8377 19.7795 20.7277 19.379 19.7077" stroke="white" stroke-width="2.08333" stroke-linejoin="round"/>
<path d="M17 20C21.9703 20 26 15.9702 26 11C26 6.02975 21.9703 2 17 2C12.0298 2 8 6.02975 8 11C8 15.9702 12.0298 20 17 20Z" stroke="white" stroke-width="2.08333" stroke-linejoin="round"/>
</svg>
