<svg width="30" height="30" viewBox="0 0 30 30" fill="none" xmlns="http://www.w3.org/2000/svg">
<g clip-path="url(#clip0_291_525)">
<path d="M15 0C16.377 0 17.7051 0.175781 18.9844 0.527344C20.2637 0.878906 21.4551 1.38672 22.5586 2.05078C23.6621 2.71484 24.6729 3.49609 25.5908 4.39453C26.5088 5.29297 27.2949 6.30371 27.9492 7.42676C28.6035 8.5498 29.1064 9.74609 29.458 11.0156C29.8096 12.2852 29.9902 13.6133 30 15C30 16.377 29.8242 17.7051 29.4727 18.9844C29.1211 20.2637 28.6133 21.4551 27.9492 22.5586C27.2852 23.6621 26.5039 24.6729 25.6055 25.5908C24.707 26.5088 23.6963 27.2949 22.5732 27.9492C21.4502 28.6035 20.2539 29.1064 18.9844 29.458C17.7148 29.8096 16.3867 29.9902 15 30C14.4824 30 13.999 29.9023 13.5498 29.707C13.1006 29.5117 12.7002 29.2432 12.3486 28.9014C11.9971 28.5596 11.7285 28.1641 11.543 27.7148C11.3574 27.2656 11.2598 26.7773 11.25 26.25C11.25 25.7324 11.3135 25.2295 11.4404 24.7412C11.5674 24.2529 11.7725 23.7842 12.0557 23.335C12.1143 23.2275 12.168 23.1445 12.2168 23.0859C12.2656 23.0273 12.3242 22.9492 12.3926 22.8516C12.6367 22.4707 12.8174 22.124 12.9346 21.8115C13.0518 21.499 13.1152 21.1035 13.125 20.625C13.125 20.1074 13.0273 19.624 12.832 19.1748C12.6367 18.7256 12.3682 18.3252 12.0264 17.9736C11.6846 17.6221 11.2891 17.3535 10.8398 17.168C10.3906 16.9824 9.90234 16.8848 9.375 16.875C8.90625 16.875 8.51563 16.9336 8.20312 17.0508C7.89062 17.168 7.53906 17.3535 7.14844 17.6074C7.05078 17.6758 6.97266 17.7344 6.91406 17.7832C6.85547 17.832 6.77246 17.8857 6.66504 17.9443C6.22559 18.2178 5.76172 18.418 5.27344 18.5449C4.78516 18.6719 4.27734 18.7402 3.75 18.75C3.23242 18.75 2.74902 18.6523 2.2998 18.457C1.85059 18.2617 1.4502 17.9932 1.09863 17.6514C0.74707 17.3096 0.478516 16.9141 0.292969 16.4648C0.107422 16.0156 0.00976563 15.5273 0 15C0 13.623 0.175781 12.2949 0.527344 11.0156C0.878906 9.73633 1.38672 8.54492 2.05078 7.44141C2.71484 6.33789 3.49609 5.32715 4.39453 4.40918C5.29297 3.49121 6.30371 2.70508 7.42676 2.05078C8.5498 1.39648 9.74609 0.893555 11.0156 0.541992C12.2852 0.19043 13.6133 0.00976563 15 0ZM20.625 7.03125C20.3027 7.03125 20 7.08984 19.7168 7.20703C19.4336 7.32422 19.1846 7.49512 18.9697 7.71973C18.7549 7.94434 18.5889 8.19336 18.4717 8.4668C18.3545 8.74023 18.291 9.04297 18.2812 9.375C18.2812 9.69727 18.3398 10 18.457 10.2832C18.5742 10.5664 18.7451 10.8154 18.9697 11.0303C19.1943 11.2451 19.4434 11.4111 19.7168 11.5283C19.9902 11.6455 20.293 11.709 20.625 11.7188C20.9473 11.7188 21.25 11.6602 21.5332 11.543C21.8164 11.4258 22.0654 11.2549 22.2803 11.0303C22.4951 10.8057 22.6611 10.5566 22.7783 10.2832C22.8955 10.0098 22.959 9.70703 22.9688 9.375C22.9688 9.05273 22.9102 8.75 22.793 8.4668C22.6758 8.18359 22.5049 7.93457 22.2803 7.71973C22.0557 7.50488 21.8066 7.33887 21.5332 7.22168C21.2598 7.10449 20.957 7.04102 20.625 7.03125ZM7.5 13.5938C7.82227 13.5938 8.125 13.5352 8.4082 13.418C8.69141 13.3008 8.94043 13.1299 9.15527 12.9053C9.37012 12.6807 9.53613 12.4316 9.65332 12.1582C9.77051 11.8848 9.83398 11.582 9.84375 11.25C9.84375 10.9277 9.78516 10.625 9.66797 10.3418C9.55078 10.0586 9.37988 9.80957 9.15527 9.59473C8.93066 9.37988 8.68164 9.21387 8.4082 9.09668C8.13477 8.97949 7.83203 8.91602 7.5 8.90625C7.17773 8.90625 6.875 8.96484 6.5918 9.08203C6.30859 9.19922 6.05957 9.37012 5.84473 9.59473C5.62988 9.81934 5.46387 10.0684 5.34668 10.3418C5.22949 10.6152 5.16602 10.918 5.15625 11.25C5.15625 11.5723 5.21484 11.875 5.33203 12.1582C5.44922 12.4414 5.62012 12.6904 5.84473 12.9053C6.06934 13.1201 6.31836 13.2861 6.5918 13.4033C6.86523 13.5205 7.16797 13.584 7.5 13.5938ZM13.125 9.84375C13.4473 9.84375 13.75 9.78516 14.0332 9.66797C14.3164 9.55078 14.5654 9.37988 14.7803 9.15527C14.9951 8.93066 15.1611 8.68164 15.2783 8.4082C15.3955 8.13477 15.459 7.83203 15.4688 7.5C15.4688 7.17773 15.4102 6.875 15.293 6.5918C15.1758 6.30859 15.0049 6.05957 14.7803 5.84473C14.5557 5.62988 14.3066 5.46387 14.0332 5.34668C13.7598 5.22949 13.457 5.16602 13.125 5.15625C12.8027 5.15625 12.5 5.21484 12.2168 5.33203C11.9336 5.44922 11.6846 5.62012 11.4697 5.84473C11.2549 6.06934 11.0889 6.31836 10.9717 6.5918C10.8545 6.86523 10.791 7.16797 10.7812 7.5C10.7812 7.82227 10.8398 8.125 10.957 8.4082C11.0742 8.69141 11.2451 8.94043 11.4697 9.15527C11.6943 9.37012 11.9434 9.53613 12.2168 9.65332C12.4902 9.77051 12.793 9.83398 13.125 9.84375ZM18.75 24.8438C19.0723 24.8438 19.375 24.7852 19.6582 24.668C19.9414 24.5508 20.1904 24.3799 20.4053 24.1553C20.6201 23.9307 20.7861 23.6816 20.9033 23.4082C21.0205 23.1348 21.084 22.832 21.0938 22.5C21.0938 22.1777 21.0352 21.875 20.918 21.5918C20.8008 21.3086 20.6299 21.0596 20.4053 20.8447C20.1807 20.6299 19.9316 20.4639 19.6582 20.3467C19.3848 20.2295 19.082 20.166 18.75 20.1562C18.4277 20.1562 18.125 20.2148 17.8418 20.332C17.5586 20.4492 17.3096 20.6201 17.0947 20.8447C16.8799 21.0693 16.7139 21.3184 16.5967 21.5918C16.4795 21.8652 16.416 22.168 16.4062 22.5C16.4062 22.8223 16.4648 23.125 16.582 23.4082C16.6992 23.6914 16.8701 23.9404 17.0947 24.1553C17.3193 24.3701 17.5684 24.5361 17.8418 24.6533C18.1152 24.7705 18.418 24.834 18.75 24.8438ZM22.5 19.2188C22.8223 19.2188 23.125 19.1602 23.4082 19.043C23.6914 18.9258 23.9404 18.7549 24.1553 18.5303C24.3701 18.3057 24.5361 18.0566 24.6533 17.7832C24.7705 17.5098 24.834 17.207 24.8438 16.875C24.8438 16.5527 24.7852 16.25 24.668 15.9668C24.5508 15.6836 24.3799 15.4346 24.1553 15.2197C23.9307 15.0049 23.6816 14.8389 23.4082 14.7217C23.1348 14.6045 22.832 14.541 22.5 14.5312C22.1777 14.5312 21.875 14.5898 21.5918 14.707C21.3086 14.8242 21.0596 14.9951 20.8447 15.2197C20.6299 15.4443 20.4639 15.6934 20.3467 15.9668C20.2295 16.2402 20.166 16.543 20.1562 16.875C20.1562 17.1973 20.2148 17.5 20.332 17.7832C20.4492 18.0664 20.6201 18.3154 20.8447 18.5303C21.0693 18.7451 21.3184 18.9111 21.5918 19.0283C21.8652 19.1455 22.168 19.209 22.5 19.2188Z" fill="black"/>
</g>
<defs>
<clipPath id="clip0_291_525">
<rect width="30" height="30" fill="white"/>
</clipPath>
</defs>
</svg>
