<svg width="30" height="30" viewBox="0 0 86 86" xmlns="http://www.w3.org/2000/svg">
<path d="M27.6429 27.6428V58.3571H58.3572V27.6428H27.6429ZM52.2143 52.2143H33.7857V33.7857H52.2143V52.2143Z"/>
<path d="M86 33.7857V27.6429H73.7143V18.4286C73.7143 16.7994 73.0671 15.2369 71.9151 14.0849C70.7631 12.9329 69.2006 12.2857 67.5714 12.2857H58.3571V0H52.2143V12.2857H33.7857V0H27.6429V12.2857H18.4286C16.7994 12.2857 15.2369 12.9329 14.0849 14.0849C12.9329 15.2369 12.2857 16.7994 12.2857 18.4286V27.6429H0V33.7857H12.2857V52.2143H0V58.3571H12.2857V67.5714C12.2857 69.2006 12.9329 70.7631 14.0849 71.9151C15.2369 73.0671 16.7994 73.7143 18.4286 73.7143H27.6429V86H33.7857V73.7143H52.2143V86H58.3571V73.7143H67.5714C69.2006 73.7143 70.7631 73.0671 71.9151 71.9151C73.0671 70.7631 73.7143 69.2006 73.7143 67.5714V58.3571H86V52.2143H73.7143V33.7857H86ZM67.5714 67.5714H18.4286V18.4286H67.5714V67.5714Z"/>
</svg>
