<svg width="26" height="28" viewBox="0 0 26 28" fill="none" xmlns="http://www.w3.org/2000/svg">
<path d="M22.375 15.25V10.71C22.375 6.36875 22.375 4.1975 21.0938 2.84875C19.8125 1.5 17.75 1.5 13.625 1.5H9.875C5.75 1.5 3.6875 1.5 2.40625 2.85C1.125 4.19625 1.125 6.3675 1.125 10.7087V17.2887C1.125 21.63 1.125 23.8012 2.40625 25.15C3.6875 26.4987 5.75 26.5 9.875 26.5H11.75M14.875 24C14.875 24 16.125 24 17.375 26.5C17.375 26.5 21.3463 20.25 24.875 19" stroke="black" stroke-width="1.5625" stroke-linecap="round" stroke-linejoin="round"/>
<path d="M6.75 1.5L6.8525 2.11625C7.1025 3.6125 7.2275 4.36125 7.7525 4.80625C8.275 5.25 9.03375 5.25 10.5513 5.25H12.9475C14.4638 5.25 15.2225 5.25 15.7475 4.80625C16.2725 4.36125 16.3975 3.6125 16.6462 2.11625L16.75 1.5M6.75 19H11.75M6.75 12.75H16.75" stroke="black" stroke-width="1.5625" stroke-linecap="round" stroke-linejoin="round"/>
</svg>
