<svg width="30" height="25" viewBox="0 0 30 25" xmlns="http://www.w3.org/2000/svg">
<path d="M6.12534 0C5.26529 0 4.44046 0.336284 3.83231 0.934872C3.22417 1.53346 2.88251 2.34532 2.88251 3.19185V13.8314C2.88251 14.6779 3.22417 15.4897 3.83231 16.0883C4.44046 16.6869 5.26529 17.0232 6.12534 17.0232H12.9987C13.0573 16.2836 13.1985 15.5743 13.4224 14.8953H6.12534C5.83866 14.8953 5.56371 14.7832 5.361 14.5837C5.15828 14.3842 5.0444 14.1135 5.0444 13.8314V3.19185C5.0444 2.90967 5.15828 2.63905 5.361 2.43952C5.56371 2.24 5.83866 2.1279 6.12534 2.1279H22.6998C22.9865 2.1279 23.2614 2.24 23.4641 2.43952C23.6668 2.63905 23.7807 2.90967 23.7807 3.19185V8.61942C24.5231 8.73292 25.249 8.93391 25.9426 9.21807V3.19185C25.9426 2.77269 25.8587 2.35764 25.6958 1.97038C25.5328 1.58313 25.2939 1.23126 24.9928 0.934872C24.6917 0.638481 24.3342 0.403371 23.9408 0.242965C23.5473 0.0825594 23.1256 0 22.6998 0H6.12534ZM1.08094 19.1511H13.0808C13.1976 19.893 13.4037 20.6066 13.6891 21.279H1.08094C0.794258 21.279 0.519316 21.1669 0.316601 20.9674C0.113885 20.7679 0 20.4972 0 20.2151C0 19.9329 0.113885 19.6623 0.316601 19.4627C0.519316 19.2632 0.794258 19.1511 1.08094 19.1511ZM17.6943 12.7334C17.8018 13.1001 17.8331 13.4845 17.7862 13.8634C17.7392 14.2423 17.6151 14.6081 17.4212 14.9387C17.2273 15.2693 16.9676 15.5579 16.6576 15.7874C16.3477 16.0169 15.9939 16.1825 15.6175 16.2742L14.7758 16.4785C14.64 17.3284 14.6429 18.1943 14.7844 19.0433L15.5627 19.2277C15.9426 19.3178 16.2999 19.4829 16.6129 19.7131C16.926 19.9433 17.1882 20.2338 17.3836 20.5668C17.5791 20.8998 17.7037 21.2685 17.7499 21.6504C17.7962 22.0323 17.763 22.4195 17.6525 22.7884L17.383 23.6835C18.0171 24.2311 18.7378 24.6751 19.5233 24.9915L20.2338 24.2552C20.5031 23.9765 20.8271 23.7545 21.1862 23.6028C21.5454 23.4511 21.9321 23.3729 22.3229 23.3729C22.7137 23.3729 23.1004 23.4511 23.4596 23.6028C23.8187 23.7545 24.1427 23.9765 24.412 24.2552L25.1312 25C25.9108 24.6871 26.6325 24.2495 27.2671 23.7048L26.9818 22.7317C26.8742 22.3648 26.843 21.9803 26.8901 21.6013C26.9371 21.2223 27.0613 20.8566 27.2554 20.5259C27.4495 20.1953 27.7093 19.9067 28.0194 19.6773C28.3295 19.4478 28.6835 19.2824 29.0601 19.1908L29.9003 18.9866C30.0361 18.1366 30.0332 17.2708 29.8917 16.4217L29.1134 16.2373C28.7336 16.1471 28.3765 15.9818 28.0636 15.7515C27.7507 15.5213 27.4887 15.2308 27.2933 14.8978C27.098 14.5648 26.9735 14.1962 26.9274 13.8143C26.8813 13.4325 26.9145 13.0454 27.025 12.6766L27.2931 11.7829C26.6585 11.2335 25.9358 10.7915 25.1542 10.4749L24.4437 11.2098C24.1744 11.4888 23.8503 11.711 23.491 11.8628C23.1318 12.0146 22.7449 12.0929 22.3539 12.0929C21.9629 12.0929 21.576 12.0146 21.2168 11.8628C20.8575 11.711 20.5333 11.4888 20.2641 11.2098L19.5463 10.465C18.7623 10.7771 18.0416 11.2169 17.4089 11.7588L17.6943 12.7334ZM22.3395 19.8604C21.1865 19.8604 20.2496 18.9071 20.2496 17.7325C20.2496 16.5579 21.1865 15.6046 22.3395 15.6046C23.4925 15.6046 24.4293 16.5579 24.4293 17.7325C24.4293 18.9071 23.4925 19.8604 22.3395 19.8604Z"/>
</svg>
