<svg width="30" height="30" viewBox="0 0 30 30" xmlns="http://www.w3.org/2000/svg">
<g clip-path="url(#clip0_54_7066)">
<path fill-rule="evenodd" clip-rule="evenodd" d="M4.94624 1.90985e-07V1.90985e-07L26.3109 1.19459e-07C27.2649 1.19459e-07 28.1943 0.322422 28.8913 0.916581C29.5909 1.513 30 2.33783 30 3.21429V20.3571C30 21.2336 29.5909 22.0584 28.8913 22.6548C28.4876 22.999 28.0058 23.252 27.4865 23.404V27.8571H28.8245C29.4737 27.8571 30 28.3368 30 28.9286C30 29.5203 29.4737 30 28.8245 30H4.94585C3.65853 30 2.40944 29.5647 1.47681 28.7696C0.541527 27.9722 0 26.8749 0 25.7143C0 25.6954 0.000142905 25.6766 0.000428088 25.6578C0.000143298 25.6481 0 25.6383 0 25.6286V4.2C0 4.18982 0.000159307 4.17964 0.000477764 4.16946C0.0361476 3.0295 0.592603 1.96245 1.52337 1.1901C2.45162 0.419856 3.68099 -0.000327039 4.94624 1.90985e-07ZM2.3511 22.0653C3.12931 21.6499 4.02786 21.4286 4.94585 21.4286H26.3109C26.6902 21.4286 27.0394 21.2995 27.2852 21.0899C27.5284 20.8826 27.6489 20.6173 27.6489 20.3571V3.21429C27.6489 2.9541 27.5284 2.68884 27.2852 2.48153C27.0394 2.27196 26.6902 2.14286 26.3109 2.14286H4.94585C4.24566 2.14265 3.58636 2.37617 3.10617 2.77463C2.63249 3.16769 2.3718 3.68655 2.3511 4.21696V22.0653ZM25.1354 27.8571V23.5714H4.94585C4.23328 23.5714 3.56439 23.8134 3.08288 24.2239C2.60403 24.6322 2.3511 25.1699 2.3511 25.7143C2.3511 26.2586 2.60403 26.7964 3.08288 27.2047C3.56439 27.6152 4.23328 27.8571 4.94585 27.8571H25.1354Z"/>
<path fill-rule="evenodd" clip-rule="evenodd" d="M15.9591 7.04556C15.5027 6.95993 15.0295 7.00381 14.5991 7.17197C14.1686 7.34015 13.7994 7.62547 13.539 7.99296C13.2786 8.36054 13.1392 8.79345 13.1392 9.23692C13.1392 9.79 12.6603 10.2384 12.0696 10.2384C11.4789 10.2384 11 9.79 11 9.23692C11 8.40055 11.2629 7.58238 11.7564 6.88582C12.2499 6.18918 12.9522 5.6451 13.7754 5.32351C14.5986 5.0019 15.5049 4.91763 16.3794 5.08169C17.2538 5.24573 18.0559 5.65047 18.6847 6.24355C19.3135 6.83656 19.7408 7.59122 19.9138 8.4117C20.0869 9.23215 19.9981 10.0826 19.6585 10.8559C19.3189 11.6293 18.7432 12.2915 18.0031 12.7579C17.5637 13.0348 17.0782 13.2352 16.5696 13.3524V13.5509C16.5696 14.104 16.0907 14.5523 15.5 14.5523C14.9093 14.5523 14.4304 14.104 14.4304 13.5509V12.4724C14.4304 11.9193 14.9093 11.4709 15.5 11.4709C15.9652 11.4709 16.4206 11.3409 16.8086 11.0963C17.1968 10.8517 17.5004 10.5033 17.6801 10.0942C17.8598 9.6851 17.9069 9.23451 17.8152 8.79972C17.7235 8.36496 17.4974 7.96661 17.1666 7.65464C16.8359 7.34276 16.4156 7.13119 15.9591 7.04556ZM15.8488 17.7891C15.8508 17.7872 15.8528 17.7854 15.8548 17.7835C15.9473 17.6963 15.9978 17.5795 15.9978 17.4593C15.9978 17.3391 15.9473 17.2223 15.8548 17.1351C15.8528 17.1332 15.8508 17.1314 15.8488 17.1295C15.7566 17.0455 15.6317 16.9971 15.5 16.9971C15.3683 16.9971 15.2434 17.0455 15.1512 17.1295C15.1492 17.1314 15.1472 17.1332 15.1452 17.1351C15.0527 17.2223 15.0022 17.3391 15.0022 17.4593C15.0022 17.5795 15.0527 17.6963 15.1452 17.7835C15.1472 17.7854 15.1492 17.7872 15.1512 17.7891C15.2434 17.8731 15.3683 17.9215 15.5 17.9215C15.6317 17.9215 15.7566 17.8731 15.8488 17.7891ZM14.3367 16.3725C14.6439 16.0827 15.0622 15.9186 15.5 15.9186C15.9378 15.9186 16.3561 16.0827 16.6633 16.3725C16.9703 16.6619 17.1413 17.053 17.1413 17.4593C17.1413 17.8656 16.9703 18.2567 16.6633 18.5462C16.3561 18.8359 15.9378 19 15.5 19C15.0622 19 14.6439 18.8359 14.3367 18.5462C14.0297 18.2567 13.8587 17.8656 13.8587 17.4593C13.8587 17.053 14.0297 16.6619 14.3367 16.3725Z"/>
</g>
<defs>
<clipPath id="clip0_54_7066">
<rect width="30" height="30"/>
</clipPath>
</defs>
</svg>
