<svg width="27" height="32" viewBox="0 0 27 32" fill="none" xmlns="http://www.w3.org/2000/svg">
<path d="M26 13.494V27.5385C26 28.4565 25.6049 29.337 24.9017 29.9861C24.1984 30.6353 23.2446 31 22.25 31H4.75C3.75544 31 2.80161 30.6353 2.09835 29.9861C1.39509 29.337 1 28.4565 1 27.5385V4.46154C1 3.54348 1.39509 2.66303 2.09835 2.01386C2.80161 1.3647 3.75544 1 4.75 1H12.4648C13.1277 1.00009 13.7633 1.24314 14.232 1.67572L25.268 11.8627C25.7366 12.2954 25.9999 12.8822 26 13.494Z" stroke="black" stroke-width="1.875" stroke-linejoin="round"/>
<path d="M13.5 1.57715V10.231C13.5 10.843 13.7634 11.43 14.2322 11.8628C14.7011 12.2956 15.337 12.5387 16 12.5387H25.375M7.25 18.3079H19.75M7.25 24.0771H19.75" stroke="black" stroke-width="1.875" stroke-linecap="round" stroke-linejoin="round"/>
</svg>
