<svg width="34" height="34" viewBox="0 0 34 34" fill="inherit" xmlns="http://www.w3.org/2000/svg">
<path d="M28.6667 2H5.33333C3.49238 2 2 3.49238 2 5.33333V28.6667C2 30.5076 3.49238 32 5.33333 32H28.6667C30.5076 32 32 30.5076 32 28.6667V5.33333C32 3.49238 30.5076 2 28.6667 2Z" stroke="white" stroke-width="2.08333" stroke-linecap="round" stroke-linejoin="round"/>
<path d="M15.3333 12H22C22.884 12 23.7319 11.6488 24.357 11.0237C24.9821 10.3986 25.3333 9.55072 25.3333 8.66667V2" stroke="white" stroke-width="2.08333" stroke-linecap="round" stroke-linejoin="round"/>
<path d="M12 15.3334C13.841 15.3334 15.3334 13.841 15.3334 12.0001C15.3334 10.1591 13.841 8.66675 12 8.66675C10.1591 8.66675 8.66669 10.1591 8.66669 12.0001C8.66669 13.841 10.1591 15.3334 12 15.3334Z" stroke="white" stroke-width="2.08333" stroke-linecap="round" stroke-linejoin="round"/>
<path d="M8.66669 32V25.3333C8.66669 24.4493 9.01788 23.6014 9.643 22.9763C10.2681 22.3512 11.116 22 12 22H18.6667" stroke="white" stroke-width="2.08333" stroke-linecap="round" stroke-linejoin="round"/>
<path d="M22 25.3334C23.841 25.3334 25.3334 23.841 25.3334 22.0001C25.3334 20.1591 23.841 18.6667 22 18.6667C20.1591 18.6667 18.6667 20.1591 18.6667 22.0001C18.6667 23.841 20.1591 25.3334 22 25.3334Z" stroke="white" stroke-width="2.08333" stroke-linecap="round" stroke-linejoin="round"/>
</svg>
