<svg width="20" height="20" viewBox="0 0 20 20" fill="none" xmlns="http://www.w3.org/2000/svg">
<path d="M19.17 0C19.39 0 19.5867 0.0952381 19.76 0.285714C19.92 0.468571 20 0.689524 20 0.948571V19.0514C20 19.3105 19.92 19.5314 19.76 19.7143C19.5867 19.9048 19.39 20 19.17 20H5.83C5.61 20 5.41333 19.9048 5.24 19.7143C5.08 19.5314 5 19.3105 5 19.0514V15.7143H0.83C0.61 15.7143 0.413333 15.6229 0.24 15.44C0.08 15.2419 0 15.0171 0 14.7657V5.23429C0 4.98286 0.08 4.7581 0.24 4.56C0.413333 4.37714 0.61 4.28571 0.83 4.28571H5V0.948571C5 0.689524 5.08 0.468571 5.24 0.285714C5.41333 0.0952381 5.61 0 5.83 0M5 11.2114L6.18 13.7486H7.97L6 10.0686L7.93 6.44571H6.22L5.13 8.74286L5.09 8.81143L5.06 8.89143C4.88667 8.48762 4.7 8.08 4.5 7.66857C4.33333 7.26476 4.15667 6.85714 3.97 6.44571H2.16L4.05 10.0914L2 13.7486H3.78M11.88 18.5714V15.7143H6.25V18.5714M11.88 14.2857V10.72H10V14.2857M11.88 9.29143V5.71429H10V9.29143M11.88 4.28571V1.42857H6.25V4.28571M18.75 18.5714V15.7143H13.13V18.5714M18.75 14.2857V10.72H13.13V14.2857M18.75 9.29143V5.71429H13.13V9.29143M18.75 4.28571V1.42857H13.13V4.28571H18.75Z" fill="black"/>
</svg>
