<svg width="30" height="30" viewBox="0 0 86 86" xmlns="http://www.w3.org/2000/svg">
<path d="M0 17.9167C0 13.1649 1.88764 8.6077 5.24767 5.24767C8.6077 1.88764 13.1649 0 17.9167 0H68.0833C72.8351 0 77.3923 1.88764 80.7523 5.24767C84.1124 8.6077 86 13.1649 86 17.9167V68.0833C86 72.8351 84.1124 77.3923 80.7523 80.7523C77.3923 84.1124 72.8351 86 68.0833 86H17.9167C13.1649 86 8.6077 84.1124 5.24767 80.7523C1.88764 77.3923 0 72.8351 0 68.0833V17.9167ZM17.9167 7.16667C15.0656 7.16667 12.3313 8.29925 10.3153 10.3153C8.29925 12.3313 7.16667 15.0656 7.16667 17.9167V68.0833C7.16667 70.9344 8.29925 73.6687 10.3153 75.6847C12.3313 77.7007 15.0656 78.8333 17.9167 78.8333H68.0833C70.9344 78.8333 73.6687 77.7007 75.6847 75.6847C77.7007 73.6687 78.8333 70.9344 78.8333 68.0833V17.9167C78.8333 15.0656 77.7007 12.3313 75.6847 10.3153C73.6687 8.29925 70.9344 7.16667 68.0833 7.16667H17.9167ZM46.5833 60.9167C46.5833 59.9663 46.9609 59.0549 47.6329 58.3829C48.3049 57.7109 49.2163 57.3333 50.1667 57.3333H66.2917C67.242 57.3333 68.1535 57.7109 68.8255 58.3829C69.4975 59.0549 69.875 59.9663 69.875 60.9167C69.875 61.867 69.4975 62.7785 68.8255 63.4505C68.1535 64.1225 67.242 64.5 66.2917 64.5H50.1667C49.2163 64.5 48.3049 64.1225 47.6329 63.4505C46.9609 62.7785 46.5833 61.867 46.5833 60.9167ZM50.1667 28.6667C49.2163 28.6667 48.3049 29.0442 47.6329 29.7162C46.9609 30.3882 46.5833 31.2996 46.5833 32.25C46.5833 33.2004 46.9609 34.1118 47.6329 34.7838C48.3049 35.4558 49.2163 35.8333 50.1667 35.8333H66.2917C67.242 35.8333 68.1535 35.4558 68.8255 34.7838C69.4975 34.1118 69.875 33.2004 69.875 32.25C69.875 31.2996 69.4975 30.3882 68.8255 29.7162C68.1535 29.0442 67.242 28.6667 66.2917 28.6667H50.1667ZM38.3703 51.213C38.704 51.5459 38.9688 51.9413 39.1494 52.3766C39.3301 52.812 39.4231 53.2787 39.4231 53.75C39.4231 54.2213 39.3301 54.688 39.1494 55.1234C38.9688 55.5587 38.704 55.9541 38.3703 56.287L27.6203 67.037C27.2875 67.3707 26.892 67.6355 26.4567 67.8161C26.0214 67.9967 25.5547 68.0897 25.0833 68.0897C24.612 68.0897 24.1453 67.9967 23.71 67.8161C23.2746 67.6355 22.8792 67.3707 22.5463 67.037L17.1857 61.6763C16.8525 61.3432 16.5882 60.9476 16.4079 60.5123C16.2276 60.077 16.1348 59.6105 16.1348 59.1393C16.1348 58.6682 16.2276 58.2016 16.4079 57.7663C16.5882 57.331 16.8525 56.9355 17.1857 56.6023C17.8585 55.9295 18.7711 55.5515 19.7227 55.5515C20.1938 55.5515 20.6604 55.6443 21.0957 55.8246C21.531 56.0049 21.9265 56.2692 22.2597 56.6023L25.0833 59.4332L33.2963 51.213C33.6292 50.8793 34.0246 50.6145 34.46 50.4339C34.8953 50.2532 35.362 50.1603 35.8333 50.1603C36.3047 50.1603 36.7714 50.2532 37.2067 50.4339C37.642 50.6145 38.0375 50.8793 38.3703 51.213ZM38.3703 27.6203C38.7035 27.2872 38.9678 26.8916 39.1481 26.4563C39.3284 26.021 39.4212 25.5545 39.4212 25.0833C39.4212 24.6122 39.3284 24.1456 39.1481 23.7103C38.9678 23.275 38.7035 22.8795 38.3703 22.5463C38.0372 22.2132 37.6416 21.9489 37.2063 21.7686C36.771 21.5883 36.3045 21.4955 35.8333 21.4955C35.3622 21.4955 34.8956 21.5883 34.4603 21.7686C34.025 21.9489 33.6295 22.2132 33.2963 22.5463L25.0833 30.7665L22.2597 27.9357C21.5868 27.2628 20.6742 26.8848 19.7227 26.8848C18.7711 26.8848 17.8585 27.2628 17.1857 27.9357C16.5128 28.6085 16.1348 29.5211 16.1348 30.4727C16.1348 31.4242 16.5128 32.3368 17.1857 33.0097L22.5463 38.3703C22.8792 38.704 23.2746 38.9688 23.71 39.1494C24.1453 39.3301 24.612 39.4231 25.0833 39.4231C25.5547 39.4231 26.0214 39.3301 26.4567 39.1494C26.892 38.9688 27.2875 38.704 27.6203 38.3703L38.3703 27.6203Z"/>
</svg>
