<svg width="269" height="23" viewBox="0 0 269 23" xmlns="http://www.w3.org/2000/svg">
<path d="M257.937 16.4818C256.787 15.3011 256.212 13.8521 256.212 12.1348C256.212 10.4175 256.787 8.97613 257.937 7.8108C259.103 6.63013 260.521 6.03979 262.192 6.03979C263.864 6.03979 265.274 6.63013 266.424 7.8108C267.59 8.97613 268.172 10.4175 268.172 12.1348V12.9398H258.627C258.811 13.9058 259.233 14.6648 259.892 15.2168C260.552 15.7688 261.318 16.0448 262.192 16.0448C263.266 16.0448 264.124 15.7765 264.768 15.2398C265.06 15.0251 265.313 14.7568 265.527 14.4348H268.057C267.735 15.1861 267.329 15.8225 266.838 16.3438C265.581 17.6011 264.032 18.2298 262.192 18.2298C260.521 18.2298 259.103 17.6471 257.937 16.4818ZM258.742 10.9848H265.642C265.504 10.2181 265.136 9.56646 264.538 9.0298C263.956 8.49313 263.174 8.2248 262.192 8.2248C261.364 8.2248 260.628 8.4778 259.984 8.9838C259.34 9.47446 258.926 10.1415 258.742 10.9848Z"/>
<path d="M247.941 17.9998V6.26978H250.356V7.99479H250.471C250.639 7.67279 250.885 7.36612 251.207 7.07479C251.912 6.46145 252.74 6.15479 253.691 6.15479H255.071V8.45479H253.576C252.64 8.45479 251.866 8.75379 251.253 9.35179C250.655 9.93445 250.356 10.7088 250.356 11.6748V17.9998H247.941Z"/>
<path d="M211.939 1.8999H214.699L217.505 15.6999H217.85L220.564 1.8999H224.589L227.418 15.6999H227.763L230.454 1.8999H233.099L229.764 17.9999H225.509L222.749 4.7749H222.404L219.759 17.9999H215.389L211.939 1.8999Z"/>
<path d="M200.548 17.9999V1.8999H202.963V10.8699H204.688L208.253 6.2699H211.013L206.758 11.6749L211.358 17.9999H208.368L204.803 13.0549H202.963V17.9999H200.548Z"/>
<path d="M188.018 14.3198H190.663C190.771 14.6265 190.962 14.9178 191.238 15.1938C191.806 15.7611 192.572 16.0448 193.538 16.0448C194.382 16.0448 194.995 15.9145 195.378 15.6538C195.762 15.3931 195.953 15.0635 195.953 14.6648C195.953 14.5268 195.923 14.4041 195.861 14.2968C195.8 14.1741 195.693 14.0668 195.539 13.9748C195.386 13.8828 195.24 13.8061 195.102 13.7448C194.964 13.6681 194.757 13.5991 194.481 13.5378C194.205 13.4611 193.983 13.4075 193.814 13.3768C193.646 13.3308 193.385 13.2695 193.032 13.1928C192.695 13.1161 192.442 13.0625 192.273 13.0318C189.82 12.4798 188.593 11.2991 188.593 9.4898C188.593 8.5698 189.015 7.7648 189.858 7.0748C190.702 6.3848 191.813 6.03979 193.193 6.03979C195.11 6.03979 196.544 6.65313 197.494 7.8798C197.924 8.41646 198.215 9.02979 198.368 9.7198H195.838C195.716 9.41313 195.547 9.1678 195.332 8.9838C194.796 8.4778 194.083 8.2248 193.193 8.2248C192.503 8.2248 191.982 8.34746 191.629 8.5928C191.292 8.83813 191.123 9.1448 191.123 9.5128C191.123 9.6508 191.154 9.78113 191.215 9.9038C191.277 10.0111 191.384 10.1108 191.537 10.2028C191.691 10.2948 191.836 10.3715 191.974 10.4328C192.128 10.4941 192.335 10.5631 192.595 10.6398C192.856 10.7011 193.078 10.7548 193.262 10.8008C193.446 10.8315 193.699 10.8851 194.021 10.9618C194.359 11.0231 194.619 11.0768 194.803 11.1228C197.257 11.6748 198.483 12.8555 198.483 14.6648C198.483 15.6461 198.039 16.4895 197.149 17.1948C196.275 17.8848 195.072 18.2298 193.538 18.2298C191.545 18.2298 190.019 17.5781 188.961 16.2748C188.486 15.6768 188.172 15.0251 188.018 14.3198Z"/>
<path d="M162.248 4.4299V1.8999H175.473V4.4299H170.183V17.9999H167.538V4.4299H162.248Z"/>
<path d="M153.38 12.8249V10.5249H161.775V12.8249H153.38Z"/>
<path d="M21.2102 17.9985C21.2097 17.9996 21.2092 18.0007 21.2086 18.0018H21.2124L21.2102 17.9985Z"/>
<path d="M34.1013 14.6526C34.1013 13.5754 34.5159 12.6836 35.3462 11.9759C36.176 11.2688 37.36 10.9146 38.8984 10.9146H42.2109V10.432C42.2109 9.64421 41.9939 9.0252 41.56 8.575C41.126 8.12481 40.5051 7.89972 39.698 7.89972C38.8144 7.89972 38.1063 8.18108 37.5733 8.74382C37.345 9.00132 37.177 9.28269 37.0709 9.58794H34.5579C34.7098 8.84842 35.007 8.18905 35.4491 7.61039C36.4694 6.27573 37.8856 5.6084 39.698 5.6084C41.2207 5.6084 42.4199 6.04665 43.2959 6.92259C44.1714 7.7991 44.6092 8.96892 44.6092 10.4315V18.149H42.2104V16.4608H42.0962C41.8523 16.8149 41.5481 17.136 41.1825 17.4254C40.3291 18.0688 39.3394 18.39 38.2124 18.39C36.918 18.39 35.9089 18.0484 35.1852 17.3651C34.4626 16.6824 34.1013 15.7781 34.1013 14.6526ZM36.6143 14.5321C36.6143 15.5774 37.3374 16.0998 38.7842 16.0998C39.8654 16.0998 40.707 15.8224 41.3085 15.2676C41.9099 14.7128 42.2109 13.9455 42.2109 12.9644H38.6701C37.2997 12.9644 36.6143 13.4873 36.6143 14.5321Z"/>
<path d="M45.5758 5.85034H48.0888L50.6017 15.8586H52.0868L54.5997 5.85034H57.1127L53.9143 18.1499H48.7742L45.5758 5.85034Z"/>
<path d="M57.5668 14.6526C57.5668 13.5754 57.9814 12.6836 58.8117 11.9759C59.6414 11.2688 60.8255 10.9146 62.3638 10.9146H65.6764V10.432C65.6764 9.64421 65.4594 9.0252 65.0254 8.575C64.5914 8.12481 63.9706 7.89972 63.1634 7.89972C62.2798 7.89972 61.5718 8.18108 61.0387 8.74382C60.8104 9.00132 60.6424 9.28269 60.5363 9.58794H58.0234C58.1752 8.84842 58.4724 8.18905 58.9145 7.61039C59.9349 6.27573 61.351 5.6084 63.1634 5.6084C64.6862 5.6084 65.8853 6.04665 66.7614 6.92259C67.6369 7.7991 68.0747 8.96892 68.0747 10.4315V18.149H65.6759V16.4608H65.5617C65.3178 16.8149 65.0136 17.136 64.648 17.4254C63.7945 18.0688 62.8048 18.39 61.6779 18.39C60.3834 18.39 59.3744 18.0484 58.6507 17.3651C57.9281 16.6824 57.5668 15.7781 57.5668 14.6526ZM60.0797 14.5321C60.0797 15.5774 60.8029 16.0998 62.2497 16.0998C63.3309 16.0998 64.1725 15.8224 64.7739 15.2676C65.3754 14.7128 65.6764 13.9455 65.6764 12.9644H62.1355C60.7652 12.9644 60.0797 13.4873 60.0797 14.5321Z"/>
<path d="M70.4418 18.1497V5.85014H72.8406V7.53836H72.9547C73.1373 7.2172 73.4189 6.89547 73.8001 6.57374C74.6223 5.93086 75.5592 5.60913 76.6103 5.60913C78.0571 5.60913 79.1803 6.05136 79.9799 6.93583C80.7795 7.8203 81.179 9.10607 81.179 10.7943V18.1497H78.7802V11.0353C78.7802 9.95871 78.5552 9.16633 78.1066 8.65986C77.657 8.1534 76.9678 7.90045 76.039 7.90045C75.1102 7.90045 74.3445 8.23411 73.743 8.90144C73.141 9.56877 72.8406 10.4413 72.8406 11.5179V18.1497H70.4418Z"/>
<path d="M82.351 8.14134V5.85059H83.7218V3.19775H86.1207V5.85059H89.6615V8.14134H86.1207V15.8588H89.7757V18.1496H83.7218V8.14134H82.351Z"/>
<path d="M91.9297 16.6184C90.8862 15.4366 90.365 13.8973 90.365 11.9999C90.365 10.1031 90.8868 8.56323 91.9297 7.38148C92.9727 6.19972 94.279 5.60913 95.8475 5.60913C96.8372 5.60913 97.7439 5.91494 98.5662 6.52543C98.9318 6.79884 99.2435 7.10409 99.5025 7.44173H99.6167V5.85014H102.015V22.7318H92.0778V20.4404H99.6167V16.582H99.5025C99.2435 16.9196 98.9312 17.2254 98.5662 17.4983C97.7585 18.0934 96.8528 18.3907 95.8475 18.3907C94.2785 18.3907 92.9727 17.8001 91.9297 16.6184ZM93.7912 8.96113C93.1816 9.66881 92.8774 10.6817 92.8774 11.9999C92.8774 13.3181 93.1816 14.331 93.7912 15.0387C94.4001 15.7464 95.238 16.1 96.3041 16.1C97.3094 16.1 98.1122 15.7424 98.7142 15.0268C99.3157 14.3117 99.6167 13.3022 99.6167 11.9999C99.6167 10.6977 99.3157 9.68871 98.7142 8.97306C98.1122 8.25799 97.3094 7.89988 96.3041 7.89988C95.238 7.90045 94.4001 8.25401 93.7912 8.96113Z"/>
<path d="M104.329 13.2058V5.85034H106.728V12.9647C106.728 14.0419 106.953 14.8337 107.402 15.3402C107.851 15.8466 108.541 16.0996 109.47 16.0996C110.399 16.0996 111.164 15.7659 111.766 15.0986C112.367 14.4313 112.668 13.5593 112.668 12.4821V5.85034H115.067V18.1499H112.668V16.4617H112.554C112.372 16.7834 112.09 17.1051 111.709 17.4263C110.887 18.0698 109.95 18.3909 108.899 18.3909C107.452 18.3909 106.329 17.9487 105.53 17.0642C104.729 16.1803 104.329 14.894 104.329 13.2058Z"/>
<path d="M116.96 14.6526C116.96 13.5754 117.375 12.6836 118.205 11.9759C119.035 11.2688 120.219 10.9146 121.758 10.9146H125.07V10.432C125.07 9.64421 124.853 9.0252 124.419 8.575C123.985 8.12481 123.364 7.89972 122.557 7.89972C121.674 7.89972 120.965 8.18108 120.432 8.74382C120.204 9.00132 120.036 9.28269 119.93 9.58794H117.417C117.569 8.84842 117.866 8.18905 118.308 7.61039C119.329 6.27573 120.745 5.6084 122.557 5.6084C124.08 5.6084 125.279 6.04665 126.155 6.92259C127.031 7.7991 127.468 8.96892 127.468 10.4315V18.149H125.07V16.4608H124.955C124.711 16.8149 124.407 17.136 124.042 17.4254C123.188 18.0688 122.199 18.39 121.072 18.39C119.777 18.39 118.768 18.0484 118.044 17.3651C117.322 16.6824 116.96 15.7781 116.96 14.6526ZM119.473 14.5321C119.473 15.5774 120.197 16.0998 121.643 16.0998C122.725 16.0998 123.566 15.8224 124.168 15.2676C124.769 14.7128 125.07 13.9455 125.07 12.9644H121.529C120.159 12.9644 119.473 13.4873 119.473 14.5321Z"/>
<path d="M129.835 18.1498V5.85024H132.234V7.65897H132.348C132.516 7.32132 132.76 7.00016 133.079 6.69435C133.78 6.05146 134.602 5.72974 135.547 5.72974H136.917V8.14156H135.432C134.504 8.14156 133.738 8.45135 133.136 9.0698C132.534 9.68881 132.234 10.5051 132.234 11.5174V18.1492H129.835V18.1498Z"/>
<path d="M138.957 16.6184C137.914 15.4366 137.393 13.8973 137.393 11.9999C137.393 10.1031 137.914 8.56322 138.957 7.38147C140 6.19971 141.307 5.60912 142.875 5.60912C143.865 5.60912 144.772 5.91493 145.594 6.52542C145.944 6.78292 146.256 7.0802 146.53 7.41785H146.644V1.26807H149.044V18.1497H146.645V16.582H146.531C146.272 16.9196 145.959 17.2254 145.594 17.4983C144.787 18.0934 143.881 18.3907 142.876 18.3907C141.307 18.3907 140 17.8001 138.957 16.6184ZM140.819 8.96111C140.21 9.6688 139.906 10.6817 139.906 11.9999C139.906 13.3181 140.21 14.331 140.819 15.0387C141.428 15.7464 142.266 16.1 143.332 16.1C144.338 16.1 145.14 15.7424 145.742 15.0268C146.344 14.3117 146.645 13.3022 146.645 11.9999C146.645 10.6977 146.344 9.6887 145.742 8.97305C145.14 8.25798 144.338 7.89987 143.332 7.89987C142.266 7.90044 141.428 8.254 140.819 8.96111Z"/>
<path d="M11.5003 0C5.149 0 0 5.14888 0 11.5C0 13.5945 0.56273 15.5567 1.54165 17.2486C1.54219 17.2497 1.54274 17.2508 1.54328 17.2519C3.53218 20.687 7.24466 23 11.4997 23C17.851 23 23 17.8511 23 11.5C23 5.14888 17.8515 0 11.5003 0ZM19.433 17.2486H3.56758L2.5538 15.4929L10.487 1.7546H12.5135L20.4467 15.4924L19.433 17.2486Z"/>
<path d="M24.2869 0C23.4232 0 22.7345 0.708255 22.7345 1.59045C22.7345 2.49254 23.4237 3.20023 24.2869 3.20023C25.1597 3.20023 25.8306 2.49254 25.8306 1.59045C25.8301 0.708255 25.1597 0 24.2869 0ZM24.296 2.86145C23.6159 2.86145 23.12 2.29871 23.12 1.59102C23.12 0.892425 23.6159 0.320592 24.2869 0.320592C24.9578 0.320592 25.4445 0.892993 25.4445 1.60068C25.4445 2.29871 24.9572 2.86145 24.296 2.86145Z"/>
<path d="M24.6359 1.63942V1.62009C24.82 1.56154 24.9487 1.42569 24.9487 1.25118C24.9487 1.096 24.8841 0.969813 24.8017 0.902171C24.6913 0.834528 24.5627 0.785645 24.2778 0.785645C24.0296 0.785645 23.8368 0.80497 23.699 0.833959V2.42441H24.0479V1.78437H24.2137C24.4065 1.78437 24.4986 1.86224 24.526 2.03674C24.5718 2.22091 24.5993 2.36643 24.6456 2.42441H25.0225C24.9859 2.36643 24.9584 2.26923 24.9121 2.02651C24.8658 1.81392 24.7829 1.69739 24.6359 1.63942ZM24.2223 1.52289H24.057V1.06701C24.0937 1.05735 24.1583 1.04712 24.2498 1.04712C24.47 1.04712 24.5713 1.14432 24.5713 1.28984C24.5718 1.45468 24.4157 1.52289 24.2223 1.52289Z"/>
<path d="M175.762 14.7625C175.762 13.6853 176.177 12.7934 177.007 12.0857C177.837 11.3786 179.021 11.0245 180.559 11.0245H183.872V10.5419C183.872 9.75407 183.655 9.13506 183.221 8.68487C182.787 8.23468 182.166 8.00958 181.359 8.00958C180.475 8.00958 179.767 8.29095 179.234 8.85369C179.006 9.11118 178.838 9.39256 178.732 9.6978H176.219C176.371 8.95828 176.668 8.29891 177.11 7.72025C178.13 6.38559 179.546 5.71826 181.359 5.71826C182.882 5.71826 184.081 6.15652 184.957 7.03246C185.832 7.90897 186.27 9.07878 186.27 10.5413V18.2588H183.871V16.5706H183.757C183.513 16.9247 183.209 17.2459 182.843 17.5352C181.99 18.1787 181 18.4998 179.873 18.4998C178.579 18.4998 177.57 18.1582 176.846 17.475C176.124 16.7923 175.762 15.8879 175.762 14.7625ZM178.275 14.642C178.275 15.6873 178.998 16.2097 180.445 16.2097C181.526 16.2097 182.368 15.9323 182.969 15.3775C183.571 14.8227 183.872 14.0553 183.872 13.0742H180.331C178.961 13.0742 178.275 13.5972 178.275 14.642Z"/>
<path d="M234 14.7625C234 13.6853 234.415 12.7934 235.245 12.0857C236.075 11.3786 237.259 11.0245 238.797 11.0245H242.11V10.5419C242.11 9.75407 241.893 9.13506 241.459 8.68487C241.025 8.23468 240.404 8.00958 239.597 8.00958C238.713 8.00958 238.005 8.29095 237.472 8.85369C237.244 9.11118 237.076 9.39256 236.97 9.6978H234.457C234.608 8.95828 234.906 8.29891 235.348 7.72025C236.368 6.38559 237.784 5.71826 239.597 5.71826C241.119 5.71826 242.319 6.15652 243.195 7.03246C244.07 7.90897 244.508 9.07878 244.508 10.5413V18.2588H242.109V16.5706H241.995C241.751 16.9247 241.447 17.2459 241.081 17.5352C240.228 18.1787 239.238 18.4998 238.111 18.4998C236.817 18.4998 235.808 18.1582 235.084 17.475C234.362 16.7923 234 15.8879 234 14.7625ZM236.513 14.642C236.513 15.6873 237.236 16.2097 238.683 16.2097C239.764 16.2097 240.606 15.9323 241.207 15.3775C241.809 14.8227 242.11 14.0553 242.11 13.0742H238.569C237.198 13.0742 236.513 13.5972 236.513 14.642Z"/>
</svg>
