<svg width="26" height="23" viewBox="0 0 26 23" xmlns="http://www.w3.org/2000/svg">
<path d="M21.3493 17.9985C21.3487 17.9996 21.3482 18.0007 21.3477 18.0018H21.3515L21.3493 17.9985Z"/>
<path d="M11.5757 0C5.18276 0 0 5.14888 0 11.5C0 13.5945 0.566419 15.5567 1.55176 17.2486C1.55231 17.2497 1.55285 17.2508 1.5534 17.2519C3.55534 20.687 7.29217 23 11.5751 23C17.968 23 23.1508 17.8511 23.1508 11.5C23.1508 5.14888 17.9686 0 11.5757 0ZM19.5604 17.2486H3.59098L2.57054 15.4929L10.5558 1.7546H12.5956L20.5808 15.4924L19.5604 17.2486Z"/>
<path d="M24.4461 0C23.5767 0 22.8835 0.708255 22.8835 1.59045C22.8835 2.49254 23.5773 3.20023 24.4461 3.20023C25.3246 3.20023 25.9999 2.49254 25.9999 1.59045C25.9994 0.708255 25.3246 0 24.4461 0ZM24.4553 2.86145C23.7708 2.86145 23.2716 2.29871 23.2716 1.59102C23.2716 0.892425 23.7708 0.320592 24.4461 0.320592C25.1214 0.320592 25.6113 0.892993 25.6113 1.60068C25.6113 2.29871 25.1208 2.86145 24.4553 2.86145Z"/>
<path d="M24.7974 1.63942V1.62009C24.9828 1.56154 25.1123 1.42569 25.1123 1.25118C25.1123 1.096 25.0473 0.969813 24.9643 0.902171C24.8532 0.834528 24.7237 0.785645 24.437 0.785645C24.1871 0.785645 23.9931 0.80497 23.8544 0.833959V2.42441H24.2056V1.78437H24.3725C24.5665 1.78437 24.6592 1.86224 24.6869 2.03674C24.7329 2.22091 24.7606 2.36643 24.8072 2.42441H25.1866C25.1497 2.36643 25.1221 2.26923 25.0755 2.02651C25.0288 1.81392 24.9454 1.69739 24.7974 1.63942ZM24.3812 1.52289H24.2148V1.06701C24.2516 1.05735 24.3167 1.04712 24.4088 1.04712C24.6305 1.04712 24.7324 1.14432 24.7324 1.28984C24.7329 1.45468 24.5757 1.52289 24.3812 1.52289Z"/>
</svg>
