<svg width="22" height="22" viewBox="0 0 22 22" fill="none" xmlns="http://www.w3.org/2000/svg">
<path d="M5.44444 16.5556V14.3333C5.44444 13.744 5.67857 13.1787 6.09532 12.762C6.51207 12.3452 7.0773 12.1111 7.66667 12.1111H14.3333C14.9227 12.1111 15.4879 12.3452 15.9047 12.762C16.3214 13.1787 16.5556 13.744 16.5556 14.3333V16.5556M5.44444 16.5556V18.7778C5.44444 19.3671 5.67857 19.9324 6.09532 20.3491C6.51207 20.7659 7.0773 21 7.66667 21H14.3333C14.9227 21 15.4879 20.7659 15.9047 20.3491C16.3214 19.9324 16.5556 19.3671 16.5556 18.7778V16.5556M5.44444 16.5556H3.22222C2.63285 16.5556 2.06762 16.3214 1.65087 15.9047C1.23413 15.4879 1 14.9227 1 14.3333V7.66667C1 7.0773 1.23413 6.51207 1.65087 6.09532C2.06762 5.67857 2.63285 5.44444 3.22222 5.44444H4.33333M16.5556 16.5556H18.7778C19.3671 16.5556 19.9324 16.3214 20.3491 15.9047C20.7659 15.4879 21 14.9227 21 14.3333V7.66667C21 7.0773 20.7659 6.51207 20.3491 6.09532C19.9324 5.67857 19.3671 5.44444 18.7778 5.44444H17.6667M4.33333 5.44444V3.22222C4.33333 2.63285 4.56746 2.06762 4.98421 1.65087C5.40095 1.23413 5.96619 1 6.55556 1H15.4444C16.0338 1 16.599 1.23413 17.0158 1.65087C17.4325 2.06762 17.6667 2.63285 17.6667 3.22222V5.44444M4.33333 5.44444H17.6667M5.44444 8.77778H6.55556" stroke="black" stroke-width="1.66667" stroke-linecap="round" stroke-linejoin="round"/>
</svg>
