<svg width="30" height="26" viewBox="0 0 30 26" xmlns="http://www.w3.org/2000/svg">
<path d="M3.75 7.42857H7.5C7.99728 7.42857 8.47419 7.23291 8.82582 6.88463C9.17746 6.53634 9.375 6.06397 9.375 5.57143V1.85714C9.375 1.3646 9.17746 0.892226 8.82582 0.543944C8.47419 0.195663 7.99728 0 7.5 0H3.75C3.25272 0 2.77581 0.195663 2.42417 0.543944C2.07254 0.892226 1.875 1.3646 1.875 1.85714V5.57143C1.875 6.06397 2.07254 6.53634 2.42417 6.88463C2.77581 7.23291 3.25272 7.42857 3.75 7.42857ZM3.75 1.85714H7.5V5.57143H3.75V1.85714ZM26.25 18.5714H22.5C22.0027 18.5714 21.5258 18.7671 21.1742 19.1154C20.8225 19.4637 20.625 19.936 20.625 20.4286V24.1429C20.625 24.6354 20.8225 25.1078 21.1742 25.4561C21.5258 25.8043 22.0027 26 22.5 26H26.25C26.7473 26 27.2242 25.8043 27.5758 25.4561C27.9275 25.1078 28.125 24.6354 28.125 24.1429V20.4286C28.125 19.936 27.9275 19.4637 27.5758 19.1154C27.2242 18.7671 26.7473 18.5714 26.25 18.5714ZM26.25 24.1429H22.5V20.4286H26.25V24.1429ZM20.0756 9.82986L18.75 11.1429L24.375 16.7143L30 11.1429L28.6744 9.82986L25.3125 13.1597V4.64286C25.3125 4.15031 25.115 3.67794 24.7633 3.32966C24.4117 2.98138 23.9348 2.78571 23.4375 2.78571H11.25V4.64286H23.4375V13.1597L20.0756 9.82986ZM6.5625 12.8403L9.92438 16.1701L11.25 14.8571L5.625 9.28571L0 14.8571L1.32563 16.1701L4.6875 12.8403V21.3571C4.6875 21.8497 4.88504 22.3221 5.23667 22.6703C5.58831 23.0186 6.06522 23.2143 6.5625 23.2143H18.75V21.3571H6.5625V12.8403Z"/>
</svg>
