<svg width="30" height="30" viewBox="0 0 30 30" fill="none" xmlns="http://www.w3.org/2000/svg">
<path d="M25.7263 14.9998C24.9659 15.0037 24.2205 15.2132 23.5688 15.6062L20.5151 12.5429L22.9642 10.0861C23.3647 9.68427 23.5897 9.13932 23.5897 8.5711C23.5897 8.00288 23.3647 7.45793 22.9642 7.05608L16.5556 0.627409C16.155 0.225679 15.6118 0 15.0453 0C14.4789 0 13.9356 0.225679 13.535 0.627409L7.12641 7.05608C6.72594 7.45793 6.50096 8.00288 6.50096 8.5711C6.50096 9.13932 6.72594 9.68427 7.12641 10.0861L9.57557 12.5429L6.52187 15.6062C5.61706 15.0677 4.54738 14.879 3.51372 15.0757C2.48005 15.2723 1.55351 15.8407 0.90808 16.6742C0.262653 17.5076 -0.057256 18.5488 0.00842961 19.6021C0.0741153 20.6554 0.520877 21.6485 1.26482 22.3947C2.00876 23.141 2.99869 23.5892 4.04873 23.6551C5.09877 23.7209 6.13667 23.4 6.96752 22.7526C7.79837 22.1051 8.36502 21.1757 8.56105 20.1388C8.75709 19.1019 8.56902 18.0289 8.03216 17.1212L11.0859 14.058L13.535 16.5148C13.6675 16.6442 13.8161 16.7559 13.9772 16.8469V21.4284H10.7729V30H19.3177V21.4284H16.1134V16.8459C16.2745 16.7552 16.4231 16.6439 16.5556 16.5148L19.0048 14.058L22.0585 17.1212C21.5854 17.9352 21.3938 18.8831 21.5133 19.8177C21.6329 20.7522 22.0569 21.6209 22.7194 22.2887C23.382 22.9565 24.2459 23.386 25.177 23.5103C26.108 23.6347 27.0539 23.447 27.8676 22.9764C28.6812 22.5057 29.3171 21.7786 29.6762 20.908C30.0354 20.0374 30.0977 19.0722 29.8535 18.1624C29.6092 17.2527 29.0722 16.4493 28.3258 15.8774C27.5794 15.3054 26.6656 14.9969 25.7263 14.9998ZM6.50051 19.2855C6.50051 19.7094 6.37522 20.1237 6.14049 20.4761C5.90576 20.8285 5.57213 21.1031 5.18179 21.2653C4.79145 21.4275 4.36193 21.4699 3.94755 21.3873C3.53317 21.3046 3.15253 21.1005 2.85378 20.8008C2.55503 20.5011 2.35157 20.1193 2.26915 19.7036C2.18672 19.2879 2.22902 18.8571 2.39071 18.4655C2.55239 18.0739 2.8262 17.7393 3.17749 17.5038C3.52879 17.2683 3.9418 17.1427 4.3643 17.1427C4.93086 17.1427 5.47421 17.3684 5.87483 17.7703C6.27544 18.1722 6.50051 18.7172 6.50051 19.2855ZM17.1815 23.5713V27.8571H12.9091V23.5713H17.1815ZM15.0453 14.9998L8.63671 8.5711L15.0453 2.14243L21.4539 8.5711L15.0453 14.9998ZM25.7263 21.4284C25.3038 21.4284 24.8908 21.3028 24.5395 21.0673C24.1882 20.8318 23.9144 20.4972 23.7527 20.1056C23.5911 19.714 23.5488 19.2832 23.6312 18.8675C23.7136 18.4518 23.9171 18.07 24.2158 17.7703C24.5146 17.4706 24.8952 17.2665 25.3096 17.1838C25.724 17.1012 26.1535 17.1436 26.5438 17.3058C26.9342 17.468 27.2678 17.7426 27.5025 18.095C27.7373 18.4474 27.8625 18.8617 27.8625 19.2855C27.8625 19.8539 27.6375 20.3989 27.2369 20.8008C26.8362 21.2027 26.2929 21.4284 25.7263 21.4284Z" fill="black"/>
</svg>
