<svg width="30" height="30" viewBox="0 0 30 30" xmlns="http://www.w3.org/2000/svg">
<path fill-rule="evenodd" clip-rule="evenodd" d="M2.53846 5.81928C2.44841 5.81928 2.30769 5.91728 2.30769 6.13375V27.0904C2.30769 27.3069 2.44841 27.4049 2.53846 27.4049H27.4615C27.5516 27.4049 27.6923 27.3069 27.6923 27.0904V6.13375C27.6923 5.91728 27.5516 5.81928 27.4615 5.81928H2.53846ZM0 6.13375C0 4.5696 1.09911 3.22412 2.53846 3.22412H27.4615C28.9009 3.22412 30 4.5696 30 6.13375V27.0904C30 28.6546 28.9009 30 27.4615 30H2.53846C1.09911 30 0 28.6546 0 27.0904V6.13375Z"/>
<path fill-rule="evenodd" clip-rule="evenodd" d="M8.07694 0C8.71419 0 9.23079 0.580946 9.23079 1.29758V7.74578C9.23079 8.46241 8.71419 9.04336 8.07694 9.04336C7.43969 9.04336 6.9231 8.46241 6.9231 7.74578V1.29758C6.9231 0.580946 7.43969 0 8.07694 0ZM21.9231 0C22.5603 0 23.0769 0.580946 23.0769 1.29758V7.74578C23.0769 8.46241 22.5603 9.04336 21.9231 9.04336C21.2858 9.04336 20.7692 8.46241 20.7692 7.74578V1.29758C20.7692 0.580946 21.2858 0 21.9231 0ZM6.9231 15C6.9231 14.2834 7.43969 13.7024 8.07694 13.7024H15.6923C16.3296 13.7024 16.8462 14.2834 16.8462 15C16.8462 15.7166 16.3296 16.2976 15.6923 16.2976H8.07694C7.43969 16.2976 6.9231 15.7166 6.9231 15ZM6.9231 21.4482C6.9231 20.7316 7.43969 20.1506 8.07694 20.1506H21.9231C22.5603 20.1506 23.0769 20.7316 23.0769 21.4482C23.0769 22.1648 22.5603 22.7458 21.9231 22.7458H8.07694C7.43969 22.7458 6.9231 22.1648 6.9231 21.4482Z"/>
</svg>
