<svg width="30" height="30" viewBox="0 0 30 30" xmlns="http://www.w3.org/2000/svg">
<path fill-rule="evenodd" clip-rule="evenodd" d="M19.882 22.5296C17.3479 24.3966 14.202 25.237 11.0745 24.8826C7.94702 24.5281 5.06898 23.0048 3.01695 20.618C0.964916 18.2312 -0.109539 15.1571 0.00883718 12.0116C0.127213 8.86604 1.42968 5.8814 3.6553 3.6556C5.88091 1.4298 8.8653 0.127224 12.0106 0.00883792C15.1558 -0.109548 18.2297 0.964996 20.6163 3.0172C23.0029 5.0694 24.526 7.94769 24.8805 11.0754C25.2349 14.2032 24.3946 17.3493 22.5277 19.8837L29.4042 26.7582C29.5881 26.9296 29.7356 27.1363 29.8379 27.3659C29.9403 27.5955 29.9953 27.8435 29.9997 28.0948C30.0041 28.3462 29.9579 28.5959 29.8638 28.829C29.7696 29.0621 29.6295 29.2739 29.4517 29.4517C29.2739 29.6294 29.0622 29.7696 28.8291 29.8637C28.596 29.9579 28.3463 30.0041 28.095 29.9997C27.8436 29.9953 27.5957 29.9403 27.3661 29.8379C27.1365 29.7356 26.9298 29.5881 26.7584 29.4041L19.882 22.5296ZM21.2174 12.4799C21.2174 14.7971 20.297 17.0193 18.6586 18.6577C17.0203 20.2962 14.7983 21.2166 12.4814 21.2166C10.1645 21.2166 7.94245 20.2962 6.30414 18.6577C4.66584 17.0193 3.74544 14.7971 3.74544 12.4799C3.74544 10.1628 4.66584 7.94062 6.30414 6.30217C7.94245 4.66373 10.1645 3.74326 12.4814 3.74326C14.7983 3.74326 17.0203 4.66373 18.6586 6.30217C20.297 7.94062 21.2174 10.1628 21.2174 12.4799Z"/>
</svg>
