<svg width="30" height="30" viewBox="0 0 86 87" xmlns="http://www.w3.org/2000/svg">
<path d="M56.4375 0.92334L86 15.8283V49.0681L80.625 46.3581V21.8835L59.125 32.7234V43.6481L53.75 46.3581V32.7234L32.25 21.8835V31.4955L26.875 28.7855V15.8283L56.4375 0.92334ZM56.4375 28.0233L63.8701 24.2547L44.4277 13.0336L35.5674 17.5221L56.4375 28.0233ZM69.665 21.3753L77.3076 17.5221L56.4375 6.97848L50.1807 10.1543L69.665 21.3753ZM48.375 49.0681L43 51.7781V51.7357L26.875 59.8657V79.1321L43 70.9598V77.0573L24.1875 86.5422L0 74.3049V45.6806L24.1875 33.4856L48.375 45.6806V49.0681ZM21.5 79.1321V59.8657L5.375 51.7357V70.9598L21.5 79.1321ZM24.1875 55.1656L39.6826 47.3743L24.1875 39.5408L8.69238 47.3743L24.1875 55.1656ZM48.375 55.1232L67.1875 45.6383L86 55.1232V77.4384L67.1875 86.9233L48.375 77.4384V55.1232ZM64.5 79.5132V66.5984L53.75 61.1784V74.0932L64.5 79.5132ZM80.625 74.0932V61.1784L69.875 66.5984V79.5132L80.625 74.0932ZM67.1875 61.8982L77.3076 56.7746L67.1875 51.6934L57.0674 56.7746L67.1875 61.8982Z"/>
</svg>
