<svg width="30" height="30" viewBox="0 0 30 30" xmlns="http://www.w3.org/2000/svg">
<path fill-rule="evenodd" clip-rule="evenodd" d="M7.38229 19.6008C7.37627 19.8621 7.45205 20.118 7.59757 20.3279C7.74309 20.5377 7.94999 20.6895 8.18537 20.759C8.42075 20.8284 8.67108 20.8117 8.89654 20.7114C9.122 20.611 9.30963 20.4329 9.4296 20.2053L10.7473 17.7063C11.5102 16.2594 12.6658 15.0948 14.061 14.3665C15.4562 13.6383 17.0251 13.3809 18.5601 13.6283L18.7775 13.6627C18.8169 14.7216 18.8723 15.7805 18.9438 16.8364L19.0431 18.2904C19.1233 19.4728 20.3549 20.1334 21.2874 19.4946C24.3486 17.4014 27.0098 14.704 29.1293 11.5463L29.7947 10.5546C29.9284 10.3554 30.0002 10.1164 30.0002 9.87126C30.0002 9.62609 29.9284 9.38709 29.7947 9.18795L29.1293 8.19617C27.0104 5.03811 24.3496 2.34022 21.2888 0.246322C21.0754 0.100317 20.8302 0.0161633 20.5772 0.00210553C20.3243 -0.0119523 20.0722 0.0445682 19.8458 0.166129C19.6194 0.287691 19.4264 0.470122 19.2857 0.695549C19.1449 0.920977 19.0613 1.18167 19.0431 1.45208L18.9438 2.9046C18.8855 3.75894 18.8388 4.61171 18.8023 5.46604H17.3153C14.7442 5.46606 12.275 6.54213 10.4351 8.46443C8.59517 10.3867 7.53047 13.0028 7.46839 15.754L7.38229 19.6008ZM18.8855 11.3105C17.169 11.034 15.4147 11.2479 13.8003 11.9306C12.1859 12.6133 10.7687 13.7404 9.69227 15.198C9.87982 13.1734 10.7639 11.2957 12.1727 9.92981C13.5815 8.56393 15.4145 7.80742 17.3153 7.80727H19.8544C20.138 7.80705 20.4104 7.68904 20.6142 7.47811C20.8181 7.26718 20.9375 6.97979 20.9474 6.67648C20.9853 5.47385 21.0451 4.27435 21.1269 3.07641L21.1356 2.95927C23.5361 4.7755 25.637 7.00725 27.352 9.56279L27.5592 9.87204L27.352 10.1797C25.637 12.7352 23.5361 14.967 21.1356 16.7833L21.1269 16.6661C21.0352 15.3173 20.971 13.9665 20.9342 12.6147C20.9268 12.3401 20.8296 12.0771 20.6594 11.8716C20.4892 11.666 20.257 11.531 20.0032 11.4901L18.8855 11.3105Z"/>
<path d="M24.9281 23.2884C25.1007 21.7148 25.2223 20.1354 25.2929 18.5528C25.2968 18.4681 25.3165 18.3851 25.3508 18.3086C25.3852 18.2322 25.4335 18.1639 25.4928 18.1077C26.024 17.6079 26.5377 17.0862 27.0338 16.5458C27.2206 16.3428 27.546 16.4865 27.5416 16.7707C27.4962 19.0405 27.3501 21.3067 27.1038 23.5617C26.758 26.7198 24.3867 29.1953 21.4508 29.5467C16.3512 30.1512 11.2049 30.1512 6.1054 29.5467C3.16941 29.1953 0.798151 26.7198 0.453771 23.5617C-0.151257 18.0256 -0.151257 12.4328 0.453771 6.89668C0.798151 3.73861 3.16796 1.26307 6.1054 0.91165C9.47609 0.511573 12.8696 0.375849 16.2588 0.505567C16.5448 0.514939 16.7403 0.814815 16.7068 1.11938C16.6989 1.1827 16.6926 1.24624 16.6878 1.30992L16.6134 2.40947C16.6051 2.53113 16.553 2.6446 16.4681 2.72591C16.3831 2.80722 16.272 2.85 16.1581 2.84523C12.8833 2.72142 9.60446 2.85349 6.34764 3.24038C5.40488 3.35206 4.52483 3.80065 3.84964 4.51368C3.17446 5.22671 2.74357 6.16255 2.62658 7.17001C2.04149 12.5245 2.04149 17.9338 2.62658 23.2884C2.74357 24.2958 3.17446 25.2317 3.84964 25.9447C4.52483 26.6577 5.40488 27.1063 6.34764 27.218C11.2448 27.8037 16.3113 27.8037 21.2085 27.218C22.1513 27.1063 23.0313 26.6577 23.7065 25.9447C24.3817 25.2317 24.8111 24.2958 24.9281 23.2884Z"/>
</svg>
