<svg width="30" height="30" viewBox="0 0 30 30" fill="none" xmlns="http://www.w3.org/2000/svg">
<path d="M17.5 22.9C16.1366 22.241 14.9658 21.2424 14.1 20H3.75V5H26.25V7.825C27.2615 8.53684 28.113 9.45225 28.75 10.5125V5C28.75 4.33696 28.4866 3.70107 28.0178 3.23223C27.5489 2.76339 26.913 2.5 26.25 2.5H3.75C3.08696 2.5 2.45107 2.76339 1.98223 3.23223C1.51339 3.70107 1.25 4.33696 1.25 5V20C1.25 20.663 1.51339 21.2989 1.98223 21.7678C2.45107 22.2366 3.08696 22.5 3.75 22.5H12.5V25H10V27.5H20V25H17.5V22.9Z" fill="black"/>
<path d="M21.25 7.5C19.7666 7.5 18.3166 7.93987 17.0832 8.76398C15.8499 9.58809 14.8886 10.7594 14.3209 12.1299C13.7532 13.5003 13.6047 15.0083 13.8941 16.4632C14.1835 17.918 14.8978 19.2544 15.9467 20.3033C16.9956 21.3522 18.332 22.0665 19.7868 22.3559C21.2417 22.6453 22.7497 22.4968 24.1201 21.9291C25.4906 21.3614 26.6619 20.4001 27.486 19.1668C28.3101 17.9334 28.75 16.4834 28.75 15C28.75 13.0109 27.9598 11.1032 26.5533 9.6967C25.1468 8.29018 23.2391 7.5 21.25 7.5ZM21.25 16.875C20.8792 16.875 20.5167 16.765 20.2083 16.559C19.9 16.353 19.6596 16.0601 19.5177 15.7175C19.3758 15.3749 19.3387 14.9979 19.411 14.6342C19.4834 14.2705 19.662 13.9364 19.9242 13.6742C20.1864 13.412 20.5205 13.2334 20.8842 13.161C21.2479 13.0887 21.6249 13.1258 21.9675 13.2677C22.3101 13.4096 22.603 13.65 22.809 13.9583C23.015 14.2666 23.125 14.6292 23.125 15C23.125 15.4973 22.9275 15.9742 22.5758 16.3258C22.2242 16.6775 21.7473 16.875 21.25 16.875Z" fill="black"/>
</svg>
