<svg width="32" height="32" viewBox="0 0 32 32" fill="none" xmlns="http://www.w3.org/2000/svg">
<path d="M12.6667 13C12.6667 13.7956 13.0179 14.5587 13.643 15.1213C14.2681 15.6839 15.116 16 16 16C16.8841 16 17.7319 15.6839 18.357 15.1213C18.9822 14.5587 19.3334 13.7956 19.3334 13C19.3334 12.2044 18.9822 11.4413 18.357 10.8787C17.7319 10.3161 16.8841 10 16 10C15.116 10 14.2681 10.3161 13.643 10.8787C13.0179 11.4413 12.6667 12.2044 12.6667 13Z" stroke="white" stroke-width="1.5625" stroke-linecap="round" stroke-linejoin="round"/>
<path d="M26.4083 20.5C27.9783 18.7352 28.9624 16.6071 29.2473 14.3609C29.5322 12.1146 29.1062 9.8417 28.0185 7.80385C26.9308 5.76599 25.2255 4.04614 23.0992 2.8424C20.9729 1.63866 18.512 1 16 1C13.488 1 11.0271 1.63866 8.90078 2.8424C6.77446 4.04614 5.06922 5.76599 3.9815 7.80385C2.89377 9.8417 2.46781 12.1146 2.75268 14.3609C3.03755 16.6071 4.02167 18.7352 5.59167 20.5M14.3333 25H17.6667M22.4833 7.915L25.8367 4.9M1 25.75C1 23.644 1 22.5895 1.505 21.8335C1.725 21.5065 2.005 21.2245 2.33333 21.0055C3.09 20.5 4.14333 20.5 6.25 20.5H25.75C27.8567 20.5 28.91 20.5 29.6667 21.0055C29.995 21.2245 30.275 21.5065 30.495 21.8335C31 22.5895 31 23.644 31 25.75C31 27.856 31 28.9105 30.495 29.6665C30.275 29.9935 29.995 30.2755 29.6667 30.4945C28.91 31 27.8567 31 25.75 31H6.25C4.14333 31 3.09 31 2.33333 30.4945C1.99938 30.2702 1.7179 29.9889 1.505 29.6665C1 28.9105 1 27.856 1 25.75Z" stroke="white" stroke-width="1.5625" stroke-linecap="round" stroke-linejoin="round"/>
</svg>
