<svg width="30" height="30" viewBox="0 0 30 30" xmlns="http://www.w3.org/2000/svg">
<path d="M28.4713 1.52878C27.4905 0.54981 26.1613 0 24.7755 0C23.3898 0 22.0606 0.54981 21.0797 1.52878L11.2841 11.3251C11.1576 11.4513 11.0621 11.6052 11.0052 11.7746L8.12417 20.4184C8.05629 20.6215 8.04629 20.8394 8.09529 21.0477C8.14429 21.2561 8.25035 21.4467 8.40158 21.5982C8.55281 21.7497 8.74325 21.8561 8.95153 21.9054C9.15982 21.9547 9.37772 21.9451 9.58083 21.8775L18.224 18.9962C18.3942 18.9397 18.5489 18.8442 18.6757 18.7173L28.4713 8.92098C29.4502 7.94002 30 6.61076 30 5.22488C30 3.839 29.4502 2.50973 28.4713 1.52878ZM22.7092 3.15843C23.2602 2.62456 23.9989 2.32873 24.766 2.33478C25.5331 2.34083 26.2671 2.64826 26.8095 3.19075C27.3519 3.73323 27.6594 4.46726 27.6654 5.23442C27.6714 6.00158 27.3756 6.74036 26.8418 7.29133L17.2375 16.8941L11.0375 18.9617L13.1049 12.7611L22.7092 3.15843ZM13.8264 4.64747C14.1091 4.64747 14.3903 4.65746 14.6699 4.67744L16.7051 2.6421C13.7879 2.02181 10.7484 2.36128 8.03996 3.60985C5.33149 4.85843 3.0992 6.94921 1.67606 9.57032C0.252917 12.1914 -0.284805 15.2024 0.1431 18.1542C0.571005 21.1059 1.94161 23.8402 4.05046 25.9492C6.15931 28.0582 8.89341 29.4289 11.8449 29.8569C14.7964 30.2848 17.8072 29.7471 20.4281 28.3238C23.049 26.9006 25.1396 24.6681 26.3881 21.9594C27.6366 19.2507 27.976 16.211 27.3558 13.2936L25.3206 15.3313C25.3406 15.6079 25.3506 15.8883 25.3506 16.1726C25.3506 18.452 24.6747 20.6803 23.4084 22.5756C22.1421 24.4709 20.3423 25.9481 18.2365 26.8204C16.1307 27.6927 13.8136 27.9209 11.5781 27.4762C9.34261 27.0315 7.28919 25.9339 5.67749 24.3221C4.0658 22.7103 2.96823 20.6567 2.52356 18.421C2.0789 16.1854 2.30711 13.8681 3.17936 11.7621C4.0516 9.65617 5.52869 7.8562 7.42384 6.5898C9.31899 5.32341 11.5471 4.64747 13.8264 4.64747Z"/>
</svg>
