<svg width="30" height="30" viewBox="0 0 30 30" fill="none" xmlns="http://www.w3.org/2000/svg">
<g clip-path="url(#clip0_291_523)">
<path fill-rule="evenodd" clip-rule="evenodd" d="M0 14.5201C0.00010351 14.2262 0.0606507 13.9355 0.177878 13.666C0.295105 13.3965 0.466507 13.1541 0.681429 12.9536L14.3036 0.257213C14.4976 0.0912176 14.7446 0 15 0C15.2554 0 15.5024 0.0912176 15.6964 0.257213L29.3186 12.9536C29.5335 13.1541 29.7049 13.3965 29.8221 13.666C29.9393 13.9355 29.9999 14.2262 30 14.5201V26.7858C30 27.6383 29.6614 28.4558 29.0586 29.0586C28.4558 29.6614 27.6382 30.0001 26.7857 30.0001H3.21429C2.3618 30.0001 1.54424 29.6614 0.941442 29.0586C0.338647 28.4558 0 27.6383 0 26.7858L0 14.5201ZM14.5071 18.7501H11.7943V12.3215H18.2229V18.7501H14.5071ZM10.17 27.3215H13.9286V20.8929H7.5V27.3215H10.17ZM18.7886 27.3215H16.0714V20.8929H22.5V27.3215H18.7886Z" fill="black"/>
</g>
<defs>
<clipPath id="clip0_291_523">
<rect width="30" height="30" fill="white"/>
</clipPath>
</defs>
</svg>
