<svg width="30" height="30" viewBox="0 0 30 30" fill="none" xmlns="http://www.w3.org/2000/svg">
<path d="M8.76748 20.0036H13.7675M8.76748 13.7561H18.7675M12.5175 27.4999H13.7675M9.38748 27.4999C7.92498 27.4686 6.92498 27.3749 5.95498 27.0936C4.64248 26.7499 3.68623 25.5936 3.40498 23.9699C3.04873 22.4399 3.17373 18.6611 3.14248 14.1624C3.14498 10.6736 2.98623 7.3224 3.54873 5.4174C3.89248 4.7924 4.17373 2.5124 8.82998 2.5424C9.61123 2.5124 17.8925 2.4499 19.205 2.5749C23.58 2.66865 24.0175 4.9174 24.2675 7.04115C24.4262 8.60365 24.3925 11.1011 24.3925 13.7561M8.76748 2.5124C9.14248 4.5424 9.11123 5.8549 10.4862 6.16615C11.08 6.2599 12.4362 6.2574 13.8925 6.2599C15.1925 6.2624 16.5175 6.2749 17.1112 6.1349C18.58 5.7924 18.4237 3.9799 18.7987 2.5124M22.8487 17.9736C21.13 19.7236 17.82 22.8461 17.82 23.0649C17.5537 23.4361 17.32 24.1899 17.165 25.2524C16.9687 26.2361 16.7337 27.0936 17.0087 27.3436C17.2837 27.5936 18.3175 27.3836 19.4125 27.1561C20.2875 27.0624 21.1 26.7499 21.505 26.4386C22.0987 25.9136 26.1275 21.8461 26.595 21.3161C26.9387 20.8474 26.97 19.9724 26.67 19.4411C26.5025 19.0661 25.44 18.0661 25.0962 17.7861C24.7506 17.573 24.3457 17.4762 23.941 17.5099C23.5363 17.5436 23.1543 17.7062 22.8487 17.9736Z" stroke="black" stroke-width="1.5625" stroke-linecap="round" stroke-linejoin="round"/>
</svg>
