<svg width="30" height="30" viewBox="0 0 30 30" fill="none" xmlns="http://www.w3.org/2000/svg">
<path d="M28.5714 0H0V6.66582H28.5714V0ZM5.71429 4.99937H2.85714V1.66646H5.71429V4.99937ZM26.5714 17.9977C26.2988 17.592 25.9523 17.262 25.557 17.0315C25.1618 16.8009 24.7275 16.6756 24.2857 16.6646H14.2829C13.905 16.6654 13.5428 16.8409 13.2756 17.1526C13.0083 17.4643 12.8579 17.8869 12.8571 18.3277V28.3331C12.8579 28.7739 13.0083 29.1964 13.2756 29.5081C13.5428 29.8198 13.905 29.9953 14.2829 29.9962H24.2857C24.7329 30.0223 25.1782 29.9134 25.5787 29.6798C25.9791 29.4462 26.3211 29.096 26.5714 28.663L30 23.3304L26.5714 17.9977ZM14.2829 13.3316H24.2857C25.0991 13.3475 25.9006 13.5618 26.6387 13.9607C27.3768 14.3597 28.0352 14.9344 28.5714 15.648V9.99873H0V16.6646H10.2629C10.5553 15.6923 11.0989 14.8498 11.8188 14.2529C12.5388 13.656 13.3996 13.3342 14.2829 13.3316ZM2.85714 14.9981V11.6652H5.71429V14.9981H2.85714ZM10 19.9975H0V26.6633H10V19.9975ZM2.85714 24.9968V21.6639H5.71429V24.9968H2.85714Z" fill="black"/>
</svg>
