<svg width="25" height="25" viewBox="0 0 25 25" fill="none" xmlns="http://www.w3.org/2000/svg">
<path d="M12.5001 20.4542C16.8933 20.4542 20.4546 16.8928 20.4546 12.4995C20.4546 8.10632 16.8933 4.54492 12.5001 4.54492C8.1069 4.54492 4.54553 8.10632 4.54553 12.4995C4.54553 16.8928 8.1069 20.4542 12.5001 20.4542Z" stroke="black" stroke-width="1.5"/>
<path d="M5.11377 15.3411C5.97116 15.6957 7.3865 15.9093 8.10184 15.0752C8.81661 14.2406 8.17911 12.9275 8.97116 12.482C9.83934 11.9934 10.466 13.6548 12.0973 13.3616C13.7285 13.0684 14.7729 10.7956 14.7729 9.65926C14.7729 8.52289 13.7984 8.52289 13.7285 7.4172C13.6365 5.96605 14.7729 5.11377 14.7729 5.11377M14.7729 19.8866C14.1558 19.3701 13.6365 19.0343 13.6365 18.1821C13.6365 17.3298 14.2047 17.6139 14.7729 17.0457C15.341 16.4775 15.057 15.3411 15.6251 15.057C16.1933 14.7729 17.9592 15.373 19.3183 16.4775" stroke="black" stroke-width="1.5" stroke-linecap="round"/>
<path d="M12.5001 2.27275C13.1277 2.27275 13.6365 1.76398 13.6365 1.13637C13.6365 0.508772 13.1277 0 12.5001 0C11.8725 0 11.3638 0.508772 11.3638 1.13637C11.3638 1.76398 11.8725 2.27275 12.5001 2.27275Z" fill="black"/>
<path d="M12.5001 24.9998C13.1277 24.9998 13.6365 24.491 13.6365 23.8634C13.6365 23.2358 13.1277 22.7271 12.5001 22.7271C11.8725 22.7271 11.3638 23.2358 11.3638 23.8634C11.3638 24.491 11.8725 24.9998 12.5001 24.9998Z" fill="black"/>
<path d="M23.8637 13.6365C24.4913 13.6365 25 13.1277 25 12.5001C25 11.8725 24.4913 11.3638 23.8637 11.3638C23.2361 11.3638 22.7273 11.8725 22.7273 12.5001C22.7273 13.1277 23.2361 13.6365 23.8637 13.6365Z" fill="black"/>
<path d="M20.4546 5.68193C21.0822 5.68193 21.591 5.17316 21.591 4.54555C21.591 3.91795 21.0822 3.40918 20.4546 3.40918C19.827 3.40918 19.3182 3.91795 19.3182 4.54555C19.3182 5.17316 19.827 5.68193 20.4546 5.68193Z" fill="black"/>
<path d="M4.54554 21.5911C5.17314 21.5911 5.68191 21.0823 5.68191 20.4547C5.68191 19.8271 5.17314 19.3184 4.54554 19.3184C3.91795 19.3184 3.40918 19.8271 3.40918 20.4547C3.40918 21.0823 3.91795 21.5911 4.54554 21.5911Z" fill="black"/>
<path d="M1.13636 13.6365C1.76396 13.6365 2.27273 13.1277 2.27273 12.5001C2.27273 11.8725 1.76396 11.3638 1.13636 11.3638C0.508768 11.3638 0 11.8725 0 12.5001C0 13.1277 0.508768 13.6365 1.13636 13.6365Z" fill="black"/>
<path d="M4.54554 5.68193C5.17314 5.68193 5.68191 5.17316 5.68191 4.54555C5.68191 3.91795 5.17314 3.40918 4.54554 3.40918C3.91795 3.40918 3.40918 3.91795 3.40918 4.54555C3.40918 5.17316 3.91795 5.68193 4.54554 5.68193Z" fill="black"/>
<path d="M20.4546 21.5911C21.0822 21.5911 21.591 21.0823 21.591 20.4547C21.591 19.8271 21.0822 19.3184 20.4546 19.3184C19.827 19.3184 19.3182 19.8271 19.3182 20.4547C19.3182 21.0823 19.827 21.5911 20.4546 21.5911Z" fill="black"/>
<path d="M4.54553 12.4995C4.54553 14.6672 5.41258 16.632 6.81826 18.0666M12.5001 20.4542C16.8933 20.4542 20.4546 16.8928 20.4546 12.4995M12.5001 4.54492C14.6677 4.54492 16.6325 5.41198 18.0671 6.81767" stroke="black" stroke-width="1.5" stroke-linecap="round" stroke-linejoin="round"/>
</svg>
