<svg width="30" height="30" viewBox="0 0 30 30" fill="none" xmlns="http://www.w3.org/2000/svg">
<g clip-path="url(#clip0_324_538)">
<path d="M11 4.70094e-05C10.0672 -0.0222592 9.13935 0.142203 8.27104 0.483759C7.40273 0.825316 6.6115 1.33707 5.94388 1.98891C5.27626 2.64076 4.74573 3.41954 4.38352 4.27943C4.0213 5.13933 3.8347 6.06298 3.8347 6.99605C3.8347 7.92912 4.0213 8.85277 4.38352 9.71266C4.74573 10.5726 5.27626 11.3513 5.94388 12.0032C6.6115 12.655 7.40273 13.1668 8.27104 13.5083C9.13935 13.8499 10.0672 14.0144 11 13.992C11.9328 14.0144 12.8606 13.8499 13.729 13.5083C14.5973 13.1668 15.3885 12.655 16.0561 12.0032C16.7237 11.3513 17.2543 10.5726 17.6165 9.71266C17.9787 8.85277 18.1653 7.92912 18.1653 6.99605C18.1653 6.06298 17.9787 5.13933 17.6165 4.27943C17.2543 3.41954 16.7237 2.64076 16.0561 1.98891C15.3885 1.33707 14.5973 0.825316 13.729 0.483759C12.8606 0.142203 11.9328 -0.0222592 11 4.70094e-05ZM7 17.988C5.14348 17.988 3.36301 18.7255 2.05025 20.0383C0.737498 21.3511 0 23.1315 0 24.988L0 29.982H22V24.988C22 23.1315 21.2625 21.3511 19.9497 20.0383C18.637 18.7255 16.8565 17.988 15 17.988H7ZM25 20H24V30H30V25C30 23.674 29.4732 22.4022 28.5355 21.4645C27.5979 20.5268 26.3261 20 25 20Z" fill="black"/>
<path d="M23 8C21.6739 8 20.4021 8.52678 19.4645 9.46447C18.5268 10.4021 18 11.6739 18 13C18 14.3261 18.5268 15.5979 19.4645 16.5355C20.4021 17.4732 21.6739 18 23 18C24.3261 18 25.5979 17.4732 26.5355 16.5355C27.4732 15.5979 28 14.3261 28 13C28 11.6739 27.4732 10.4021 26.5355 9.46447C25.5979 8.52678 24.3261 8 23 8Z" fill="black"/>
</g>
<defs>
<clipPath id="clip0_324_538">
<rect width="30" height="30" fill="white"/>
</clipPath>
</defs>
</svg>
