<svg width="30" height="22" viewBox="0 0 30 22" xmlns="http://www.w3.org/2000/svg">
<path d="M21 19.0667V22H0V19.0667C0 19.0667 0 13.2 10.5 13.2C21 13.2 21 19.0667 21 19.0667ZM15.75 5.13337C15.75 4.1181 15.4421 3.12562 14.8652 2.28145C14.2883 1.43728 13.4684 0.779334 12.5091 0.390805C11.5498 0.00227614 10.4942 -0.0993808 9.47577 0.0986895C8.45737 0.29676 7.52191 0.785661 6.78769 1.50357C6.05346 2.22148 5.55345 3.13615 5.35088 4.13191C5.1483 5.12768 5.25227 6.15982 5.64963 7.09781C6.04699 8.0358 6.7199 8.83752 7.58326 9.40158C8.44661 9.96563 9.46165 10.2667 10.5 10.2667C11.8924 10.2667 13.2277 9.72586 14.2123 8.76318C15.1969 7.8005 15.75 6.49482 15.75 5.13337ZM20.91 13.2C21.8321 13.8978 22.5867 14.7847 23.1205 15.7982C23.6544 16.8118 23.9546 17.9274 24 19.0667V22H30V19.0667C30 19.0667 30 13.7427 20.91 13.2ZM19.5 5.39681e-05C18.4677 -0.00464102 17.4582 0.297099 16.605 0.865385C17.5162 2.1102 18.0061 3.6026 18.0061 5.13337C18.0061 6.66415 17.5162 8.15655 16.605 9.40136C17.4582 9.96965 18.4677 10.2714 19.5 10.2667C20.8924 10.2667 22.2277 9.72586 23.2123 8.76318C24.1969 7.8005 24.75 6.49482 24.75 5.13337C24.75 3.77193 24.1969 2.46625 23.2123 1.50357C22.2277 0.540885 20.8924 5.39681e-05 19.5 5.39681e-05Z"/>
</svg>
