<svg width="28" height="28" viewBox="0 0 28 28" fill="none" xmlns="http://www.w3.org/2000/svg">
<path d="M5.5 7.375C5.5 5.55164 6.22433 3.80295 7.51364 2.51364C8.80295 1.22433 10.5516 0.5 12.375 0.5C14.1984 0.5 15.947 1.22433 17.2364 2.51364C18.5257 3.80295 19.25 5.55164 19.25 7.375C19.25 9.19836 18.5257 10.947 17.2364 12.2364C15.947 13.5257 14.1984 14.25 12.375 14.25C10.5516 14.25 8.80295 13.5257 7.51364 12.2364C6.22433 10.947 5.5 9.19836 5.5 7.375ZM16.4375 14.875H27.0625V27.7438L21.7538 24.4725L16.4375 27.74V14.875ZM13.9375 25.5H0.5V23C0.5 21.0109 1.29018 19.1032 2.6967 17.6967C4.10322 16.2902 6.01088 15.5 8 15.5H13.9375V25.5Z" fill="black"/>
</svg>
