<svg width="165" height="26" viewBox="0 0 165 26" fill="none" xmlns="http://www.w3.org/2000/svg">
<path d="M23.4851 19.6387C23.4846 19.6401 23.484 19.6415 23.4834 19.6429H23.4874L23.4851 19.6387Z" fill="white"/>
<path d="M37.7529 16.1535C37.7529 15.0314 38.2119 14.1024 39.1311 13.3652C40.0496 12.6286 41.3604 12.2598 43.0634 12.2598H46.7305V11.7571C46.7305 10.9364 46.4903 10.2916 46.0098 9.82264C45.5294 9.35369 44.8421 9.11921 43.9486 9.11921C42.9704 9.11921 42.1866 9.4123 41.5965 9.99849C41.3437 10.2667 41.1577 10.5598 41.0403 10.8778H38.2584C38.4265 10.1074 38.7555 9.4206 39.2449 8.81783C40.3745 7.42756 41.9422 6.73242 43.9486 6.73242C45.6343 6.73242 46.9618 7.18894 47.9316 8.10138C48.9008 9.01441 49.3854 10.233 49.3854 11.7565V19.7955H46.7299V18.037H46.6035C46.3335 18.4058 45.9967 18.7404 45.592 19.0418C44.6472 19.712 43.5516 20.0466 42.304 20.0466C40.871 20.0466 39.754 19.6907 38.9528 18.979C38.1529 18.2679 37.7529 17.3258 37.7529 16.1535ZM40.5348 16.0279C40.5348 17.1168 41.3354 17.661 42.937 17.661C44.134 17.661 45.0657 17.372 45.7315 16.7941C46.3973 16.2162 46.7305 15.4169 46.7305 14.3949H42.8107C41.2936 14.3949 40.5348 14.9396 40.5348 16.0279Z" fill="white"/>
<path d="M50.459 6.98413H53.2409L56.0228 17.4094H57.6668L60.4487 6.98413H63.2306L59.6899 19.7962H53.9997L50.459 6.98413Z" fill="white"/>
<path d="M63.7275 16.1535C63.7275 15.0314 64.1865 14.1024 65.1057 13.3652C66.0242 12.6286 67.335 12.2598 69.038 12.2598H72.7051V11.7571C72.7051 10.9364 72.4649 10.2916 71.9845 9.82264C71.504 9.35369 70.8167 9.11921 69.9232 9.11921C68.945 9.11921 68.1612 9.4123 67.5711 9.99849C67.3183 10.2667 67.1324 10.5598 67.0149 10.8778H64.233C64.4011 10.1074 64.7301 9.4206 65.2195 8.81783C66.3491 7.42756 67.9168 6.73242 69.9232 6.73242C71.6089 6.73242 72.9364 7.18894 73.9062 8.10138C74.8754 9.01441 75.3601 10.233 75.3601 11.7565V19.7955H72.7045V18.037H72.5781C72.3081 18.4058 71.9713 18.7404 71.5666 19.0418C70.6218 19.712 69.5262 20.0466 68.2786 20.0466C66.8456 20.0466 65.7286 19.6907 64.9275 18.979C64.1275 18.2679 63.7275 17.3258 63.7275 16.1535ZM66.5095 16.0279C66.5095 17.1168 67.31 17.661 68.9117 17.661C70.1086 17.661 71.0403 17.372 71.7061 16.7941C72.3719 16.2162 72.7051 15.4169 72.7051 14.3949H68.7853C67.2683 14.3949 66.5095 14.9396 66.5095 16.0279Z" fill="white"/>
<path d="M77.9883 19.796V6.98396H80.6438V8.74253H80.7702C80.9723 8.40798 81.284 8.07285 81.706 7.73772C82.6163 7.06804 83.6534 6.73291 84.817 6.73291C86.4187 6.73291 87.6621 7.19357 88.5473 8.11489C89.4324 9.03621 89.8747 10.3756 89.8747 12.1341V19.796H87.2192V12.3852C87.2192 11.2637 86.97 10.4383 86.4735 9.91075C85.9758 9.38319 85.2128 9.1197 84.1845 9.1197C83.1563 9.1197 82.3087 9.46727 81.6429 10.1624C80.9764 10.8575 80.6438 11.7664 80.6438 12.8879V19.796H77.9883Z" fill="white"/>
<path d="M91.1699 9.37076V6.98456H92.6875V4.22119H95.3431V6.98456H99.2629V9.37076H95.3431V17.4098H99.3893V19.796H92.6875V9.37076H91.1699Z" fill="white"/>
<path d="M101.775 18.2009C100.62 16.9699 100.043 15.3664 100.043 13.39C100.043 11.4141 100.621 9.8101 101.775 8.5791C102.93 7.34811 104.376 6.73291 106.112 6.73291C107.208 6.73291 108.212 7.05146 109.122 7.68739C109.527 7.97219 109.872 8.29015 110.158 8.64187H110.285V6.98396H112.94V24.569H101.939V22.1822H110.285V18.163H110.158C109.872 18.5147 109.526 18.8332 109.122 19.1174C108.228 19.7374 107.225 20.0471 106.112 20.0471C104.375 20.0471 102.93 19.4319 101.775 18.2009ZM103.836 10.2246C103.161 10.9617 102.824 12.0169 102.824 13.39C102.824 14.7631 103.161 15.8182 103.836 16.5554C104.51 17.2926 105.438 17.6609 106.618 17.6609C107.731 17.6609 108.619 17.2884 109.286 16.543C109.952 15.7981 110.285 14.7465 110.285 13.39C110.285 12.0335 109.952 10.9825 109.286 10.237C108.619 9.49214 107.731 9.11911 106.618 9.11911C105.438 9.1197 104.51 9.48799 103.836 10.2246Z" fill="white"/>
<path d="M115.5 14.646V6.98413H118.156V14.395C118.156 15.517 118.404 16.3418 118.902 16.8694C119.399 17.397 120.162 17.6604 121.191 17.6604C122.219 17.6604 123.066 17.3129 123.732 16.6177C124.398 15.9226 124.731 15.0143 124.731 13.8923V6.98413H127.387V19.7962H124.731V18.0376H124.605C124.403 18.3727 124.091 18.7079 123.669 19.0424C122.759 19.7127 121.722 20.0472 120.559 20.0472C118.957 20.0472 117.714 19.5866 116.829 18.6652C115.943 17.7445 115.5 16.4046 115.5 14.646Z" fill="white"/>
<path d="M129.481 16.1535C129.481 15.0314 129.94 14.1024 130.86 13.3652C131.778 12.6286 133.089 12.2598 134.792 12.2598H138.459V11.7571C138.459 10.9364 138.219 10.2916 137.738 9.82264C137.258 9.35369 136.571 9.11921 135.677 9.11921C134.699 9.11921 133.915 9.4123 133.325 9.99849C133.072 10.2667 132.886 10.5598 132.769 10.8778H129.987C130.155 10.1074 130.484 9.4206 130.973 8.81783C132.103 7.42756 133.671 6.73242 135.677 6.73242C137.363 6.73242 138.69 7.18894 139.66 8.10138C140.629 9.01441 141.114 10.233 141.114 11.7565V19.7955H138.458V18.037H138.332C138.062 18.4058 137.725 18.7404 137.321 19.0418C136.376 19.712 135.28 20.0466 134.033 20.0466C132.6 20.0466 131.482 19.6907 130.681 18.979C129.882 18.2679 129.481 17.3258 129.481 16.1535ZM132.263 16.0279C132.263 17.1168 133.064 17.661 134.666 17.661C135.862 17.661 136.794 17.372 137.46 16.7941C138.126 16.2162 138.459 15.4169 138.459 14.3949H134.539C133.022 14.3949 132.263 14.9396 132.263 16.0279Z" fill="white"/>
<path d="M143.735 19.7962V6.98417H146.391V8.86826H146.517C146.703 8.51655 146.973 8.182 147.327 7.86345C148.102 7.19377 149.012 6.85864 150.058 6.85864H151.576V9.37096H149.932C148.903 9.37096 148.056 9.69366 147.39 10.3379C146.724 10.9827 146.391 11.8329 146.391 12.8875V19.7956H143.735V19.7962Z" fill="white"/>
<path d="M153.835 18.2011C152.68 16.9701 152.103 15.3666 152.103 13.3902C152.103 11.4143 152.68 9.8103 153.835 8.57931C154.989 7.34831 156.435 6.73311 158.172 6.73311C159.267 6.73311 160.271 7.05167 161.181 7.68759C161.569 7.95582 161.915 8.26549 162.218 8.6172H162.344V2.21118H165.001V19.7962H162.345V18.1632H162.219C161.932 18.5149 161.586 18.8334 161.182 19.1177C160.288 19.7376 159.285 20.0473 158.172 20.0473C156.435 20.0473 154.989 19.4321 153.835 18.2011ZM155.896 10.2248C155.221 10.962 154.884 12.0171 154.884 13.3902C154.884 14.7633 155.221 15.8184 155.896 16.5556C156.57 17.2928 157.498 17.6611 158.678 17.6611C159.791 17.6611 160.68 17.2886 161.346 16.5432C162.012 15.7983 162.345 14.7467 162.345 13.3902C162.345 12.0337 162.012 10.9827 161.346 10.2372C160.68 9.49234 159.791 9.11931 158.678 9.11931C157.498 9.1199 156.57 9.48819 155.896 10.2248Z" fill="white"/>
<path d="M12.5839 0.890137C5.63416 0.890137 0 6.48674 0 13.3901C0 15.6668 0.615752 17.7996 1.68691 19.6387C1.68751 19.6398 1.6881 19.641 1.6887 19.6422C3.86499 23.376 7.92728 25.8901 12.5833 25.8901C19.533 25.8901 25.1671 20.2935 25.1671 13.3901C25.1671 6.48674 19.5336 0.890137 12.5839 0.890137ZM21.264 19.6387H3.90374L2.79443 17.7303L11.4752 2.79732H13.6926L22.3733 17.7297L21.264 19.6387Z" fill="white"/>
<path d="M26.8855 0.890137C25.9294 0.890137 25.167 1.6279 25.167 2.54685C25.167 3.48653 25.93 4.22371 26.8855 4.22371C27.8517 4.22371 28.5945 3.48653 28.5945 2.54685C28.5939 1.6279 27.8517 0.890137 26.8855 0.890137ZM26.8956 3.87081C26.1428 3.87081 25.5938 3.28462 25.5938 2.54745C25.5938 1.81975 26.1428 1.22409 26.8855 1.22409C27.6282 1.22409 28.1671 1.82034 28.1671 2.55751C28.1671 3.28462 27.6276 3.87081 26.8956 3.87081Z" fill="white"/>
<path d="M27.2686 2.59784V2.57771C27.4725 2.51672 27.615 2.37521 27.615 2.19343C27.615 2.03179 27.5434 1.90034 27.4522 1.82988C27.33 1.75942 27.1876 1.7085 26.8722 1.7085C26.5974 1.7085 26.384 1.72863 26.2314 1.75882V3.41554H26.6177V2.74883H26.8013C27.0147 2.74883 27.1166 2.82995 27.147 3.01172C27.1977 3.20357 27.2281 3.35515 27.2794 3.41554H27.6966C27.6561 3.35515 27.6257 3.2539 27.5744 3.00107C27.5232 2.77962 27.4314 2.65824 27.2686 2.59784ZM26.8108 2.47646H26.6278V2.00159C26.6684 1.99152 26.7399 1.98086 26.8412 1.98086C27.085 1.98086 27.1971 2.08212 27.1971 2.2337C27.1977 2.40541 27.0248 2.47646 26.8108 2.47646Z" fill="white"/>
</svg>
