<svg width="120" height="100" viewBox="0 0 120 100" fill="none" xmlns="http://www.w3.org/2000/svg">
<path d="M41.4375 16.2003C43.875 13.5999 46.7689 11.5372 49.9539 10.1299C53.1389 8.7226 56.5526 7.99827 60 7.99827C63.4474 7.99827 66.8611 8.7226 70.046 10.1299C73.231 11.5372 76.1249 13.5999 78.5625 16.2003C78.9084 16.5823 79.3222 16.887 79.7797 17.0967C80.2372 17.3063 80.7293 17.4166 81.2272 17.4213C81.7251 17.4259 82.2189 17.3247 82.6798 17.1235C83.1407 16.9224 83.5594 16.6254 83.9115 16.2498C84.2636 15.8743 84.542 15.4277 84.7306 14.9361C84.9191 14.4445 85.014 13.9178 85.0097 13.3867C85.0053 12.8556 84.9019 12.3307 84.7054 11.8427C84.5088 11.3546 84.2231 10.9133 83.865 10.5443C80.731 7.20133 77.0104 4.54956 72.9156 2.74037C68.8209 0.93118 64.4321 0 60 0C55.5678 0 51.1791 0.93118 47.0843 2.74037C42.9895 4.54956 39.269 7.20133 36.135 10.5443C35.4519 11.2987 35.0739 12.3091 35.0824 13.3579C35.091 14.4067 35.4854 15.4099 36.1807 16.1515C36.8759 16.8932 37.8165 17.3138 38.7997 17.323C39.783 17.3321 40.7302 16.9289 41.4375 16.2003Z" fill="black"/>
<path d="M52.05 27.5202C54.1594 25.273 57.0187 24.0108 60 24.0108C62.9813 24.0108 65.8406 25.273 67.95 27.5202C68.6542 28.2713 69.6092 28.6933 70.605 28.6933C71.6008 28.6933 72.5558 28.2713 73.26 27.5202C73.9641 26.7691 74.3597 25.7504 74.3597 24.6882C74.3597 23.626 73.9641 22.6073 73.26 21.8562C71.5188 19.9985 69.4516 18.5249 67.1765 17.5194C64.9013 16.514 62.4627 15.9965 60 15.9965C57.5373 15.9965 55.0987 16.514 52.8235 17.5194C50.5484 18.5249 48.4812 19.9985 46.74 21.8562C46.0569 22.6107 45.6789 23.6211 45.6875 24.6698C45.696 25.7186 46.0904 26.7219 46.7857 27.4635C47.481 28.2051 48.4215 28.6258 49.4047 28.6349C50.388 28.644 51.3352 28.2409 52.0425 27.5122L52.05 27.5202ZM18.75 80.0001C17.7554 80.0001 16.8016 79.5786 16.0984 78.8285C15.3951 78.0784 15 77.0609 15 76.0001C15 74.9392 15.3951 73.9218 16.0984 73.1717C16.8016 72.4215 17.7554 72.0001 18.75 72.0001C19.7446 72.0001 20.6984 72.4215 21.4016 73.1717C22.1049 73.9218 22.5 74.9392 22.5 76.0001C22.5 77.0609 22.1049 78.0784 21.4016 78.8285C20.6984 79.5786 19.7446 80.0001 18.75 80.0001ZM52.5 76.0001C52.5 77.0609 52.8951 78.0784 53.5984 78.8285C54.3016 79.5786 55.2554 80.0001 56.25 80.0001C57.2446 80.0001 58.1984 79.5786 58.9016 78.8285C59.6049 78.0784 60 77.0609 60 76.0001C60 74.9392 59.6049 73.9218 58.9016 73.1717C58.1984 72.4215 57.2446 72.0001 56.25 72.0001C55.2554 72.0001 54.3016 72.4215 53.5984 73.1717C52.8951 73.9218 52.5 74.9392 52.5 76.0001ZM71.25 80.0001C70.2554 80.0001 69.3016 79.5786 68.5983 78.8285C67.8951 78.0784 67.5 77.0609 67.5 76.0001C67.5 74.9392 67.8951 73.9218 68.5983 73.1717C69.3016 72.4215 70.2554 72.0001 71.25 72.0001C72.2446 72.0001 73.1984 72.4215 73.9017 73.1717C74.6049 73.9218 75 74.9392 75 76.0001C75 77.0609 74.6049 78.0784 73.9017 78.8285C73.1984 79.5786 72.2446 80.0001 71.25 80.0001ZM82.5 76.0001C82.5 77.0609 82.8951 78.0784 83.5983 78.8285C84.3016 79.5786 85.2554 80.0001 86.25 80.0001C87.2446 80.0001 88.1984 79.5786 88.9017 78.8285C89.6049 78.0784 90 77.0609 90 76.0001C90 74.9392 89.6049 73.9218 88.9017 73.1717C88.1984 72.4215 87.2446 72.0001 86.25 72.0001C85.2554 72.0001 84.3016 72.4215 83.5983 73.1717C82.8951 73.9218 82.5 74.9392 82.5 76.0001ZM97.5 76.0001C97.5 77.0609 97.8951 78.0784 98.5983 78.8285C99.3016 79.5786 100.255 80.0001 101.25 80.0001C102.245 80.0001 103.198 79.5786 103.902 78.8285C104.605 78.0784 105 77.0609 105 76.0001C105 74.9392 104.605 73.9218 103.902 73.1717C103.198 72.4215 102.245 72.0001 101.25 72.0001C100.255 72.0001 99.3016 72.4215 98.5983 73.1717C97.8951 73.9218 97.5 74.9392 97.5 76.0001Z" fill="black"/>
<path d="M22.305 10.7363C22.1638 10.2197 21.9263 9.7389 21.6067 9.32255C21.2872 8.9062 20.8922 8.56289 20.4454 8.31317C19.9986 8.06345 19.5091 7.91246 19.0063 7.86922C18.5035 7.82599 17.9977 7.8914 17.5191 8.06155C17.0406 8.23171 16.5991 8.50309 16.2212 8.85947C15.8433 9.21586 15.5367 9.64991 15.3197 10.1356C15.1027 10.6214 14.9798 11.1488 14.9584 11.6864C14.937 12.224 15.0174 12.7606 15.195 13.2643L28.545 56.0001H11.25C8.26631 56.0001 5.40483 57.2644 3.29505 59.5148C1.18526 61.7653 0 64.8175 0 68.0001L0 84.0001C0 87.1826 1.18526 90.2349 3.29505 92.4853C5.40483 94.7357 8.26631 96 11.25 96H15C15 97.0609 15.3951 98.0783 16.0984 98.8284C16.8016 99.5786 17.7554 100 18.75 100H33.75C34.7446 100 35.6984 99.5786 36.4016 98.8284C37.1049 98.0783 37.5 97.0609 37.5 96H82.5C82.5 97.0609 82.8951 98.0783 83.5983 98.8284C84.3016 99.5786 85.2554 100 86.25 100H101.25C102.245 100 103.198 99.5786 103.902 98.8284C104.605 98.0783 105 97.0609 105 96H108.75C111.734 96 114.595 94.7357 116.705 92.4853C118.815 90.2349 120 87.1826 120 84.0001V68.0001C120 64.8175 118.815 61.7653 116.705 59.5148C114.595 57.2644 111.734 56.0001 108.75 56.0001H91.455L104.805 13.2643C104.983 12.7606 105.063 12.224 105.042 11.6864C105.02 11.1488 104.897 10.6214 104.68 10.1356C104.463 9.64991 104.157 9.21586 103.779 8.85947C103.401 8.50309 102.959 8.23171 102.481 8.06155C102.002 7.8914 101.496 7.82599 100.994 7.86922C100.491 7.91246 100.001 8.06345 99.5546 8.31317C99.1078 8.56289 98.7128 8.9062 98.3933 9.32255C98.0737 9.7389 97.8362 10.2197 97.695 10.7363L83.55 56.0001H36.45L22.305 10.7363ZM108.75 64.0001C109.745 64.0001 110.698 64.4215 111.402 65.1717C112.105 65.9218 112.5 66.9392 112.5 68.0001V84.0001C112.5 85.0609 112.105 86.0783 111.402 86.8285C110.698 87.5786 109.745 88 108.75 88H11.25C10.2554 88 9.30161 87.5786 8.59835 86.8285C7.89509 86.0783 7.5 85.0609 7.5 84.0001V68.0001C7.5 66.9392 7.89509 65.9218 8.59835 65.1717C9.30161 64.4215 10.2554 64.0001 11.25 64.0001H108.75Z" fill="black"/>
<path d="M63.75 36.0002C63.75 37.0611 63.3549 38.0785 62.6517 38.8286C61.9484 39.5788 60.9946 40.0002 60 40.0002C59.0054 40.0002 58.0516 39.5788 57.3484 38.8286C56.6451 38.0785 56.25 37.0611 56.25 36.0002C56.25 34.9393 56.6451 33.9219 57.3484 33.1718C58.0516 32.4216 59.0054 32.0002 60 32.0002C60.9946 32.0002 61.9484 32.4216 62.6517 33.1718C63.3549 33.9219 63.75 34.9393 63.75 36.0002Z" fill="black"/>
</svg>
