<svg width="68" height="59" viewBox="0 0 68 59" fill="none" xmlns="http://www.w3.org/2000/svg">
<path d="M1.75781 54V38H7.61719C8.7526 38 9.69271 38.1875 10.4375 38.5625C11.1823 38.9323 11.7396 39.4349 12.1094 40.0703C12.4792 40.7005 12.6641 41.4115 12.6641 42.2031C12.6641 42.8698 12.5417 43.4323 12.2969 43.8906C12.0521 44.3437 11.724 44.7083 11.3125 44.9844C10.9063 45.2552 10.4583 45.4531 9.96875 45.5781V45.7344C10.5 45.7604 11.0182 45.9323 11.5234 46.25C12.0339 46.5625 12.4557 47.0078 12.7891 47.5859C13.1224 48.1641 13.2891 48.8672 13.2891 49.6953C13.2891 50.513 13.0964 51.2474 12.7109 51.8984C12.3307 52.5443 11.7422 53.0573 10.9453 53.4375C10.1484 53.8125 9.13021 54 7.89063 54H1.75781ZM4.17188 51.9297H7.65625C8.8125 51.9297 9.64063 51.7057 10.1406 51.2578C10.6406 50.8099 10.8906 50.25 10.8906 49.5781C10.8906 49.0729 10.763 48.6094 10.5078 48.1875C10.2526 47.7656 9.88802 47.4297 9.41406 47.1797C8.94531 46.9297 8.38802 46.8047 7.74219 46.8047H4.17188V51.9297ZM4.17188 44.9219H7.40625C7.94792 44.9219 8.4349 44.8177 8.86719 44.6094C9.30469 44.401 9.65104 44.1094 9.90625 43.7344C10.1667 43.3542 10.2969 42.9062 10.2969 42.3906C10.2969 41.7292 10.0651 41.1745 9.60156 40.7266C9.13802 40.2786 8.42708 40.0547 7.46875 40.0547H4.17188V44.9219ZM15.9648 54V42H20.9414C22.2956 42 23.3685 42.2891 24.1602 42.8672C24.9518 43.4401 25.3477 44.2187 25.3477 45.2031C25.3477 45.9062 25.1237 46.4635 24.6758 46.875C24.2279 47.2865 23.6341 47.5625 22.8945 47.7031C23.431 47.7656 23.9232 47.9271 24.3711 48.1875C24.819 48.4427 25.1784 48.7865 25.4492 49.2187C25.7253 49.651 25.8633 50.1667 25.8633 50.7656C25.8633 51.401 25.6992 51.9635 25.3711 52.4531C25.043 52.9375 24.5664 53.3177 23.9414 53.5937C23.3216 53.8646 22.5742 54 21.6992 54H15.9648ZM18.1602 52.0469H21.6992C22.2773 52.0469 22.7305 51.9089 23.0586 51.6328C23.3867 51.3568 23.5508 50.9818 23.5508 50.5078C23.5508 49.9505 23.3867 49.513 23.0586 49.1953C22.7305 48.8724 22.2773 48.7109 21.6992 48.7109H18.1602V52.0469ZM18.1602 47H20.9648C21.4023 47 21.7773 46.9375 22.0898 46.8125C22.4076 46.6875 22.6497 46.5104 22.8164 46.2812C22.9883 46.0469 23.0742 45.7708 23.0742 45.4531C23.0742 44.9896 22.8841 44.6276 22.5039 44.3672C22.1237 44.1068 21.6029 43.9766 20.9414 43.9766H18.1602V47ZM33.4805 54.2422C32.3555 54.2422 31.3737 53.9844 30.5352 53.4687C29.6966 52.9531 29.0456 52.2318 28.582 51.3047C28.1185 50.3776 27.8867 49.2943 27.8867 48.0547C27.8867 46.8099 28.1185 45.7214 28.582 44.7891C29.0456 43.8568 29.6966 43.1328 30.5352 42.6172C31.3737 42.1016 32.3555 41.8438 33.4805 41.8438C34.6055 41.8438 35.5872 42.1016 36.4258 42.6172C37.2643 43.1328 37.9154 43.8568 38.3789 44.7891C38.8424 45.7214 39.0742 46.8099 39.0742 48.0547C39.0742 49.2943 38.8424 50.3776 38.3789 51.3047C37.9154 52.2318 37.2643 52.9531 36.4258 53.4687C35.5872 53.9844 34.6055 54.2422 33.4805 54.2422ZM33.4883 52.2812C34.2174 52.2812 34.8216 52.0885 35.3008 51.7031C35.7799 51.3177 36.1341 50.8047 36.3633 50.1641C36.5977 49.5234 36.7148 48.8177 36.7148 48.0469C36.7148 47.2812 36.5977 46.5781 36.3633 45.9375C36.1341 45.2917 35.7799 44.7734 35.3008 44.3828C34.8216 43.9922 34.2174 43.7969 33.4883 43.7969C32.7539 43.7969 32.1445 43.9922 31.6602 44.3828C31.181 44.7734 30.8242 45.2917 30.5898 45.9375C30.3607 46.5781 30.2461 47.2812 30.2461 48.0469C30.2461 48.8177 30.3607 49.5234 30.5898 50.1641C30.8242 50.8047 31.181 51.3177 31.6602 51.7031C32.1445 52.0885 32.7539 52.2812 33.4883 52.2812ZM40.5098 57.4609V51.9766H41.4863C41.7363 51.7474 41.9473 51.474 42.1191 51.1562C42.2962 50.8385 42.4447 50.4609 42.5645 50.0234C42.6895 49.5859 42.7936 49.0755 42.877 48.4922C42.9603 47.9036 43.0332 47.2318 43.0957 46.4766L43.4707 42H51.627V51.9766H53.4707V57.4609H51.1895V54H42.8223V57.4609H40.5098ZM43.9863 51.9766H49.3457V44H45.5645L45.3145 46.4766C45.1947 47.737 45.0436 48.8307 44.8613 49.7578C44.679 50.6797 44.3874 51.4193 43.9863 51.9766ZM55.7227 54V52.25L61.1367 46.6406C61.7148 46.0312 62.1914 45.4974 62.5664 45.0391C62.9466 44.5755 63.2305 44.1354 63.418 43.7187C63.6055 43.3021 63.6992 42.8594 63.6992 42.3906C63.6992 41.8594 63.5742 41.401 63.3242 41.0156C63.0742 40.625 62.7331 40.3255 62.3008 40.1172C61.8685 39.9036 61.3815 39.7969 60.8398 39.7969C60.2669 39.7969 59.7669 39.9141 59.3398 40.1484C58.9128 40.3828 58.5846 40.7135 58.3555 41.1406C58.1263 41.5677 58.0117 42.0677 58.0117 42.6406H55.707C55.707 41.6667 55.931 40.8151 56.3789 40.0859C56.8268 39.3568 57.4414 38.7917 58.2227 38.3906C59.0039 37.9844 59.8919 37.7812 60.8867 37.7812C61.8919 37.7812 62.7773 37.9818 63.543 38.3828C64.3138 38.7786 64.9154 39.3203 65.3477 40.0078C65.7799 40.6901 65.9961 41.4609 65.9961 42.3203C65.9961 42.9141 65.8841 43.4948 65.6602 44.0625C65.4414 44.6302 65.0586 45.263 64.5117 45.9609C63.9648 46.6536 63.2044 47.4948 62.2305 48.4844L59.0508 51.8125V51.9297H66.2539V54H55.7227Z" fill="#20B000"/>
<path d="M26.6181 5.52L23.7999 4.08L25.7948 0H39.2052L41.216 4.08L38.3977 5.504L37.2578 3.2H27.7581L26.6181 5.52ZM42.9576 9.6H35.8328L34.5662 4.8H30.4497L29.1989 9.6H22.0266L20 13.68L22.8341 15.104L23.9582 12.8H41.026L42.1659 15.12L45 13.696L42.9576 9.6ZM41.6434 32H38.3661L37.9861 30.56L32.5079 22.24L27.0139 30.56L26.6498 32H23.3724L27.9164 14.4H31.2255L30.6555 16.56L32.5079 19.36L34.3445 16.56L33.7904 14.4H37.0678L41.6434 32ZM31.5579 20.8L30.133 18.64L28.2647 25.808L31.5579 20.8ZM36.7511 25.792L34.8828 18.624L33.4579 20.8L36.7511 25.792Z" fill="#20B000"/>
</svg>
