<svg width="100" height="100" viewBox="0 0 100 100" fill="none" xmlns="http://www.w3.org/2000/svg">
<g clip-path="url(#clip0_12_12)">
<path d="M87.5 84.375V40.625C87.5 39.7962 87.1708 39.0013 86.5847 38.4153C85.9987 37.8292 85.2038 37.5 84.375 37.5H75V28.125C75 27.2962 74.6708 26.5013 74.0847 25.9153C73.4987 25.3292 72.7038 25 71.875 25H65.625V21.875C65.625 21.0462 65.2958 20.2513 64.7097 19.6653C64.1237 19.0792 63.3288 18.75 62.5 18.75H37.5C36.6712 18.75 35.8763 19.0792 35.2903 19.6653C34.7042 20.2513 34.375 21.0462 34.375 21.875V25H28.125C27.2962 25 26.5013 25.3292 25.9153 25.9153C25.3292 26.5013 25 27.2962 25 28.125V37.5H15.625C14.7962 37.5 14.0013 37.8292 13.4153 38.4153C12.8292 39.0013 12.5 39.7962 12.5 40.625V84.375C12.5 85.2038 12.8292 85.9987 13.4153 86.5847C14.0013 87.1708 14.7962 87.5 15.625 87.5H84.375C85.2038 87.5 85.9987 87.1708 86.5847 86.5847C87.1708 85.9987 87.5 85.2038 87.5 84.375ZM23.4375 68.75H26.5625C26.9769 68.75 27.3743 68.9146 27.6674 69.2076C27.9604 69.5007 28.125 69.8981 28.125 70.3125V79.6875C28.125 80.1019 27.9604 80.4993 27.6674 80.7924C27.3743 81.0854 26.9769 81.25 26.5625 81.25H23.4375C23.0231 81.25 22.6257 81.0854 22.3326 80.7924C22.0396 80.4993 21.875 80.1019 21.875 79.6875V70.3125C21.875 69.8981 22.0396 69.5007 22.3326 69.2076C22.6257 68.9146 23.0231 68.75 23.4375 68.75ZM35.9375 68.75H39.0625C39.4769 68.75 39.8743 68.9146 40.1674 69.2076C40.4604 69.5007 40.625 69.8981 40.625 70.3125V79.6875C40.625 80.1019 40.4604 80.4993 40.1674 80.7924C39.8743 81.0854 39.4769 81.25 39.0625 81.25H35.9375C35.5231 81.25 35.1257 81.0854 34.8326 80.7924C34.5396 80.4993 34.375 80.1019 34.375 79.6875V70.3125C34.375 69.8981 34.5396 69.5007 34.8326 69.2076C35.1257 68.9146 35.5231 68.75 35.9375 68.75ZM46.875 70.3125C46.875 69.8981 47.0396 69.5007 47.3326 69.2076C47.6257 68.9146 48.0231 68.75 48.4375 68.75H51.5625C51.9769 68.75 52.3743 68.9146 52.6674 69.2076C52.9604 69.5007 53.125 69.8981 53.125 70.3125V79.6875C53.125 80.1019 52.9604 80.4993 52.6674 80.7924C52.3743 81.0854 51.9769 81.25 51.5625 81.25H48.4375C48.0231 81.25 47.6257 81.0854 47.3326 80.7924C47.0396 80.4993 46.875 80.1019 46.875 79.6875V70.3125ZM60.9375 68.75H64.0625C64.4769 68.75 64.8743 68.9146 65.1674 69.2076C65.4604 69.5007 65.625 69.8981 65.625 70.3125V79.6875C65.625 80.1019 65.4604 80.4993 65.1674 80.7924C64.8743 81.0854 64.4769 81.25 64.0625 81.25H60.9375C60.5231 81.25 60.1257 81.0854 59.8326 80.7924C59.5396 80.4993 59.375 80.1019 59.375 79.6875V70.3125C59.375 69.8981 59.5396 69.5007 59.8326 69.2076C60.1257 68.9146 60.5231 68.75 60.9375 68.75ZM71.875 70.3125C71.875 69.8981 72.0396 69.5007 72.3326 69.2076C72.6257 68.9146 73.0231 68.75 73.4375 68.75H76.5625C76.9769 68.75 77.3743 68.9146 77.6674 69.2076C77.9604 69.5007 78.125 69.8981 78.125 70.3125V79.6875C78.125 80.1019 77.9604 80.4993 77.6674 80.7924C77.3743 81.0854 76.9769 81.25 76.5625 81.25H73.4375C73.0231 81.25 72.6257 81.0854 72.3326 80.7924C72.0396 80.4993 71.875 80.1019 71.875 79.6875V70.3125Z" fill="black"/>
<path d="M12.5 0C9.18479 0 6.00537 1.31696 3.66117 3.66117C1.31696 6.00537 0 9.18479 0 12.5L0 87.5C0 90.8152 1.31696 93.9946 3.66117 96.3388C6.00537 98.683 9.18479 100 12.5 100H87.5C90.8152 100 93.9946 98.683 96.3388 96.3388C98.683 93.9946 100 90.8152 100 87.5V12.5C100 9.18479 98.683 6.00537 96.3388 3.66117C93.9946 1.31696 90.8152 0 87.5 0L12.5 0ZM6.25 12.5C6.25 10.8424 6.90848 9.25268 8.08058 8.08058C9.25268 6.90848 10.8424 6.25 12.5 6.25H87.5C89.1576 6.25 90.7473 6.90848 91.9194 8.08058C93.0915 9.25268 93.75 10.8424 93.75 12.5V87.5C93.75 89.1576 93.0915 90.7473 91.9194 91.9194C90.7473 93.0915 89.1576 93.75 87.5 93.75H12.5C10.8424 93.75 9.25268 93.0915 8.08058 91.9194C6.90848 90.7473 6.25 89.1576 6.25 87.5V12.5Z" fill="black"/>
</g>
<defs>
<clipPath id="clip0_12_12">
<rect width="100" height="100" fill="white"/>
</clipPath>
</defs>
</svg>
