<?xml version="1.0" encoding="utf-8"?>
<!-- Generator: Adobe Illustrator 27.3.1, SVG Export Plug-In . SVG Version: 6.00 Build 0)  -->
<svg version="1.1" id="Слой_1" xmlns="http://www.w3.org/2000/svg" xmlns:xlink="http://www.w3.org/1999/xlink" x="0px" y="0px"
	 viewBox="0 0 500 500" style="enable-background:new 0 0 500 500;" xml:space="preserve">
<style type="text/css">
	.st0{fill:#676464;}
	.st1{fill-rule:evenodd;clip-rule:evenodd;fill:#FFFFFF;}
	.st2{fill:none;stroke:#F24E1E;stroke-width:8.7791;stroke-linecap:round;stroke-linejoin:round;}
	.st3{fill:#17181F;}
	.st4{fill-rule:evenodd;clip-rule:evenodd;fill:#17181F;}
	.st5{display:none;fill:#FFFFFF;stroke:#201600;stroke-miterlimit:10;}
</style>
<g>
	<path class="st0" d="M206.2,230.8c-1.5,1.6-2.3,3.6-2.4,5.7l0,0.1c-1.3,0.9-2.2,2.2-2.6,3.6c-0.4,1.4-0.3,2.9,0.4,4.3
		c0.6,1.4,1.8,2.5,3.2,3.2c1.4,0.7,3.1,1,4.8,0.9l0.4-0.1c0.4-0.1,0.7-0.3,0.9-0.6c0.2-0.3,0.3-0.7,0.2-1c-0.1-0.4-0.4-0.7-0.7-0.8
		c-0.4-0.2-0.8-0.2-1.2-0.1c-1,0.1-2.1-0.1-2.9-0.6c-0.9-0.5-1.5-1.2-1.9-2.1c-0.3-0.9-0.4-1.8,0-2.7c0.3-0.9,1-1.6,1.9-2.1
		c0.2-0.1,0.4-0.3,0.6-0.5s0.2-0.5,0.2-0.7c-0.1-1.6,0.4-3.2,1.5-4.5c1.1-1.3,2.7-2.2,4.4-2.5c1.8-0.4,3.6-0.1,5.2,0.6
		c1.6,0.7,2.8,2,3.5,3.5c0.2,0.3,0.4,0.6,0.8,0.7c0.4,0.1,0.8,0.1,1.2,0c0.8-0.3,1.6-0.3,2.3,0c0.7,0.3,1.3,0.8,1.6,1.5
		c0.2,0.5,0.3,1.1,0.2,1.6c-0.1,0.5-0.5,1-0.9,1.4c-0.2,0.1-0.3,0.2-0.5,0.4c-0.1,0.2-0.2,0.3-0.2,0.5c0,0.2,0,0.4,0,0.6
		c0.1,0.2,0.2,0.4,0.3,0.5c0.1,0.1,0.3,0.3,0.5,0.3c0.2,0.1,0.4,0.1,0.6,0.1c0.2,0,0.4,0,0.6-0.1c0.2-0.1,0.4-0.2,0.5-0.4
		c1-0.8,1.7-1.8,1.9-3c0.3-1.1,0.1-2.3-0.4-3.4c-0.6-1.1-1.5-1.9-2.6-2.5c-1.2-0.6-2.5-0.8-3.8-0.6c-1.1-1.8-2.9-3.2-5.1-4.1
		c-2.1-0.8-4.5-1-6.8-0.5C209.6,228,207.6,229.2,206.2,230.8z"/>
	<path class="st0" d="M303.8,230.8c1.5,1.6,2.3,3.6,2.4,5.7l0,0.1c1.3,0.9,2.2,2.2,2.6,3.6c0.4,1.4,0.3,2.9-0.4,4.3
		c-0.6,1.4-1.8,2.5-3.2,3.2c-1.4,0.7-3.1,1-4.8,0.9l-0.4-0.1c-0.4-0.1-0.7-0.3-0.9-0.6c-0.2-0.3-0.3-0.7-0.2-1
		c0.1-0.4,0.4-0.7,0.7-0.8c0.4-0.2,0.8-0.2,1.2-0.1c1,0.1,2.1-0.1,2.9-0.6c0.9-0.5,1.5-1.2,1.9-2.1c0.3-0.9,0.4-1.8,0-2.7
		c-0.3-0.9-1-1.6-1.9-2.1c-0.2-0.1-0.4-0.3-0.6-0.5s-0.2-0.5-0.2-0.7c0.1-1.6-0.4-3.2-1.5-4.5c-1.1-1.3-2.7-2.2-4.4-2.5
		c-1.8-0.4-3.6-0.1-5.2,0.6c-1.6,0.7-2.8,2-3.5,3.5c-0.2,0.3-0.4,0.6-0.8,0.7c-0.4,0.1-0.8,0.1-1.2,0c-0.8-0.3-1.6-0.3-2.3,0
		c-0.7,0.3-1.3,0.8-1.6,1.5c-0.2,0.5-0.3,1.1-0.2,1.6c0.1,0.5,0.5,1,0.9,1.4c0.2,0.1,0.3,0.2,0.5,0.4s0.2,0.3,0.2,0.5
		c0,0.2,0,0.4,0,0.6c-0.1,0.2-0.2,0.4-0.3,0.5c-0.1,0.1-0.3,0.3-0.5,0.3c-0.2,0.1-0.4,0.1-0.6,0.1c-0.2,0-0.4,0-0.6-0.1
		c-0.2-0.1-0.4-0.2-0.5-0.4c-1-0.8-1.7-1.8-1.9-3c-0.3-1.1-0.1-2.3,0.4-3.4c0.6-1.1,1.5-1.9,2.6-2.5c1.2-0.6,2.5-0.8,3.8-0.6
		c1.1-1.8,2.9-3.2,5.1-4.1c2.1-0.8,4.5-1,6.8-0.5C300.3,228,302.3,229.2,303.8,230.8z"/>
	<path class="st1" d="M170.2,164.1c-2.5,0-4.5,1.9-4.5,4.3V251c0,2.4,2,4.3,4.5,4.3h72.1c2.5,0,4.5,1.9,4.5,4.3v23.8
		c0,2.4-2,4.3-4.5,4.3h-44.7c-2.5,0-4.5,1.9-4.5,4.3v0.7c0,2.4,2,4.3,4.5,4.3H308c2.5,0,4.5-1.9,4.5-4.3v-0.7c0-2.4-2-4.3-4.5-4.3
		h-44.7c-2.5,0-4.5-1.9-4.5-4.3v-23.8c0-2.4,2-4.3,4.5-4.3h73.3c2.5,0,4.5-1.9,4.5-4.3v-82.7c0-2.4-2-4.3-4.5-4.3H170.2z
		 M332.3,176.9c0-2.4-2-4.3-4.5-4.3H179c-2.5,0-4.5,1.9-4.5,4.3v65.6c0,2.4,2,4.3,4.5,4.3h148.8c2.5,0,4.5-1.9,4.5-4.3V176.9z
		 M251.2,256.8c0-0.8,0.7-1.5,1.6-1.5l0,0c0.9,0,1.6,0.7,1.6,1.5v29.4c0,0.8-0.7,1.5-1.6,1.5l0,0c-0.9,0-1.6-0.7-1.6-1.5V256.8z"/>
	<path class="st2" d="M244.4,225.5c0-2.2,0.8-4.4,2.2-6.1l16.6,0c1.4,1.8,2.2,3.9,2.2,6.1c0,5.5-10.5,16.1-10.5,16.1
		S244.4,231,244.4,225.5z"/>
	<path class="st2" d="M255,117.3c0.2,0,0.4,0.1,0.5,0.2c11.6,6.9,24.1,33.5,24,54.9c0,3.8-0.3,7.6-1,11.3c3.7,3,6.9,6.5,8.6,10.5
		c4.7,11.4-2.5,22.8-5.9,27.3c-0.2,0.2-0.4,0.5-0.7,0.6c-0.3,0.1-0.6,0.2-0.9,0.2c-0.3,0-0.6-0.1-0.9-0.2c-0.3-0.1-0.6-0.3-0.8-0.6
		L266,207.5c-1,0.9-2.1,1.8-3.2,2.7c-0.8,0.6-1.7,0.9-2.7,0.9h-10.3c-1,0-1.9-0.3-2.7-0.9c-1.1-0.8-2.2-1.7-3.2-2.7l-11.9,14.1
		c-0.2,0.2-0.5,0.4-0.8,0.6c-0.3,0.1-0.6,0.2-0.9,0.2c-0.3,0-0.6-0.1-0.9-0.2c-0.3-0.1-0.5-0.3-0.7-0.6c-3.4-4.5-10.6-15.9-5.9-27.3
		c1.7-4,4.9-7.6,8.6-10.6c-0.7-3.7-1-7.5-1-11.3c0-21.3,12.9-48.4,24.1-54.9C254.6,117.4,254.8,117.3,255,117.3z M249.4,166.5
		c1.6,1,3.6,1.6,5.5,1.6c1.3,0,2.6-0.2,3.8-0.7c1.2-0.5,2.3-1.2,3.2-2c0.9-0.9,1.7-1.9,2.2-3.1c0.5-1.1,0.8-2.4,0.8-3.6
		c0-1.9-0.6-3.7-1.7-5.3c-1.1-1.6-2.6-2.8-4.5-3.5c-1.8-0.7-3.8-0.9-5.8-0.5c-1.9,0.4-3.7,1.3-5.1,2.6c-1.4,1.3-2.3,3-2.7,4.8
		c-0.4,1.8-0.2,3.7,0.6,5.5C246.5,164,247.8,165.5,249.4,166.5z"/>
	<path class="st3" d="M244.4,225.5c0-2.2,0.8-4.4,2.2-6.1l16.6,0c1.4,1.8,2.2,3.9,2.2,6.1c0,5.5-10.5,16.1-10.5,16.1
		S244.4,231,244.4,225.5z"/>
	<path class="st4" d="M255,117.3c0.2,0,0.4,0.1,0.5,0.2c11.6,6.9,24.1,33.5,24,54.9c0,3.8-0.3,7.6-1,11.3c3.7,3,6.9,6.5,8.6,10.5
		c4.7,11.4-2.5,22.8-5.9,27.3c-0.2,0.2-0.4,0.5-0.7,0.6c-0.3,0.1-0.6,0.2-0.9,0.2c-0.3,0-0.6-0.1-0.9-0.2c-0.3-0.1-0.6-0.3-0.8-0.6
		L266,207.5c-1,0.9-2.1,1.8-3.2,2.7c-0.8,0.6-1.7,0.9-2.7,0.9h-10.3c-1,0-1.9-0.3-2.7-0.9c-1.1-0.8-2.2-1.7-3.2-2.7l-11.9,14.1
		c-0.2,0.2-0.5,0.4-0.8,0.6c-0.3,0.1-0.6,0.2-0.9,0.2c-0.3,0-0.6-0.1-0.9-0.2c-0.3-0.1-0.5-0.3-0.7-0.6c-3.4-4.5-10.6-15.9-5.9-27.3
		c1.7-4,4.9-7.6,8.6-10.6c-0.7-3.7-1-7.5-1-11.3c0-21.3,12.9-48.4,24.1-54.9C254.6,117.4,254.8,117.3,255,117.3z M249.4,166.5
		c1.6,1,3.6,1.6,5.5,1.6c1.3,0,2.6-0.2,3.8-0.7c1.2-0.5,2.3-1.2,3.2-2c0.9-0.9,1.7-1.9,2.2-3.1c0.5-1.1,0.8-2.4,0.8-3.6
		c0-1.9-0.6-3.7-1.7-5.3c-1.1-1.6-2.6-2.8-4.5-3.5c-1.8-0.7-3.8-0.9-5.8-0.5c-1.9,0.4-3.7,1.3-5.1,2.6c-1.4,1.3-2.3,3-2.7,4.8
		c-0.4,1.8-0.2,3.7,0.6,5.5C246.5,164,247.8,165.5,249.4,166.5z"/>
</g>
<path class="st5" d="M-306.6,174.7"/>
</svg>
