<svg width="19" height="23" viewBox="0 0 19 23" fill="none" xmlns="http://www.w3.org/2000/svg">
<path d="M10.3728 4.5872L2.27121 21.1508C2.02854 21.6469 1.42964 21.8523 0.933526 21.6097C0.515976 21.4054 0.304308 20.9489 0.392408 20.5136C0.379567 20.4496 0.37283 20.3835 0.37283 20.3157V1.2248C0.37283 0.672515 0.820545 0.2248 1.37283 0.2248C1.92511 0.2248 2.37283 0.672515 2.37283 1.2248V16.3911L10.006 0.785394C10.2159 0.356142 10.6926 0.144474 11.1386 0.252391C11.2137 0.234354 11.2922 0.2248 11.3728 0.2248C11.9251 0.2248 12.3728 0.672515 12.3728 1.2248V20.2248H17.3728C17.9251 20.2248 18.3728 20.6725 18.3728 21.2248C18.3728 21.7771 17.9251 22.2248 17.3728 22.2248H5.37283C4.82054 22.2248 4.37283 21.7771 4.37283 21.2248C4.37283 20.6725 4.82054 20.2248 5.37283 20.2248H10.3728V4.5872Z" fill="#F24E1E"/>
</svg>
