<svg width="65" height="63" viewBox="0 0 65 63" fill="none" xmlns="http://www.w3.org/2000/svg">
<path d="M60 10.4818H47.5V7.86132C47.5 5.77637 46.7098 3.77681 45.3033 2.30253C43.8968 0.828244 41.9891 0 40 0H25C23.0109 0 21.1032 0.828244 19.6967 2.30253C18.2902 3.77681 17.5 5.77637 17.5 7.86132V10.4818H5C3.67392 10.4818 2.40215 11.0339 1.46447 12.0168C0.526784 12.9996 0 14.3327 0 15.7226V57.6497C0 59.0396 0.526784 60.3727 1.46447 61.3555C2.40215 62.3384 3.67392 62.8905 5 62.8905H60C61.3261 62.8905 62.5979 62.3384 63.5355 61.3555C64.4732 60.3727 65 59.0396 65 57.6497V15.7226C65 14.3327 64.4732 12.9996 63.5355 12.0168C62.5979 11.0339 61.3261 10.4818 60 10.4818ZM22.5 7.86132C22.5 7.16633 22.7634 6.49981 23.2322 6.00839C23.7011 5.51696 24.337 5.24088 25 5.24088H40C40.663 5.24088 41.2989 5.51696 41.7678 6.00839C42.2366 6.49981 42.5 7.16633 42.5 7.86132V10.4818H22.5V7.86132ZM60 15.7226V29.3522C51.5618 34.1665 42.1073 36.6879 32.5 36.6861C22.8931 36.688 13.4388 34.1677 5 29.3555V15.7226H60ZM60 57.6497H5V35.258C13.5623 39.6479 22.9683 41.929 32.5 41.927C42.0318 41.9272 51.4378 39.6451 60 35.2547V57.6497ZM25 28.8248C25 28.1298 25.2634 27.4633 25.7322 26.9719C26.2011 26.4805 26.837 26.2044 27.5 26.2044H37.5C38.163 26.2044 38.7989 26.4805 39.2678 26.9719C39.7366 27.4633 40 28.1298 40 28.8248C40 29.5198 39.7366 30.1863 39.2678 30.6778C38.7989 31.1692 38.163 31.4453 37.5 31.4453H27.5C26.837 31.4453 26.2011 31.1692 25.7322 30.6778C25.2634 30.1863 25 29.5198 25 28.8248Z" fill="#CCCCCC"/>
</svg>
