<svg width="65" height="57" viewBox="0 0 65 57" fill="none" xmlns="http://www.w3.org/2000/svg">
<path fill-rule="evenodd" clip-rule="evenodd" d="M27.8571 6.83692H60.3571C61.5881 6.83812 62.7683 7.31872 63.6388 8.17324C64.5092 9.02776 64.9988 10.1864 65 11.3949V52.4164C64.9988 53.6248 64.5092 54.7835 63.6388 55.638C62.7683 56.4925 61.5881 56.9731 60.3571 56.9743H4.64286C3.41187 56.9731 2.23166 56.4925 1.36122 55.638C0.490781 54.7835 0.00122914 53.6248 0 52.4164V11.3949C0.00122914 10.1864 0.490781 9.02776 1.36122 8.17324C2.23166 7.31872 3.41187 6.83812 4.64286 6.83692H9.28571V4.55794C9.28694 3.34947 9.77649 2.19084 10.6469 1.33632C11.5174 0.481805 12.6976 0.00120666 13.9286 0H23.2143C24.4453 0.00120666 25.6255 0.481805 26.4959 1.33632C27.3664 2.19084 27.8559 3.34947 27.8571 4.55794V6.83692ZM23.2143 4.55794H13.9286V43.3005H23.2143V4.55794ZM4.64286 11.3949V52.4164H60.3571V11.3949H27.8571V43.3005C27.8559 44.5089 27.3664 45.6676 26.4959 46.5221C25.6255 47.3766 24.4453 47.8572 23.2143 47.8584H13.9286C12.6976 47.8572 11.5174 47.3766 10.6469 46.5221C9.77649 45.6676 9.28694 44.5089 9.28571 43.3005V11.3949H4.64286ZM37.1429 22.7897H32.5V27.3477H37.1429V22.7897ZM46.4286 22.7897H41.7857V27.3477H46.4286V22.7897ZM55.7143 22.7897H51.0714V27.3477H55.7143V22.7897ZM37.1429 31.9056H32.5V36.4636H37.1429V31.9056ZM46.4286 31.9056H41.7857V36.4636H46.4286V31.9056ZM55.7143 31.9056H51.0714V36.4636H55.7143V31.9056ZM37.1429 41.0215H32.5V45.5794H37.1429V41.0215ZM46.4286 41.0215H41.7857V45.5794H46.4286V41.0215ZM55.7143 41.0215H51.0714V45.5794H55.7143V41.0215ZM55.7143 13.6738H32.5V18.2318H55.7143V13.6738Z" fill="#CCCCCC"/>
</svg>
