<svg width="310" height="48" viewBox="0 0 310 48" fill="none" xmlns="http://www.w3.org/2000/svg">
<path d="M44.1155 35.4617C44.1145 35.4638 44.1134 35.466 44.1123 35.4682H44.1199L44.1155 35.4617Z" fill="white"/>
<path d="M70.9282 28.8699C70.9282 26.7477 71.7906 24.9905 73.5175 23.5961C75.2434 22.2029 77.7061 21.5052 80.9058 21.5052H87.7957V20.5544C87.7957 19.0021 87.3443 17.7825 86.4417 16.8955C85.539 16.0085 84.2477 15.565 82.5689 15.565C80.7311 15.565 79.2584 16.1194 78.1496 17.2281C77.6748 17.7355 77.3253 18.2898 77.1047 18.8913H71.8779C72.1938 17.4342 72.812 16.1351 73.7314 14.995C75.8537 12.3654 78.7992 11.0505 82.5689 11.0505C85.7361 11.0505 88.2302 11.914 90.0524 13.6398C91.8734 15.3668 92.7839 17.6716 92.7839 20.5532V35.7587H87.7945V32.4325H87.5571C87.0498 33.1302 86.417 33.763 85.6566 34.333C83.8815 35.6008 81.823 36.2336 79.479 36.2336C76.7866 36.2336 74.6879 35.5605 73.1827 34.2143C71.6797 32.8693 70.9282 31.0874 70.9282 28.8699ZM76.155 28.6325C76.155 30.6921 77.6591 31.7213 80.6684 31.7213C82.9172 31.7213 84.6677 31.1748 85.9186 30.0817C87.1696 28.9886 87.7957 27.4767 87.7957 25.5437H80.4309C77.5807 25.5437 76.155 26.5741 76.155 28.6325Z" fill="white"/>
<path d="M94.7942 11.5266H100.021L105.248 31.2454H108.337L113.563 11.5266H118.79L112.138 35.7599H101.447L94.7942 11.5266Z" fill="white"/>
<path d="M119.735 28.8699C119.735 26.7477 120.597 24.9905 122.324 23.5961C124.05 22.2029 126.513 21.5052 129.713 21.5052H136.603V20.5544C136.603 19.0021 136.151 17.7825 135.249 16.8955C134.346 16.0085 133.055 15.565 131.376 15.565C129.538 15.565 128.065 16.1194 126.956 17.2281C126.482 17.7355 126.132 18.2898 125.912 18.8913H120.685C121.001 17.4342 121.619 16.1351 122.538 14.995C124.661 12.3654 127.606 11.0505 131.376 11.0505C134.543 11.0505 137.037 11.914 138.859 13.6398C140.68 15.3668 141.591 17.6716 141.591 20.5532V35.7587H136.601V32.4325H136.364C135.857 33.1302 135.224 33.763 134.463 34.333C132.688 35.6008 130.63 36.2336 128.286 36.2336C125.594 36.2336 123.495 35.5605 121.99 34.2143C120.487 32.8693 119.735 31.0874 119.735 28.8699ZM124.962 28.6325C124.962 30.6921 126.466 31.7213 129.475 31.7213C131.724 31.7213 133.475 31.1748 134.726 30.0817C135.977 28.9886 136.603 27.4767 136.603 25.5437H129.238C126.388 25.5437 124.962 26.5741 124.962 28.6325Z" fill="white"/>
<path d="M146.514 35.7599V11.5266H151.504V14.8528H151.741C152.121 14.2201 152.706 13.5862 153.499 12.9523C155.209 11.6856 157.158 11.0518 159.344 11.0518C162.354 11.0518 164.69 11.9231 166.353 13.6657C168.016 15.4083 168.847 17.9416 168.847 21.2679V35.7599H163.858V21.7427C163.858 19.6216 163.389 18.0604 162.457 17.0625C161.521 16.0646 160.088 15.5662 158.156 15.5662C156.224 15.5662 154.632 16.2236 153.381 17.5385C152.128 18.8533 151.504 20.5724 151.504 22.6936V35.7599H146.514Z" fill="white"/>
<path d="M171.284 16.0412V11.5278H174.135V6.30103H179.125V11.5278H186.489V16.0412H179.125V31.2466H186.727V35.76H174.135V16.0412H171.284Z" fill="white"/>
<path d="M191.208 32.7428C189.037 30.4144 187.953 27.3816 187.953 23.6433C187.953 19.906 189.038 16.8721 191.208 14.5437C193.377 12.2154 196.094 11.0518 199.356 11.0518C201.415 11.0518 203.301 11.6543 205.011 12.8571C205.771 13.3958 206.42 13.9972 206.959 14.6624H207.196V11.5266H212.185V44.7878H191.516V40.2733H207.196V32.6711H206.959C206.42 33.3364 205.77 33.9389 205.011 34.4765C203.331 35.649 201.447 36.2348 199.356 36.2348C196.093 36.2348 193.377 35.0712 191.208 32.7428ZM195.079 17.6561C193.812 19.0504 193.179 21.0461 193.179 23.6433C193.179 26.2404 193.812 28.2361 195.079 29.6305C196.346 31.0248 198.089 31.7214 200.306 31.7214C202.397 31.7214 204.067 31.017 205.319 29.607C206.57 28.1981 207.196 26.2091 207.196 23.6433C207.196 21.0775 206.57 19.0896 205.319 17.6796C204.067 16.2707 202.397 15.5651 200.306 15.5651C198.089 15.5662 196.346 16.2628 195.079 17.6561Z" fill="white"/>
<path d="M216.998 26.0187V11.5266H221.987V25.5438C221.987 27.6661 222.454 29.2262 223.389 30.224C224.323 31.2219 225.757 31.7203 227.69 31.7203C229.622 31.7203 231.213 31.0629 232.465 29.7481C233.716 28.4333 234.342 26.7153 234.342 24.593V11.5266H239.332V35.7599H234.342V32.4337H234.105C233.725 33.0676 233.138 33.7015 232.347 34.3342C230.636 35.602 228.688 36.2348 226.503 36.2348C223.493 36.2348 221.157 35.3635 219.494 33.6208C217.83 31.8793 216.998 29.3449 216.998 26.0187Z" fill="white"/>
<path d="M243.269 28.8699C243.269 26.7477 244.132 24.9905 245.859 23.5961C247.584 22.2029 250.047 21.5052 253.247 21.5052H260.137V20.5544C260.137 19.0021 259.685 17.7825 258.783 16.8955C257.88 16.0085 256.589 15.565 254.91 15.565C253.072 15.565 251.599 16.1194 250.491 17.2281C250.016 17.7355 249.666 18.2898 249.446 18.8913H244.219C244.535 17.4342 245.153 16.1351 246.073 14.995C248.195 12.3654 251.14 11.0505 254.91 11.0505C258.077 11.0505 260.571 11.914 262.393 13.6398C264.214 15.3668 265.125 17.6716 265.125 20.5532V35.7587H260.136V32.4325H259.898C259.391 33.1302 258.758 33.763 257.998 34.333C256.223 35.6008 254.164 36.2336 251.82 36.2336C249.128 36.2336 247.029 35.5605 245.524 34.2143C244.022 32.8693 243.269 31.0874 243.269 28.8699ZM248.496 28.6325C248.496 30.6921 250 31.7213 253.009 31.7213C255.258 31.7213 257.009 31.1748 258.26 30.0817C259.511 28.9886 260.137 27.4767 260.137 25.5437H252.772C249.922 25.5437 248.496 26.5741 248.496 28.6325Z" fill="white"/>
<path d="M270.048 35.76V11.5267H275.037V15.0904H275.275C275.623 14.4251 276.131 13.7924 276.796 13.1898C278.253 11.9232 279.963 11.2893 281.927 11.2893H284.779V16.0412H281.69C279.758 16.0412 278.165 16.6516 276.914 17.8701C275.662 19.0897 275.037 20.6979 275.037 22.6926V35.7589H270.048V35.76Z" fill="white"/>
<path d="M289.021 32.7426C286.851 30.4142 285.767 27.3814 285.767 23.643C285.767 19.9058 286.852 16.8719 289.021 14.5435C291.19 12.2151 293.907 11.0515 297.17 11.0515C299.228 11.0515 301.114 11.6541 302.824 12.8569C303.552 13.3642 304.202 13.9499 304.772 14.6152H305.009V2.49854H310V35.7597H305.011V32.6709H304.773C304.234 33.3361 303.585 33.9387 302.826 34.4762C301.146 35.6488 299.262 36.2346 297.171 36.2346C293.907 36.2346 291.19 35.0709 289.021 32.7426ZM292.894 17.6558C291.626 19.0502 290.993 21.0459 290.993 23.643C290.993 26.2402 291.626 28.2359 292.894 29.6302C294.161 31.0246 295.903 31.7212 298.121 31.7212C300.212 31.7212 301.881 31.0167 303.134 29.6067C304.384 28.1978 305.011 26.2088 305.011 23.643C305.011 21.0772 304.384 19.0894 303.134 17.6793C301.881 16.2705 300.212 15.5649 298.121 15.5649C295.903 15.566 294.161 16.2626 292.894 17.6558Z" fill="white"/>
<path d="M23.6431 0C10.5857 0 0 10.5857 0 23.6431C0 27.9493 1.1569 31.9833 3.16944 35.4618C3.17056 35.4641 3.17168 35.4663 3.1728 35.4686C7.2617 42.5309 14.8941 47.2862 23.642 47.2862C36.6994 47.2862 47.2851 36.7005 47.2851 23.6431C47.2851 10.5857 36.7005 0 23.6431 0ZM39.9517 35.4618H7.3345L5.25029 31.8523L21.56 3.60733H25.7262L42.0359 31.8512L39.9517 35.4618Z" fill="white"/>
<path d="M50.5152 0C48.7188 0 47.2864 1.39545 47.2864 3.1336C47.2864 4.91094 48.7199 6.30527 50.5152 6.30527C52.3306 6.30527 53.726 4.91094 53.726 3.1336C53.7249 1.39545 52.3306 0 50.5152 0ZM50.5342 5.63778C49.1197 5.63778 48.0883 4.52905 48.0883 3.13472C48.0883 1.75831 49.1197 0.631649 50.5152 0.631649C51.9106 0.631649 52.923 1.75943 52.923 3.15375C52.923 4.52904 51.9095 5.63778 50.5342 5.63778Z" fill="white"/>
<path d="M51.2409 3.23V3.19193C51.624 3.07657 51.8916 2.80891 51.8916 2.46508C51.8916 2.15934 51.7572 1.91071 51.5859 1.77744C51.3563 1.64417 51.0886 1.54785 50.4962 1.54785C49.9799 1.54785 49.5789 1.58593 49.2922 1.64304V4.77664H50.018V3.51559H50.3629C50.7638 3.51559 50.9553 3.66902 51.0125 4.01284C51.1077 4.3757 51.1648 4.66241 51.2611 4.77664H52.0451C51.9689 4.66241 51.9118 4.4709 51.8155 3.99268C51.7191 3.57382 51.5467 3.34423 51.2409 3.23ZM50.3808 3.00041H50.037V2.10222C50.1132 2.08318 50.2475 2.06302 50.4379 2.06302C50.896 2.06302 51.1065 2.25453 51.1065 2.54124C51.1077 2.86602 50.7829 3.00041 50.3808 3.00041Z" fill="white"/>
</svg>
