<svg width="24" height="24" viewBox="0 0 24 24" fill="none" xmlns="http://www.w3.org/2000/svg">
<path d="M11.9999 12V12.01M14.8279 9.172C15.5778 9.92211 15.9991 10.9393 15.9991 12C15.9991 13.0607 15.5778 14.0779 14.8279 14.828M17.6569 6.343C18.3999 7.08588 18.9892 7.96781 19.3912 8.93844C19.7933 9.90907 20.0002 10.9494 20.0002 12C20.0002 13.0506 19.7933 14.0909 19.3912 15.0616C18.9892 16.0322 18.3999 16.9141 17.6569 17.657M9.16794 14.828C8.41806 14.0779 7.9968 13.0607 7.9968 12C7.9968 10.9393 8.41806 9.92211 9.16794 9.172M6.33694 17.657C5.59403 16.9141 5.00472 16.0322 4.60266 15.0616C4.20059 14.0909 3.99365 13.0506 3.99365 12C3.99365 10.9494 4.20059 9.90907 4.60266 8.93844C5.00472 7.96781 5.59403 7.08588 6.33694 6.343" stroke="white" stroke-width="2" stroke-linecap="round" stroke-linejoin="round"/>
</svg>
