<svg width="15" height="14" viewBox="0 0 15 14" fill="none" xmlns="http://www.w3.org/2000/svg">
<path d="M7.293 7.006L6.413 7.886C6.27936 7.34722 5.96911 6.86872 5.53174 6.52688C5.09437 6.18503 4.55511 5.99954 4 6C3.44507 6.00024 2.90615 6.18599 2.46892 6.52773C2.0317 6.86946 1.72127 7.34756 1.587 7.886L0.707 7.006L0 7.712L1.147 8.858L1 9.004V10.004H0V11.003H1V11.056C1.051 11.382 1.143 11.699 1.273 12.002L0 13.294L0.707 14L1.807 12.901C2.06876 13.2347 2.40115 13.5063 2.78031 13.6963C3.15948 13.8863 3.57601 13.99 4 14C4.42397 13.9899 4.84045 13.8861 5.21959 13.6961C5.59873 13.5061 5.93114 13.2346 6.193 12.901L7.293 14L8 13.294L6.727 12.002C6.85902 11.693 6.95078 11.3684 7 11.036V10.969H8V10.004H7V9.004L6.853 8.858L8 7.712L7.293 7.006ZM4 7.006C4.39765 7.006 4.77903 7.1639 5.06031 7.44499C5.34158 7.72608 5.49973 8.10735 5.5 8.505H2.5C2.49987 8.30803 2.53858 8.11296 2.61393 7.93097C2.68928 7.74898 2.79978 7.58363 2.93911 7.4444C3.07843 7.30517 3.24385 7.19478 3.42589 7.11955C3.60794 7.04432 3.80303 7.00574 4 7.006ZM6 11.003C5.95106 11.5166 5.72455 11.997 5.35948 12.3615C4.99441 12.726 4.51364 12.9518 4 13C3.48641 12.9512 3.00584 12.7251 2.64086 12.3605C2.27588 11.9959 2.04928 11.5155 2 11.002V9.503H6V11.002V11.003Z" fill="white"/>
<path fill-rule="evenodd" clip-rule="evenodd" d="M5 0.41L5.78 0L14.78 6V6.83L9 10.683V9.483L13.6 6.42L6 1.35V5H5V0.41Z" fill="white"/>
</svg>
