<svg width="25" height="32" viewBox="0 0 25 32" fill="none" xmlns="http://www.w3.org/2000/svg">
<g clip-path="url(#clip0_7_6)">
<path d="M6.61811 5.52L3.79987 4.08L5.79481 0H19.2052L21.216 4.08L18.3977 5.504L17.2578 3.2H7.75807L6.61811 5.52ZM22.9576 9.6H15.8328L14.5662 4.8H10.4497L9.19886 9.6H2.0266L0 13.68L2.83407 15.104L3.9582 12.8H21.026L22.1659 15.12L25 13.696L22.9576 9.6ZM21.6434 32H18.3661L17.9861 30.56L12.5079 22.24L7.01393 30.56L6.64978 32H3.37239L7.9164 14.4H11.2255L10.6555 16.56L12.5079 19.36L14.3445 16.56L13.7904 14.4H17.0678L21.6434 32ZM11.5579 20.8L10.133 18.64L8.26472 25.808L11.5579 20.8ZM16.7511 25.792L14.8828 18.624L13.4579 20.8L16.7511 25.792Z" fill="#FAFF00"/>
</g>
<defs>
<clipPath id="clip0_7_6">
<rect width="25" height="32" fill="white"/>
</clipPath>
</defs>
</svg>
