<svg width="24" height="24" viewBox="0 0 24 24" fill="none" xmlns="http://www.w3.org/2000/svg">
<path d="M12 1.998C17.524 1.998 22.002 6.476 22.002 12C22.002 17.523 17.524 22 12 22C6.476 22.001 2 17.523 2 12C1.999 6.476 6.476 1.998 12 1.998ZM12 3.498C10.8758 3.48581 9.76036 3.6967 8.71822 4.11847C7.67608 4.54024 6.72793 5.16452 5.92866 5.95517C5.12939 6.74582 4.49487 7.68713 4.06182 8.72464C3.62877 9.76215 3.4058 10.8752 3.4058 11.9995C3.4058 13.1238 3.62877 14.2369 4.06182 15.2744C4.49487 16.3119 5.12939 17.2532 5.92866 18.0438C6.72793 18.8345 7.67608 19.4588 8.71822 19.8805C9.76036 20.3023 10.8758 20.5132 12 20.501C14.2388 20.4767 16.3776 19.5703 17.9521 17.9786C19.5267 16.3869 20.4098 14.2384 20.4098 11.9995C20.4098 9.7606 19.5267 7.61207 17.9521 6.02037C16.3776 4.42866 14.2388 3.52228 12 3.498ZM11.996 10.498C12.1774 10.4978 12.3528 10.5633 12.4896 10.6824C12.6264 10.8016 12.7153 10.9663 12.74 11.146L12.747 11.248L12.751 16.75C12.7529 16.9414 12.6817 17.1263 12.5517 17.2668C12.4218 17.4073 12.2431 17.4928 12.0521 17.5059C11.8612 17.5189 11.6725 17.4585 11.5247 17.3369C11.3768 17.2153 11.2811 17.0419 11.257 16.852L11.251 16.751L11.247 11.249C11.247 11.0501 11.326 10.8593 11.4667 10.7187C11.6073 10.578 11.7981 10.499 11.997 10.499L11.996 10.498ZM12.001 7.001C12.1348 6.99677 12.2681 7.01946 12.3929 7.06773C12.5177 7.11601 12.6316 7.18888 12.7277 7.28201C12.8239 7.37515 12.9003 7.48666 12.9525 7.60991C13.0047 7.73316 13.0316 7.86565 13.0316 7.9995C13.0316 8.13335 13.0047 8.26584 12.9525 8.38909C12.9003 8.51234 12.8239 8.62385 12.7277 8.71699C12.6316 8.81012 12.5177 8.88299 12.3929 8.93127C12.2681 8.97954 12.1348 9.00224 12.001 8.998C11.7417 8.98979 11.4957 8.881 11.3151 8.69464C11.1346 8.50828 11.0336 8.25898 11.0336 7.9995C11.0336 7.74002 11.1346 7.49072 11.3151 7.30436C11.4957 7.11801 11.7417 7.00921 12.001 7.001Z" fill="white"/>
</svg>
