<?xml version="1.0" encoding="utf-8"?>
<!-- Generator: Adobe Illustrator 24.0.3, SVG Export Plug-In . SVG Version: 6.00 Build 0)  -->
<svg version="1.1" id="Слой_1" xmlns="http://www.w3.org/2000/svg" xmlns:xlink="http://www.w3.org/1999/xlink" x="0px" y="0px"
	 viewBox="0 0 3000 2000" style="enable-background:new 0 0 3000 2000;" xml:space="preserve">
<g>
	<path d="M509.91,1105.53c-0.01,0.02-0.02,0.04-0.03,0.06h0.07L509.91,1105.53z"/>
	<line x1="509.95" y1="1105.59" x2="506.1" y2="1103.33"/>
	<g>
		<path d="M749.32,1046.67c0-18.95,7.7-34.64,23.12-47.09c15.41-12.44,37.4-18.67,65.97-18.67h61.52v-8.49
			c0-13.86-4.03-24.75-12.09-32.67c-8.06-7.92-19.59-11.88-34.58-11.88c-16.41,0-29.56,4.95-39.46,14.85
			c-4.24,4.53-7.36,9.48-9.33,14.85H757.8c2.82-13.01,8.34-24.61,16.55-34.79c18.95-23.48,45.25-35.22,78.91-35.22
			c28.28,0,50.55,7.71,66.82,23.12c16.26,15.42,24.39,36,24.39,61.73v135.77h-44.55v-29.7h-2.12c-4.53,6.23-10.18,11.88-16.97,16.97
			c-15.85,11.32-34.23,16.97-55.16,16.97c-24.04,0-42.78-6.01-56.22-18.03C756.03,1082.38,749.32,1066.47,749.32,1046.67z
			 M795.99,1044.55c0,18.39,13.43,27.58,40.3,27.58c20.08,0,35.71-4.88,46.88-14.64c11.17-9.76,16.76-23.26,16.76-40.52h-65.76
			C808.72,1016.97,795.99,1026.17,795.99,1044.55z"/>
		<path d="M962.42,891.81h46.67l46.67,176.07h27.58l46.67-176.07h46.67l-59.4,216.38h-95.46L962.42,891.81z"/>
		<path d="M1185.12,1046.67c0-18.95,7.7-34.64,23.12-47.09c15.41-12.44,37.4-18.67,65.97-18.67h61.52v-8.49
			c0-13.86-4.03-24.75-12.09-32.67c-8.06-7.92-19.59-11.88-34.58-11.88c-16.41,0-29.56,4.95-39.46,14.85
			c-4.24,4.53-7.36,9.48-9.33,14.85h-46.67c2.82-13.01,8.34-24.61,16.55-34.79c18.95-23.48,45.25-35.22,78.91-35.22
			c28.28,0,50.55,7.71,66.82,23.12c16.26,15.42,24.39,36,24.39,61.73v135.77h-44.55v-29.7h-2.12c-4.53,6.23-10.18,11.88-16.97,16.97
			c-15.85,11.32-34.23,16.97-55.16,16.97c-24.04,0-42.78-6.01-56.22-18.03C1191.83,1082.38,1185.12,1066.47,1185.12,1046.67z
			 M1231.79,1044.55c0,18.39,13.43,27.58,40.3,27.58c20.08,0,35.71-4.88,46.88-14.64c11.17-9.76,16.76-23.26,16.76-40.52h-65.76
			C1244.52,1016.97,1231.79,1026.17,1231.79,1044.55z"/>
		<path d="M1424.23,1108.19V891.81h44.55v29.7h2.12c3.39-5.65,8.62-11.31,15.7-16.97c15.27-11.31,32.67-16.97,52.19-16.97
			c26.87,0,47.73,7.78,62.58,23.34c14.85,15.56,22.27,38.18,22.27,67.88v129.4h-44.55V983.03c0-18.94-4.18-32.88-12.51-41.79
			c-8.35-8.91-21.15-13.36-38.4-13.36c-17.25,0-31.47,5.87-42.64,17.61c-11.18,11.74-16.76,27.09-16.76,46.03v116.67H1424.23z"/>
		<path d="M1645.4,932.12v-40.3h25.46v-46.67h44.55v46.67h65.76v40.3h-65.76v135.77h67.88v40.3h-112.43V932.12H1645.4z"/>
		<path d="M1823.3,1081.25c-19.38-20.79-29.06-47.87-29.06-81.25c0-33.37,9.69-60.46,29.06-81.25
			c19.37-20.79,43.63-31.18,72.76-31.18c18.38,0,35.22,5.38,50.49,16.12c6.79,4.81,12.58,10.18,17.39,16.12h2.12v-28h44.55v296.99
			h-184.56v-40.31h140.01v-67.88h-2.12c-4.81,5.94-10.61,11.32-17.39,16.12c-15,10.47-31.82,15.7-50.49,15.7
			C1866.92,1112.43,1842.67,1102.04,1823.3,1081.25z M1857.87,946.54c-11.32,12.45-16.97,30.27-16.97,53.46
			c0,23.19,5.65,41.01,16.97,53.46c11.31,12.45,26.87,18.67,46.67,18.67c18.67,0,33.58-6.29,44.76-18.88
			c11.17-12.58,16.76-30.34,16.76-53.25c0-22.91-5.59-40.66-16.76-53.25c-11.18-12.58-26.09-18.88-44.76-18.88
			C1884.74,927.88,1869.18,934.1,1857.87,946.54z"/>
		<path d="M2053.58,1021.21v-129.4h44.55v125.16c0,18.95,4.17,32.88,12.52,41.79c8.34,8.91,21.14,13.36,38.4,13.36
			c17.25,0,31.46-5.87,42.64-17.61c11.17-11.74,16.76-27.08,16.76-46.03V891.81h44.55v216.38h-44.55v-29.7h-2.12
			c-3.39,5.66-8.63,11.32-15.7,16.97c-15.27,11.32-32.67,16.97-52.18,16.97c-26.87,0-47.73-7.78-62.58-23.34
			C2061.01,1073.54,2053.58,1050.91,2053.58,1021.21z"/>
		<path d="M2288.16,1046.67c0-18.95,7.7-34.64,23.12-47.09c15.41-12.44,37.4-18.67,65.97-18.67h61.52v-8.49
			c0-13.86-4.03-24.75-12.09-32.67c-8.06-7.92-19.59-11.88-34.58-11.88c-16.41,0-29.56,4.95-39.46,14.85
			c-4.24,4.53-7.36,9.48-9.33,14.85h-46.67c2.82-13.01,8.34-24.61,16.55-34.79c18.95-23.48,45.25-35.22,78.91-35.22
			c28.28,0,50.55,7.71,66.82,23.12c16.26,15.42,24.39,36,24.39,61.73v135.77h-44.55v-29.7h-2.12c-4.53,6.23-10.18,11.88-16.97,16.97
			c-15.85,11.32-34.23,16.97-55.16,16.97c-24.04,0-42.78-6.01-56.22-18.03C2294.88,1082.38,2288.16,1066.47,2288.16,1046.67z
			 M2334.83,1044.55c0,18.39,13.43,27.58,40.3,27.58c20.08,0,35.71-4.88,46.88-14.64c11.17-9.76,16.76-23.26,16.76-40.52h-65.76
			C2347.56,1016.97,2334.83,1026.17,2334.83,1044.55z"/>
		<path d="M2527.27,1108.19V891.81h44.55v31.82h2.12c3.11-5.94,7.64-11.59,13.58-16.97c13.01-11.31,28.28-16.97,45.82-16.97h25.46
			v42.43h-27.58c-17.25,0-31.47,5.45-42.64,16.33c-11.18,10.89-16.76,25.25-16.76,43.06v116.67H2527.27z"/>
		<path d="M2696.68,1081.25c-19.38-20.79-29.06-47.87-29.06-81.25c0-33.37,9.69-60.46,29.06-81.25
			c19.37-20.79,43.63-31.18,72.76-31.18c18.38,0,35.22,5.38,50.49,16.12c6.5,4.53,12.3,9.76,17.39,15.7h2.12V811.2H2884v296.99
			h-44.55v-27.58h-2.12c-4.81,5.94-10.61,11.32-17.39,16.12c-15,10.47-31.82,15.7-50.49,15.7
			C2740.31,1112.43,2716.05,1102.04,2696.68,1081.25z M2731.26,946.54c-11.32,12.45-16.97,30.27-16.97,53.46
			c0,23.19,5.65,41.01,16.97,53.46c11.31,12.45,26.87,18.67,46.67,18.67c18.67,0,33.58-6.29,44.76-18.88
			c11.17-12.58,16.76-30.34,16.76-53.25c0-22.91-5.59-40.66-16.76-53.25c-11.18-12.58-26.09-18.88-44.76-18.88
			C2758.13,927.88,2742.57,934.1,2731.26,946.54z"/>
	</g>
	<path d="M327.11,788.89C210.52,788.89,116,883.41,116,1000c0,38.45,10.33,74.47,28.3,105.53l0,0c0.01,0.02,0.02,0.04,0.03,0.06h0
		c36.51,63.06,104.66,105.52,182.77,105.52c116.59,0,211.11-94.52,211.11-211.11C538.21,883.41,443.7,788.89,327.11,788.89z
		 M472.73,1105.53H181.49l-18.61-32.23L308.51,821.1h37.2l145.63,252.19L472.73,1105.53z"/>
	<g>
		<g>
			<path d="M567.05,788.89c-16.04,0-28.83,12.46-28.83,27.98c0,15.87,12.8,28.32,28.83,28.32c16.21,0,28.67-12.45,28.67-28.32
				C595.71,801.35,583.26,788.89,567.05,788.89z M567.22,839.23c-12.63,0-21.84-9.9-21.84-22.35c0-12.29,9.21-22.35,21.67-22.35
				c12.46,0,21.5,10.07,21.5,22.52C588.55,829.33,579.5,839.23,567.22,839.23z"/>
		</g>
		<g>
			<path d="M573.53,817.73v-0.34c3.42-1.03,5.81-3.42,5.81-6.49c0-2.73-1.2-4.95-2.73-6.14c-2.05-1.19-4.44-2.05-9.73-2.05
				c-4.61,0-8.19,0.34-10.75,0.85v27.98h6.48v-11.26h3.08c3.58,0,5.29,1.37,5.8,4.44c0.85,3.24,1.36,5.8,2.22,6.82h7
				c-0.68-1.02-1.19-2.73-2.05-7C577.8,820.8,576.26,818.75,573.53,817.73z M565.85,815.68h-3.07v-8.02
				c0.68-0.17,1.88-0.35,3.58-0.35c4.09,0,5.97,1.71,5.97,4.27C572.34,814.48,569.44,815.68,565.85,815.68z"/>
		</g>
	</g>
</g>
</svg>
