<svg width="2768" height="424" viewBox="0 0 2768 424" fill="none" xmlns="http://www.w3.org/2000/svg">
<path d="M393.91 317.53C393.9 317.55 393.89 317.57 393.88 317.59H393.95L393.91 317.53Z" fill="white"/>
<path d="M633.32 258.67C633.32 239.72 641.02 224.03 656.44 211.58C671.85 199.14 693.84 192.91 722.41 192.91H783.93V184.42C783.93 170.56 779.9 159.67 771.84 151.75C763.78 143.83 752.25 139.87 737.26 139.87C720.85 139.87 707.7 144.82 697.8 154.72C693.56 159.25 690.44 164.2 688.47 169.57H641.8C644.62 156.56 650.14 144.96 658.35 134.78C677.3 111.3 703.6 99.5601 737.26 99.5601C765.54 99.5601 787.81 107.27 804.08 122.68C820.34 138.1 828.47 158.68 828.47 184.41V320.18H783.92V290.48H781.8C777.27 296.71 771.62 302.36 764.83 307.45C748.98 318.77 730.6 324.42 709.67 324.42C685.63 324.42 666.89 318.41 653.45 306.39C640.03 294.38 633.32 278.47 633.32 258.67ZM679.99 256.55C679.99 274.94 693.42 284.13 720.29 284.13C740.37 284.13 756 279.25 767.17 269.49C778.34 259.73 783.93 246.23 783.93 228.97H718.17C692.72 228.97 679.99 238.17 679.99 256.55Z" fill="white"/>
<path d="M846.42 103.81H893.09L939.76 279.88H967.34L1014.01 103.81H1060.68L1001.28 320.19H905.82L846.42 103.81Z" fill="white"/>
<path d="M1069.12 258.67C1069.12 239.72 1076.82 224.03 1092.24 211.58C1107.65 199.14 1129.64 192.91 1158.21 192.91H1219.73V184.42C1219.73 170.56 1215.7 159.67 1207.64 151.75C1199.58 143.83 1188.05 139.87 1173.06 139.87C1156.65 139.87 1143.5 144.82 1133.6 154.72C1129.36 159.25 1126.24 164.2 1124.27 169.57H1077.6C1080.42 156.56 1085.94 144.96 1094.15 134.78C1113.1 111.3 1139.4 99.5601 1173.06 99.5601C1201.34 99.5601 1223.61 107.27 1239.88 122.68C1256.14 138.1 1264.27 158.68 1264.27 184.41V320.18H1219.72V290.48H1217.6C1213.07 296.71 1207.42 302.36 1200.63 307.45C1184.78 318.77 1166.4 324.42 1145.47 324.42C1121.43 324.42 1102.69 318.41 1089.25 306.39C1075.83 294.38 1069.12 278.47 1069.12 258.67ZM1115.79 256.55C1115.79 274.94 1129.22 284.13 1156.09 284.13C1176.17 284.13 1191.8 279.25 1202.97 269.49C1214.14 259.73 1219.73 246.23 1219.73 228.97H1153.97C1128.52 228.97 1115.79 238.17 1115.79 256.55Z" fill="white"/>
<path d="M1308.23 320.19V103.81H1352.78V133.51H1354.9C1358.29 127.86 1363.52 122.2 1370.6 116.54C1385.87 105.23 1403.27 99.5703 1422.79 99.5703C1449.66 99.5703 1470.52 107.35 1485.37 122.91C1500.22 138.47 1507.64 161.09 1507.64 190.79V320.19H1463.09V195.03C1463.09 176.09 1458.91 162.15 1450.58 153.24C1442.23 144.33 1429.43 139.88 1412.18 139.88C1394.93 139.88 1380.71 145.75 1369.54 157.49C1358.36 169.23 1352.78 184.58 1352.78 203.52V320.19H1308.23Z" fill="white"/>
<path d="M1529.4 144.12V103.82H1554.86V57.1504H1599.41V103.82H1665.17V144.12H1599.41V279.89H1667.29V320.19H1554.86V144.12H1529.4Z" fill="white"/>
<path d="M1707.3 293.25C1687.92 272.46 1678.24 245.38 1678.24 212C1678.24 178.63 1687.93 151.54 1707.3 130.75C1726.67 109.96 1750.93 99.5703 1780.06 99.5703C1798.44 99.5703 1815.28 104.95 1830.55 115.69C1837.34 120.5 1843.13 125.87 1847.94 131.81H1850.06V103.81H1894.61V400.8H1710.05V360.49H1850.06V292.61H1847.94C1843.13 298.55 1837.33 303.93 1830.55 308.73C1815.55 319.2 1798.73 324.43 1780.06 324.43C1750.92 324.43 1726.67 314.04 1707.3 293.25ZM1741.87 158.54C1730.55 170.99 1724.9 188.81 1724.9 212C1724.9 235.19 1730.55 253.01 1741.87 265.46C1753.18 277.91 1768.74 284.13 1788.54 284.13C1807.21 284.13 1822.12 277.84 1833.3 265.25C1844.47 252.67 1850.06 234.91 1850.06 212C1850.06 189.09 1844.47 171.34 1833.3 158.75C1822.12 146.17 1807.21 139.87 1788.54 139.87C1768.74 139.88 1753.18 146.1 1741.87 158.54Z" fill="white"/>
<path d="M1937.58 233.21V103.81H1982.13V228.97C1982.13 247.92 1986.3 261.85 1994.65 270.76C2002.99 279.67 2015.79 284.12 2033.05 284.12C2050.3 284.12 2064.51 278.25 2075.69 266.51C2086.86 254.77 2092.45 239.43 2092.45 220.48V103.81H2137V320.19H2092.45V290.49H2090.33C2086.94 296.15 2081.7 301.81 2074.63 307.46C2059.36 318.78 2041.96 324.43 2022.45 324.43C1995.58 324.43 1974.72 316.65 1959.87 301.09C1945.01 285.54 1937.58 262.91 1937.58 233.21Z" fill="white"/>
<path d="M2172.16 258.67C2172.16 239.72 2179.86 224.03 2195.28 211.58C2210.69 199.14 2232.68 192.91 2261.25 192.91H2322.77V184.42C2322.77 170.56 2318.74 159.67 2310.68 151.75C2302.62 143.83 2291.09 139.87 2276.1 139.87C2259.69 139.87 2246.54 144.82 2236.64 154.72C2232.4 159.25 2229.28 164.2 2227.31 169.57H2180.64C2183.46 156.56 2188.98 144.96 2197.19 134.78C2216.14 111.3 2242.44 99.5601 2276.1 99.5601C2304.38 99.5601 2326.65 107.27 2342.92 122.68C2359.18 138.1 2367.31 158.68 2367.31 184.41V320.18H2322.76V290.48H2320.64C2316.11 296.71 2310.46 302.36 2303.67 307.45C2287.82 318.77 2269.44 324.42 2248.51 324.42C2224.47 324.42 2205.73 318.41 2192.29 306.39C2178.88 294.38 2172.16 278.47 2172.16 258.67ZM2218.83 256.55C2218.83 274.94 2232.26 284.13 2259.13 284.13C2279.21 284.13 2294.84 279.25 2306.01 269.49C2317.18 259.73 2322.77 246.23 2322.77 228.97H2257.01C2231.56 228.97 2218.83 238.17 2218.83 256.55Z" fill="white"/>
<path d="M2411.27 320.19V103.81H2455.82V135.63H2457.94C2461.05 129.69 2465.58 124.04 2471.52 118.66C2484.53 107.35 2499.8 101.69 2517.34 101.69H2542.8V144.12H2515.22C2497.97 144.12 2483.75 149.57 2472.58 160.45C2461.4 171.34 2455.82 185.7 2455.82 203.51V320.18H2411.27V320.19Z" fill="white"/>
<path d="M2580.68 293.25C2561.3 272.46 2551.62 245.38 2551.62 212C2551.62 178.63 2561.31 151.54 2580.68 130.75C2600.05 109.96 2624.31 99.5702 2653.44 99.5702C2671.82 99.5702 2688.66 104.95 2703.93 115.69C2710.43 120.22 2716.23 125.45 2721.32 131.39H2723.44V23.2002H2768V320.19H2723.45V292.61H2721.33C2716.52 298.55 2710.72 303.93 2703.94 308.73C2688.94 319.2 2672.12 324.43 2653.45 324.43C2624.31 324.43 2600.05 314.04 2580.68 293.25ZM2615.26 158.54C2603.94 170.99 2598.29 188.81 2598.29 212C2598.29 235.19 2603.94 253.01 2615.26 265.46C2626.57 277.91 2642.13 284.13 2661.93 284.13C2680.6 284.13 2695.51 277.84 2706.69 265.25C2717.86 252.67 2723.45 234.91 2723.45 212C2723.45 189.09 2717.86 171.34 2706.69 158.75C2695.51 146.17 2680.6 139.87 2661.93 139.87C2642.13 139.88 2626.57 146.1 2615.26 158.54Z" fill="white"/>
<path d="M211.11 0.890137C94.52 0.890137 0 95.4101 0 212C0 250.45 10.33 286.47 28.3 317.53C28.31 317.55 28.32 317.57 28.33 317.59C64.84 380.65 132.99 423.11 211.1 423.11C327.69 423.11 422.21 328.59 422.21 212C422.21 95.4101 327.7 0.890137 211.11 0.890137ZM356.73 317.53H65.49L46.88 285.3L192.51 33.1001H229.71L375.34 285.29L356.73 317.53Z" fill="white"/>
<path d="M451.05 0.890137C435.01 0.890137 422.22 13.3501 422.22 28.8701C422.22 44.7401 435.02 57.1901 451.05 57.1901C467.26 57.1901 479.72 44.7401 479.72 28.8701C479.71 13.3501 467.26 0.890137 451.05 0.890137ZM451.22 51.2301C438.59 51.2301 429.38 41.3301 429.38 28.8801C429.38 16.5901 438.59 6.53015 451.05 6.53015C463.51 6.53015 472.55 16.6001 472.55 29.0501C472.55 41.3301 463.5 51.2301 451.22 51.2301Z" fill="white"/>
<path d="M457.53 29.7302V29.3902C460.95 28.3602 463.34 25.9702 463.34 22.9002C463.34 20.1702 462.14 17.9502 460.61 16.7602C458.56 15.5702 456.17 14.7102 450.88 14.7102C446.27 14.7102 442.69 15.0502 440.13 15.5602V43.5402H446.61V32.2802H449.69C453.27 32.2802 454.98 33.6502 455.49 36.7202C456.34 39.9602 456.85 42.5202 457.71 43.5402H464.71C464.03 42.5202 463.52 40.8102 462.66 36.5402C461.8 32.8002 460.26 30.7502 457.53 29.7302ZM449.85 27.6802H446.78V19.6602C447.46 19.4902 448.66 19.3102 450.36 19.3102C454.45 19.3102 456.33 21.0202 456.33 23.5802C456.34 26.4802 453.44 27.6802 449.85 27.6802Z" fill="white"/>
</svg>
