<svg width="214" height="320" viewBox="0 0 214 320" fill="none" xmlns="http://www.w3.org/2000/svg">
<path d="M2.2017 71.0811V52.8992H8.55824C9.82481 52.8992 10.8694 53.1182 11.6921 53.5562C12.5148 53.9883 13.1274 54.5712 13.5298 55.3051C13.9323 56.0331 14.1335 56.841 14.1335 57.7288C14.1335 58.51 13.9944 59.1552 13.7163 59.6642C13.444 60.1731 13.083 60.5756 12.6332 60.8715C12.1893 61.1675 11.7069 61.3865 11.1861 61.5285V61.7061C11.7424 61.7416 12.3017 61.9369 12.864 62.292C13.4263 62.6471 13.8968 63.1561 14.2756 63.819C14.6544 64.4819 14.8438 65.2927 14.8438 66.2515C14.8438 67.163 14.6366 67.9827 14.2223 68.7107C13.808 69.4387 13.154 70.0157 12.2603 70.4419C11.3666 70.868 10.2036 71.0811 8.77131 71.0811H2.2017ZM4.40341 69.1279H8.77131C10.2095 69.1279 11.2305 68.8498 11.8342 68.2934C12.4438 67.7311 12.7486 67.0505 12.7486 66.2515C12.7486 65.636 12.5917 65.0678 12.2781 64.547C11.9644 64.0202 11.5175 63.6 10.9375 63.2863C10.3575 62.9667 9.67093 62.8069 8.87784 62.8069H4.40341V69.1279ZM4.40341 60.8893H8.48722C9.1501 60.8893 9.74787 60.7591 10.2805 60.4987C10.8191 60.2383 11.2453 59.8713 11.5589 59.3978C11.8786 58.9243 12.0384 58.368 12.0384 57.7288C12.0384 56.9298 11.7602 56.2521 11.2038 55.6958C10.6475 55.1335 9.76563 54.8524 8.55824 54.8524H4.40341V60.8893ZM18.1774 71.0811V57.4447H23.7527C25.2205 57.4447 26.3864 57.7761 27.2505 58.439C28.1146 59.1019 28.5467 59.9778 28.5467 61.0669C28.5467 61.8954 28.3011 62.5376 27.8098 62.9933C27.3186 63.4432 26.6883 63.748 25.9189 63.9078C26.4219 63.9788 26.9102 64.1563 27.3837 64.4404C27.8631 64.7245 28.2596 65.1151 28.5733 65.6123C28.887 66.1035 29.0439 66.7072 29.0439 67.4234C29.0439 68.1218 28.8663 68.7462 28.5112 69.2966C28.1561 69.847 27.6471 70.282 26.9842 70.6017C26.3213 70.9213 25.5282 71.0811 24.6049 71.0811H18.1774ZM20.166 69.1634H24.6049C25.327 69.1634 25.8922 68.9918 26.3006 68.6485C26.709 68.3052 26.9132 67.8377 26.9132 67.2458C26.9132 66.5415 26.709 65.9881 26.3006 65.5857C25.8922 65.1773 25.327 64.9731 24.6049 64.9731H20.166V69.1634ZM20.166 63.162H23.7527C24.3149 63.162 24.7973 63.0851 25.1998 62.9312C25.6022 62.7714 25.91 62.5465 26.123 62.2565C26.342 61.9606 26.4515 61.6114 26.4515 61.2089C26.4515 60.6348 26.2118 60.185 25.7324 59.8595C25.253 59.528 24.5931 59.3623 23.7527 59.3623H20.166V63.162ZM37.7552 71.3651C36.5242 71.3651 35.444 71.0722 34.5148 70.4862C33.5915 69.9003 32.8695 69.0806 32.3486 68.0271C31.8337 66.9736 31.5763 65.7425 31.5763 64.3339C31.5763 62.9134 31.8337 61.6735 32.3486 60.6141C32.8695 59.5547 33.5915 58.732 34.5148 58.146C35.444 57.5601 36.5242 57.2671 37.7552 57.2671C38.9863 57.2671 40.0635 57.5601 40.9868 58.146C41.916 58.732 42.6381 59.5547 43.153 60.6141C43.6738 61.6735 43.9342 62.9134 43.9342 64.3339C43.9342 65.7425 43.6738 66.9736 43.153 68.0271C42.6381 69.0806 41.916 69.9003 40.9868 70.4862C40.0635 71.0722 38.9863 71.3651 37.7552 71.3651ZM37.7552 69.483C38.6904 69.483 39.4598 69.2433 40.0635 68.7639C40.6672 68.2845 41.114 67.6542 41.404 66.873C41.694 66.0917 41.839 65.2454 41.839 64.3339C41.839 63.4224 41.694 62.5731 41.404 61.786C41.114 60.9988 40.6672 60.3625 40.0635 59.8772C39.4598 59.3919 38.6904 59.1492 37.7552 59.1492C36.8201 59.1492 36.0507 59.3919 35.447 59.8772C34.8433 60.3625 34.3965 60.9988 34.1064 61.786C33.8164 62.5731 33.6714 63.4224 33.6714 64.3339C33.6714 65.2454 33.8164 66.0917 34.1064 66.873C34.3965 67.6542 34.8433 68.2845 35.447 68.7639C36.0507 69.2433 36.8201 69.483 37.7552 69.483ZM45.6765 74.9873V69.1279H46.8129C47.091 68.8379 47.3307 68.5242 47.532 68.1869C47.7332 67.8495 47.9078 67.45 48.0558 66.9884C48.2096 66.5208 48.3398 65.9526 48.4464 65.2838C48.5529 64.6091 48.6476 63.7953 48.7305 62.8424L49.1921 57.4447H57.8569V69.1279H59.9521V74.9873H57.8569V71.0811H47.7717V74.9873H45.6765ZM49.1921 69.1279H55.7617V59.3978H51.1452L50.7901 62.8424C50.6422 64.2688 50.4587 65.5146 50.2397 66.58C50.0207 67.6453 49.6715 68.4946 49.1921 69.1279ZM69.0896 52.8992V71.0811H66.8879V55.2075H66.7813L62.3424 58.1549V55.9177L66.8879 52.8992H69.0896Z" fill="#FF0000"/>
<path d="M138.383 70.0574V51.8756H144.74C146.006 51.8756 147.051 52.0945 147.874 52.5325C148.696 52.9646 149.309 53.5475 149.711 54.2814C150.114 55.0094 150.315 55.8173 150.315 56.7051C150.315 57.4863 150.176 58.1315 149.898 58.6405C149.626 59.1495 149.265 59.5519 148.815 59.8479C148.371 60.1438 147.889 60.3628 147.368 60.5048V60.6824C147.924 60.7179 148.483 60.9132 149.046 61.2683C149.608 61.6234 150.078 62.1324 150.457 62.7953C150.836 63.4582 151.025 64.269 151.025 65.2278C151.025 66.1393 150.818 66.959 150.404 67.687C149.99 68.415 149.336 68.992 148.442 69.4182C147.548 69.8443 146.385 70.0574 144.953 70.0574H138.383ZM140.585 68.1042H144.953C146.391 68.1042 147.412 67.8261 148.016 67.2697C148.625 66.7075 148.93 66.0268 148.93 65.2278C148.93 64.6123 148.773 64.0441 148.46 63.5233C148.146 62.9965 147.699 62.5763 147.119 62.2626C146.539 61.943 145.853 61.7832 145.059 61.7832H140.585V68.1042ZM140.585 59.8656H144.669C145.332 59.8656 145.93 59.7354 146.462 59.475C147.001 59.2146 147.427 58.8476 147.741 58.3741C148.06 57.9006 148.22 57.3443 148.22 56.7051C148.22 55.9061 147.942 55.2284 147.385 54.6721C146.829 54.1098 145.947 53.8287 144.74 53.8287H140.585V59.8656ZM154.359 70.0574V56.421H159.934C161.402 56.421 162.568 56.7524 163.432 57.4153C164.296 58.0782 164.728 58.9542 164.728 60.0432C164.728 60.8718 164.483 61.5139 163.991 61.9697C163.5 62.4195 162.87 62.7243 162.1 62.8841C162.604 62.9551 163.092 63.1327 163.565 63.4167C164.045 63.7008 164.441 64.0915 164.755 64.5886C165.069 65.0799 165.225 65.6836 165.225 66.3997C165.225 67.0981 165.048 67.7225 164.693 68.2729C164.338 68.8234 163.829 69.2584 163.166 69.578C162.503 69.8976 161.71 70.0574 160.787 70.0574H154.359ZM156.348 68.1398H160.787C161.509 68.1398 162.074 67.9681 162.482 67.6248C162.891 67.2816 163.095 66.814 163.095 66.2221C163.095 65.5178 162.891 64.9645 162.482 64.562C162.074 64.1536 161.509 63.9494 160.787 63.9494H156.348V68.1398ZM156.348 62.1383H159.934C160.497 62.1383 160.979 62.0614 161.381 61.9075C161.784 61.7477 162.092 61.5228 162.305 61.2328C162.524 60.9369 162.633 60.5877 162.633 60.1852C162.633 59.6111 162.393 59.1613 161.914 58.8358C161.435 58.5043 160.775 58.3386 159.934 58.3386H156.348V62.1383ZM173.937 70.3415C172.706 70.3415 171.626 70.0485 170.696 69.4626C169.773 68.8766 169.051 68.0569 168.53 67.0034C168.015 65.9499 167.758 64.7188 167.758 63.3102C167.758 61.8898 168.015 60.6498 168.53 59.5904C169.051 58.531 169.773 57.7083 170.696 57.1224C171.626 56.5364 172.706 56.2435 173.937 56.2435C175.168 56.2435 176.245 56.5364 177.168 57.1224C178.098 57.7083 178.82 58.531 179.335 59.5904C179.855 60.6498 180.116 61.8898 180.116 63.3102C180.116 64.7188 179.855 65.9499 179.335 67.0034C178.82 68.0569 178.098 68.8766 177.168 69.4626C176.245 70.0485 175.168 70.3415 173.937 70.3415ZM173.937 68.4594C174.872 68.4594 175.641 68.2197 176.245 67.7403C176.849 67.2609 177.296 66.6305 177.586 65.8493C177.876 65.068 178.021 64.2217 178.021 63.3102C178.021 62.3988 177.876 61.5494 177.586 60.7623C177.296 59.9751 176.849 59.3389 176.245 58.8535C175.641 58.3682 174.872 58.1256 173.937 58.1256C173.002 58.1256 172.232 58.3682 171.629 58.8535C171.025 59.3389 170.578 59.9751 170.288 60.7623C169.998 61.5494 169.853 62.3988 169.853 63.3102C169.853 64.2217 169.998 65.068 170.288 65.8493C170.578 66.6305 171.025 67.2609 171.629 67.7403C172.232 68.2197 173.002 68.4594 173.937 68.4594ZM181.858 73.9636V68.1042H182.994C183.273 67.8142 183.512 67.5006 183.714 67.1632C183.915 66.8258 184.089 66.4263 184.237 65.9647C184.391 65.4971 184.521 64.9289 184.628 64.2601C184.735 63.5854 184.829 62.7716 184.912 61.8187L185.374 56.421H194.039V68.1042H196.134V73.9636H194.039V70.0574H183.953V73.9636H181.858ZM185.374 68.1042H191.943V58.3741H187.327L186.972 61.8187C186.824 63.2451 186.64 64.491 186.421 65.5563C186.202 66.6216 185.853 67.471 185.374 68.1042ZM198.879 70.0574V68.4594L204.881 61.8898C205.585 61.1203 206.165 60.4515 206.621 59.8834C207.076 59.3093 207.414 58.7707 207.633 58.2676C207.858 57.7586 207.97 57.2259 207.97 56.6696C207.97 56.0304 207.816 55.477 207.508 55.0094C207.207 54.5419 206.792 54.1808 206.266 53.9263C205.739 53.6718 205.147 53.5446 204.49 53.5446C203.792 53.5446 203.182 53.6896 202.661 53.9796C202.146 54.2637 201.747 54.6632 201.463 55.1781C201.184 55.693 201.045 56.2967 201.045 56.9892H198.95C198.95 55.9238 199.196 54.9887 199.687 54.1838C200.178 53.3789 200.847 52.7515 201.693 52.3017C202.546 51.8519 203.502 51.627 204.561 51.627C205.626 51.627 206.57 51.8519 207.393 52.3017C208.216 52.7515 208.861 53.3582 209.328 54.1216C209.796 54.8851 210.03 55.7345 210.03 56.6696C210.03 57.3384 209.908 57.9924 209.666 58.6316C209.429 59.2649 209.015 59.9721 208.423 60.7534C207.837 61.5287 207.023 62.4757 205.981 63.5943L201.898 67.9622V68.1042H210.349V70.0574H198.879Z" fill="#FF0000"/>
<path d="M27.6289 89.7886H40.5591V101.958H27.6289V89.7886Z" fill="#2D6EC9"/>
<path d="M162.255 89.7886H175.186V101.958H162.255V89.7886Z" fill="#2D6EC9"/>
<path fill-rule="evenodd" clip-rule="evenodd" d="M32.1931 113.367V101.958H35.9961V113.367H32.1931Z" fill="#2D6EC9"/>
<path fill-rule="evenodd" clip-rule="evenodd" d="M166.819 113.367V101.958H170.622V113.367H166.819Z" fill="#2D6EC9"/>
<path fill-rule="evenodd" clip-rule="evenodd" d="M35.9963 123.254V163.573H32.1934V123.254H35.9963Z" fill="#2D6EC9"/>
<path fill-rule="evenodd" clip-rule="evenodd" d="M35.6162 178.018L35.616 260.162L31.813 260.162L31.8132 178.018L35.6162 178.018Z" fill="#2D6EC9"/>
<path fill-rule="evenodd" clip-rule="evenodd" d="M31.8551 260.171H102.847V263.812H31.8551V260.171Z" fill="#2D6EC9"/>
<path fill-rule="evenodd" clip-rule="evenodd" d="M102.848 260.171H169.289V263.812H102.848V260.171Z" fill="#2D6EC9"/>
<path d="M34.0943 126.052L23.8849 113.115L44.3037 113.115L34.0943 126.052Z" fill="#2D6EC9"/>
<path d="M42.8419 171.553C42.8419 176.383 38.9258 180.299 34.095 180.299C29.2643 180.299 25.3481 176.383 25.3481 171.553C25.3481 166.722 29.2643 162.806 34.095 162.806C38.9258 162.806 42.8419 166.722 42.8419 171.553Z" fill="#2D6EC9"/>
<path fill-rule="evenodd" clip-rule="evenodd" d="M51.2669 173.869H47.3281V170.066H51.2669V173.869ZM62.2956 173.869H54.418V170.066H62.2956V173.869ZM69.3855 173.869H65.4467V170.066H69.3855V173.869Z" fill="#2D6EC9"/>
<path fill-rule="evenodd" clip-rule="evenodd" d="M133.338 174.384H129.399V170.581H133.338V174.384ZM144.367 174.384H136.489V170.581H144.367V174.384ZM151.457 174.384H147.518V170.581H151.457V174.384Z" fill="#2D6EC9"/>
<path fill-rule="evenodd" clip-rule="evenodd" d="M170.621 179.539V263.979H166.818V179.539H170.621Z" fill="#2D6EC9"/>
<path fill-rule="evenodd" clip-rule="evenodd" d="M166.819 165.848L166.819 123.255L170.622 123.255L170.622 165.848L166.819 165.848Z" fill="#2D6EC9"/>
<path d="M168.721 126.052L158.511 113.115L178.93 113.115L168.721 126.052Z" fill="#2D6EC9"/>
<path d="M177.467 171.553C177.467 176.383 173.551 180.299 168.72 180.299C163.889 180.299 159.973 176.383 159.973 171.553C159.973 166.722 163.889 162.806 168.72 162.806C173.551 162.806 177.467 166.722 177.467 171.553Z" fill="#2D6EC9"/>
<path fill-rule="evenodd" clip-rule="evenodd" d="M98.2964 287.476L98.2964 263.812L102.847 263.812L102.847 287.476L98.2964 287.476Z" fill="#2D6EC9"/>
<path fill-rule="evenodd" clip-rule="evenodd" d="M121.183 287.544H81.632V317.968H121.183V287.544ZM80.1108 286.022V319.489H122.704V286.022H80.1108Z" fill="#99FF82"/>
<path d="M113.172 313.43H112.364L112.203 310.288L112.04 307.147L111.879 304.006L111.718 300.865L111.556 297.723H111.481C111.676 297.517 111.783 297.251 111.785 296.975C111.785 296.641 111.628 296.327 111.366 296.112C111.375 296.046 111.381 295.981 111.381 295.916C111.381 295.054 110.598 294.341 109.674 294.39C109.618 294.275 109.55 294.165 109.472 294.062C109.478 294.012 109.481 293.961 109.481 293.908C109.481 292.695 108.417 291.708 107.111 291.708C107.016 291.708 106.921 291.715 106.827 291.727C106.607 291.378 106.294 291.089 105.918 290.889C105.543 290.688 105.118 290.584 104.687 290.586C104.113 290.587 103.557 290.774 103.114 291.117C102.626 290.77 102.031 290.584 101.42 290.586C100.871 290.586 100.334 290.737 99.8745 291.02C99.0237 290.441 97.7621 290.461 96.9243 291.086C95.9709 290.503 94.6886 290.43 93.6615 290.914C93.1358 290.697 92.5677 290.585 91.9935 290.586C89.7118 290.586 87.8555 292.307 87.8555 294.422C87.8555 296.538 89.7118 298.259 91.9935 298.259C93.3525 298.259 94.6011 297.652 95.3778 296.624C95.9172 296.589 96.4386 296.427 96.8949 296.154C97.3512 295.882 97.7278 295.506 97.9906 295.061C98.4481 295.146 98.9222 295.102 99.353 294.934C99.617 295.201 99.937 295.415 100.293 295.561C100.648 295.707 101.032 295.782 101.42 295.782C101.813 295.783 102.202 295.706 102.561 295.557C102.92 295.407 103.242 295.189 103.506 294.915C104.01 295.178 104.598 295.263 105.163 295.153C105.295 295.332 105.453 295.492 105.631 295.626C105.846 296.528 106.711 297.188 107.718 297.188C108.024 297.188 108.322 297.128 108.597 297.011C108.82 297.214 109.097 297.352 109.401 297.411C109.451 297.526 109.52 297.631 109.605 297.723H109.132L108.97 300.865L108.808 304.006L108.647 307.147L108.486 310.288L108.324 313.43V305.95H103.475L98.6263 302.211V305.95L93.7775 302.211V305.95L88.9287 302.211V313.429H88.1201C88.0139 313.429 87.9117 313.468 87.836 313.538C87.7603 313.608 87.7171 313.704 87.7158 313.804V314.551C87.7158 314.757 87.8973 314.925 88.1201 314.925H113.172C113.278 314.926 113.38 314.887 113.456 314.817C113.532 314.747 113.575 314.651 113.576 314.551V313.804C113.575 313.704 113.532 313.608 113.456 313.538C113.38 313.468 113.278 313.429 113.172 313.43ZM109.07 296.279L108.832 295.912L108.456 296.158C108.239 296.3 107.981 296.377 107.717 296.376C107.077 296.376 106.533 295.932 106.452 295.343L106.427 295.16L106.263 295.057C106.044 294.917 105.868 294.725 105.753 294.5L105.585 294.177L105.223 294.295C104.631 294.489 104.112 294.375 103.675 294.052L103.307 293.779L103.049 294.148C102.871 294.402 102.629 294.61 102.345 294.753C102.061 294.897 101.743 294.971 101.42 294.97C101.107 294.971 100.799 294.9 100.521 294.765C100.243 294.63 100.003 294.433 99.8228 294.193L99.593 293.885L99.2495 294.077C98.8396 294.307 98.3966 294.364 97.9031 294.197L97.5139 294.066L97.3583 294.426C96.9936 295.27 96.1234 295.817 95.1407 295.82L94.9037 295.821L94.7774 296.01C94.174 296.91 93.1331 297.447 91.9935 297.447C90.1872 297.447 88.7175 296.09 88.7175 294.422C88.7175 292.754 90.1868 291.398 91.9935 291.398C92.5142 291.398 93.015 291.51 93.4818 291.731L93.6926 291.831L93.8956 291.718C94.7615 291.234 95.9161 291.324 96.6807 291.923L96.9971 292.17L97.2747 291.885C97.4217 291.731 97.6014 291.608 97.8022 291.524C98.003 291.44 98.2204 291.397 98.4401 291.398C98.858 291.396 99.2594 291.55 99.5564 291.827L99.8396 292.09L100.141 291.845C100.496 291.556 100.95 291.397 101.42 291.398C101.952 291.398 102.45 291.594 102.82 291.951L103.147 292.266L103.454 291.933C103.607 291.765 103.796 291.631 104.008 291.539C104.221 291.446 104.452 291.398 104.687 291.398C105.353 291.398 105.943 291.768 106.191 292.341L106.336 292.675L106.705 292.578C106.86 292.538 106.989 292.519 107.111 292.519C107.942 292.519 108.619 293.142 108.619 293.908C108.619 293.975 108.607 294.038 108.594 294.116L108.564 294.3L108.693 294.442C108.831 294.592 108.923 294.759 108.967 294.938L109.07 295.36L109.51 295.235C109.598 295.21 109.67 295.199 109.737 295.199C110.167 295.199 110.518 295.52 110.518 295.915C110.518 295.99 110.502 296.068 110.469 296.155L110.331 296.511L110.7 296.664C110.765 296.69 110.821 296.733 110.86 296.789C110.9 296.844 110.921 296.909 110.922 296.975C110.922 297.164 110.753 297.318 110.545 297.318C110.453 297.319 110.363 297.288 110.294 297.229C110.225 297.171 110.182 297.09 110.173 297.003L110.141 296.631L109.713 296.632C109.583 296.628 109.456 296.594 109.344 296.533C109.231 296.471 109.137 296.384 109.07 296.279ZM109.486 303.397L109.585 301.473H111.101L111.2 303.397H109.486ZM109.164 309.679L109.262 307.755H111.425L111.524 309.679H109.164ZM107.408 314.612H104.391V314.28H107.408V314.612ZM107.461 309.69V312.619H107.327V309.69H107.461ZM104.902 313.227V309.892H106.896V313.227H104.902ZM104.794 314.076V313.632H107.003V314.076H104.794ZM93.9788 309.877H98.4237V311.186H93.9788V309.877ZM93.5749 311.186H89.7902V309.877H93.5749V311.186ZM98.8276 309.877H103.07V311.186H98.8276V309.877ZM98.8276 309.503V308.194H103.07V309.503H98.8276ZM98.4237 309.503H93.9788V308.194H98.4237V309.503ZM93.5749 309.503H89.7902V308.194H93.5749V309.503Z" fill="#99FF82"/>
<path d="M27.272 6.94365L24.1853 5.33498L26.3703 0.7771H41.0581L43.2604 5.33498L40.1737 6.92577L38.9252 4.35191H28.5206L27.272 6.94365ZM45.168 11.5015H37.3645L35.9772 6.13931H31.4685L30.0986 11.5015H22.2431L20.0234 16.0594L23.1275 17.6502L24.3587 15.0763H43.0524L44.3009 17.6681L47.405 16.0773L45.168 11.5015ZM43.7287 36.5252H40.1391L39.7229 34.9165L33.7229 25.622L27.7055 34.9165L27.3067 36.5252H23.7171L28.694 16.8637H32.3182L31.694 19.2767L33.7229 22.4047L35.7344 19.2767L35.1275 16.8637H38.7171L43.7287 36.5252ZM32.6824 24.0134L31.1217 21.6004L29.0755 29.6079L32.6824 24.0134ZM38.3703 29.5901L36.324 21.5825L34.7633 24.0134L38.3703 29.5901Z" fill="#FF0000"/>
<path d="M161.898 6.94365L158.811 5.33498L160.996 0.7771H175.684L177.886 5.33498L174.8 6.92577L173.551 4.35191H163.147L161.898 6.94365ZM179.794 11.5015H171.99L170.603 6.13931H166.095L164.725 11.5015H156.869L154.649 16.0594L157.753 17.6502L158.985 15.0763H177.678L178.927 17.6681L182.031 16.0773L179.794 11.5015ZM178.355 36.5252H174.765L174.349 34.9165L168.349 25.622L162.332 34.9165L161.933 36.5252H158.343L163.32 16.8637H166.944L166.32 19.2767L168.349 22.4047L170.36 19.2767L169.753 16.8637H173.343L178.355 36.5252ZM167.308 24.0134L165.748 21.6004L163.701 29.6079L167.308 24.0134ZM172.996 29.5901L170.95 21.5825L169.389 24.0134L172.996 29.5901Z" fill="#FF0000"/>
<path fill-rule="evenodd" clip-rule="evenodd" d="M101.232 201.818L126.921 157.323H75.543L101.232 201.818ZM101.232 194.212L120.334 161.126H82.13L101.232 194.212Z" fill="#2D6EC9"/>
</svg>
