<svg width="24" height="24" viewBox="0 0 24 24" fill="none" xmlns="http://www.w3.org/2000/svg">
<path d="M20.35 8.923L19.984 8.719C19.6619 8.55313 19.3909 8.30289 19.2 7.995C19.183 7.968 19.167 7.939 19.135 7.883C18.9195 7.53688 18.8148 7.13322 18.835 6.726L18.841 6.301C18.853 5.621 18.859 5.279 18.763 4.973C18.6781 4.70072 18.5359 4.44976 18.346 4.237C18.132 3.997 17.835 3.825 17.24 3.483L16.746 3.198C16.154 2.857 15.857 2.686 15.542 2.621C15.2637 2.56338 14.9763 2.56577 14.699 2.628C14.386 2.698 14.093 2.874 13.508 3.224L13.505 3.226L13.151 3.437C13.095 3.471 13.066 3.487 13.038 3.503C12.76 3.658 12.45 3.743 12.131 3.753C12.099 3.755 12.066 3.755 12.001 3.755L11.871 3.754C11.5518 3.74396 11.2398 3.65754 10.961 3.502C10.933 3.487 10.906 3.47 10.85 3.436L10.493 3.222C9.90396 2.868 9.60896 2.692 9.29396 2.621C9.01562 2.55864 8.72715 2.55659 8.44796 2.615C8.13196 2.681 7.83596 2.853 7.24296 3.197L7.23996 3.198L6.75196 3.481L6.74696 3.485C6.15896 3.825 5.86396 3.997 5.65196 4.236C5.46303 4.4484 5.32156 4.69863 5.23696 4.97C5.14196 5.277 5.14696 5.619 5.15896 6.303L5.16596 6.727C5.16596 6.792 5.16896 6.824 5.16796 6.855C5.16268 7.21831 5.05863 7.57333 4.86696 7.882C4.83396 7.938 4.81896 7.966 4.80196 7.992C4.63335 8.26418 4.40186 8.49189 4.12696 8.656L4.01496 8.719L3.65396 8.919C3.05196 9.252 2.75096 9.419 2.53296 9.657C2.33914 9.86684 2.19252 10.1158 2.10296 10.387C2.00296 10.694 2.00296 11.037 2.00396 11.725L2.00596 12.288C2.00696 12.971 2.00896 13.312 2.10996 13.617C2.19914 13.8866 2.3447 14.1341 2.53696 14.343C2.75496 14.579 3.05296 14.745 3.64996 15.077L4.00796 15.276C4.06896 15.31 4.09996 15.326 4.12896 15.344C4.44233 15.5319 4.69826 15.802 4.86896 16.125L4.93596 16.245C5.10487 16.5639 5.18434 16.9226 5.16596 17.283L5.15896 17.69C5.14696 18.376 5.14196 18.72 5.23796 19.027C5.32296 19.299 5.46496 19.55 5.65496 19.763C5.86896 20.003 6.16696 20.174 6.76096 20.517L7.25496 20.802C7.84796 21.143 8.14396 21.314 8.45896 21.379C8.73726 21.4366 9.02465 21.4342 9.30196 21.372C9.61596 21.302 9.90896 21.126 10.496 20.774L10.85 20.562C11.1549 20.3657 11.5075 20.2561 11.87 20.245H12.13C12.448 20.255 12.76 20.342 13.04 20.497L13.132 20.552L13.508 20.778C14.098 21.132 14.392 21.308 14.707 21.378C14.9852 21.441 15.2736 21.4437 15.553 21.386C15.868 21.32 16.166 21.147 16.759 20.803L17.254 20.516C17.842 20.174 18.137 20.003 18.349 19.764C18.539 19.551 18.679 19.301 18.764 19.03C18.859 18.725 18.854 18.386 18.842 17.712L18.834 17.272C18.8141 16.8654 18.9188 16.4625 19.134 16.117L19.199 16.007C19.3676 15.7348 19.5991 15.5071 19.874 15.343L19.984 15.282L19.986 15.281L20.347 15.081C20.949 14.747 21.25 14.581 21.469 14.343C21.663 14.133 21.809 13.883 21.898 13.613C21.998 13.308 21.998 12.966 21.996 12.286L21.994 11.712C21.993 11.029 21.992 10.687 21.891 10.382C21.8013 10.1127 21.6554 9.8656 21.463 9.657C21.246 9.421 20.948 9.255 20.352 8.924L20.35 8.923Z" stroke="white" stroke-width="2" stroke-linecap="round" stroke-linejoin="round"/>
<path d="M8 12C8 13.0609 8.42143 14.0783 9.17157 14.8284C9.92172 15.5786 10.9391 16 12 16C13.0609 16 14.0783 15.5786 14.8284 14.8284C15.5786 14.0783 16 13.0609 16 12C16 10.9391 15.5786 9.92172 14.8284 9.17157C14.0783 8.42143 13.0609 8 12 8C10.9391 8 9.92172 8.42143 9.17157 9.17157C8.42143 9.92172 8 10.9391 8 12Z" stroke="white" stroke-width="2" stroke-linecap="round" stroke-linejoin="round"/>
</svg>
