<svg width="36" height="36" viewBox="0 0 36 36" fill="none" xmlns="http://www.w3.org/2000/svg">
<g clip-path="url(#clip0_120_2153)">
<path d="M33.91 18.47L30.78 8.41C30.654 8.0018 30.4005 7.64468 30.0568 7.39095C29.7131 7.13722 29.2972 7.00021 28.87 7H7.13C6.70279 7.00021 6.28687 7.13722 5.94316 7.39095C5.59946 7.64468 5.34603 8.0018 5.22 8.41L2.09 18.48C2.03066 18.6711 2.00032 18.8699 2 19.07V27C2 27.5304 2.21071 28.0391 2.58579 28.4142C2.96086 28.7893 3.46957 29 4 29H32C32.5304 29 33.0391 28.7893 33.4142 28.4142C33.7893 28.0391 34 27.5304 34 27V19.06C33.9997 18.8599 33.9693 18.6611 33.91 18.47ZM8.92 25H7.12V22H8.92V25ZM13.92 25H12.12V22H13.92V25ZM18.92 25H17.12V22H18.92V25ZM23.92 25H22.1V22H23.9L23.92 25ZM28.92 25H27.1V22H28.9L28.92 25ZM31 19.4H5V18H31V19.4Z" fill="white"/>
</g>
<defs>
<clipPath id="clip0_120_2153">
<rect width="36" height="36" fill="white"/>
</clipPath>
</defs>
</svg>
