<svg width="24" height="24" viewBox="0 0 24 24" fill="none" xmlns="http://www.w3.org/2000/svg">
<path d="M13.4141 19.412C13.6002 19.2267 13.7478 19.0065 13.8485 18.7641C13.9493 18.5216 14.0012 18.2616 14.0012 17.999C14.0012 17.7364 13.9493 17.4764 13.8485 17.2339C13.7478 16.9915 13.6002 16.7713 13.4141 16.586C13.2289 16.3995 13.0087 16.2514 12.7661 16.1503C12.5235 16.0493 12.2633 15.9971 12.0005 15.9969C11.7377 15.9967 11.4774 16.0485 11.2347 16.1493C10.992 16.25 10.7715 16.3978 10.5861 16.584C10.3951 16.7685 10.2427 16.9892 10.1379 17.2332C10.0331 17.4772 9.9779 17.7396 9.97559 18.0052C9.97328 18.2708 10.0239 18.5341 10.1244 18.7799C10.225 19.0257 10.3735 19.249 10.5613 19.4368C10.7491 19.6246 10.9724 19.7731 11.2182 19.8736C11.464 19.9742 11.7273 20.0248 11.9929 20.0225C12.2584 20.0202 12.5209 19.965 12.7649 19.8602C13.0089 19.7554 13.2296 19.603 13.4141 19.412ZM20.4851 11.515C20.2224 11.5155 19.9622 11.464 19.7195 11.3634C19.4768 11.2628 19.2564 11.1152 19.0711 10.929C15.1721 7.03 8.82809 7.031 4.92809 10.929C4.55294 11.3041 4.04413 11.5149 3.51359 11.5149C2.98305 11.5149 2.47424 11.3041 2.09909 10.929C1.72394 10.5539 1.51318 10.045 1.51318 9.5145C1.51318 8.98396 1.72394 8.47515 2.09909 8.1C7.55809 2.642 16.4401 2.642 21.8981 8.1C22.178 8.37959 22.3687 8.73591 22.446 9.1239C22.5234 9.51188 22.484 9.91409 22.3327 10.2797C22.1815 10.6452 21.9252 10.9577 21.5963 11.1776C21.2674 11.3975 20.8807 11.5149 20.4851 11.515ZM7.75709 15.757C7.36159 15.7569 6.97499 15.6396 6.64617 15.4198C6.31735 15.2 6.06107 14.8877 5.90973 14.5223C5.75839 14.1569 5.71879 13.7548 5.79592 13.3669C5.87306 12.979 6.06347 12.6227 6.34309 12.343C9.46109 9.224 14.5371 9.224 17.6561 12.343C18.0312 12.7181 18.242 13.227 18.242 13.7575C18.242 14.288 18.0312 14.7969 17.6561 15.172C17.2809 15.5471 16.7721 15.7579 16.2416 15.7579C15.711 15.7579 15.2022 15.5471 14.8271 15.172C14.0763 14.423 13.0591 14.0024 11.9986 14.0024C10.9381 14.0024 9.92089 14.423 9.17009 15.172C8.98478 15.3579 8.76453 15.5053 8.52203 15.6057C8.27952 15.7061 8.01955 15.7575 7.75709 15.757Z" fill="white"/>
</svg>
