<svg width="15" height="18" viewBox="0 0 15 18" fill="none" xmlns="http://www.w3.org/2000/svg">
<path d="M14.4197 15.2916L9.92095 13.0746L14.42 10.8575C14.6703 10.7307 14.772 10.4222 14.6465 10.1686L14.1931 9.24952C14.0679 8.99591 13.7634 8.89286 13.5128 9.01967L7.60251 11.932L1.69221 9.01967C1.4419 8.89286 1.1374 8.99559 1.01192 9.24952L0.558505 10.1686C0.433347 10.4222 0.534741 10.7307 0.785056 10.8575L5.28408 13.0746L0.785373 15.2916C0.535058 15.4184 0.433347 15.7269 0.558822 15.9808L1.01224 16.8999C1.1374 17.1535 1.4419 17.2566 1.69253 17.1294L7.60251 14.2171L13.5128 17.1294C13.7631 17.2562 14.0676 17.1535 14.1931 16.8999L14.6465 15.9808C14.7717 15.7269 14.67 15.4184 14.4197 15.2916ZM5.25779 8.36445L5.08415 9.19495C4.99955 9.60008 5.25588 9.9927 5.60538 9.9927H9.60029C9.94978 9.9927 10.2061 9.60008 10.1215 9.19495L9.94724 8.36445C11.2711 7.64503 12.1652 6.35001 12.1652 4.85627C12.1652 2.58694 10.1225 0.747131 7.60251 0.747131C5.08256 0.747131 3.0398 2.58694 3.0398 4.85627C3.0398 6.35001 3.93396 7.64503 5.25779 8.36445ZM9.3769 4.34263C9.93615 4.34263 10.3908 4.8033 10.3908 5.36992C10.3908 5.93653 9.93615 6.3972 9.3769 6.3972C8.81765 6.3972 8.36297 5.93653 8.36297 5.36992C8.36297 4.8033 8.81765 4.34263 9.3769 4.34263ZM5.82812 4.34263C6.38737 4.34263 6.84206 4.8033 6.84206 5.36992C6.84206 5.93653 6.38737 6.3972 5.82812 6.3972C5.26888 6.3972 4.81419 5.93653 4.81419 5.36992C4.81419 4.8033 5.26888 4.34263 5.82812 4.34263Z" fill="#FDFDFD"/>
</svg>
