<svg width="8" height="10" viewBox="0 0 8 10" fill="none" xmlns="http://www.w3.org/2000/svg">
<path d="M3.98129 -1.14441e-05C3.78238 -1.14441e-05 3.59161 0.0790066 3.45096 0.219659C3.31031 0.360311 3.23129 0.551076 3.23129 0.749989L3.23129 6.68999L1.26129 4.71999C1.11912 4.58751 0.931071 4.51539 0.73677 4.51881C0.542469 4.52224 0.357083 4.60095 0.21967 4.73837C0.0822573 4.87578 0.00354456 5.06116 0.000116348 5.25547C-0.00331187 5.44977 0.068812 5.63781 0.201292 5.77999L3.45129 9.02999C3.59192 9.17044 3.78254 9.24933 3.98129 9.24933C4.18004 9.24933 4.37067 9.17044 4.51129 9.02999L7.76129 5.77999C7.83498 5.71133 7.89408 5.62853 7.93507 5.53653C7.97606 5.44453 7.99811 5.34521 7.99988 5.24451C8.00166 5.14381 7.98314 5.04378 7.94541 4.95039C7.90769 4.857 7.85155 4.77217 7.78033 4.70095C7.70911 4.62973 7.62428 4.57359 7.53089 4.53587C7.4375 4.49814 7.33747 4.47962 7.23677 4.4814C7.13607 4.48317 7.03675 4.50522 6.94475 4.54621C6.85275 4.5872 6.76995 4.6463 6.70129 4.71999L4.73129 6.68999L4.73129 0.749989C4.73129 0.335989 4.39529 -1.14441e-05 3.98129 -1.14441e-05Z" fill="white"/>
</svg>
