<svg width="9" height="10" viewBox="0 0 9 10" fill="none" xmlns="http://www.w3.org/2000/svg">
<path d="M5.00015 9.50001C5.19907 9.50001 5.38983 9.42099 5.53048 9.28034C5.67114 9.13969 5.75015 8.94892 5.75015 8.75001V2.81001L7.72015 4.78001C7.86233 4.91249 8.05037 4.98461 8.24468 4.98119C8.43898 4.97776 8.62436 4.89905 8.76178 4.76163C8.89919 4.62422 8.9779 4.43884 8.98133 4.24453C8.98476 4.05023 8.91263 3.86219 8.78015 3.72001L5.53015 0.470011C5.38953 0.329561 5.1989 0.250671 5.00015 0.250671C4.8014 0.250671 4.61078 0.329561 4.47015 0.470011L1.22015 3.72001C1.14647 3.78867 1.08736 3.87147 1.04637 3.96347C1.00538 4.05547 0.983339 4.15479 0.981562 4.25549C0.979785 4.35619 0.99831 4.45622 1.03603 4.54961C1.07375 4.643 1.1299 4.72783 1.20112 4.79905C1.27233 4.87027 1.35717 4.92641 1.45056 4.96413C1.54394 5.00186 1.64397 5.02038 1.74468 5.0186C1.84538 5.01683 1.94469 4.99478 2.03669 4.95379C2.12869 4.9128 2.21149 4.8537 2.28015 4.78001L4.25015 2.81001V8.75001C4.25015 9.16401 4.58615 9.50001 5.00015 9.50001Z" fill="white"/>
</svg>
