<svg width="23" height="17" viewBox="0 0 23 17" fill="none" xmlns="http://www.w3.org/2000/svg">
<path d="M13.2485 16.0516C13.4408 15.8614 13.5933 15.6354 13.6974 15.3866C13.8015 15.1377 13.8551 14.8709 13.8551 14.6014C13.8551 14.332 13.8015 14.0651 13.6974 13.8163C13.5933 13.5674 13.4408 13.3415 13.2485 13.1513C13.0572 12.9599 12.8297 12.808 12.5791 12.7042C12.3284 12.6005 12.0596 12.547 11.7881 12.5468C11.5166 12.5466 11.2477 12.5997 10.9969 12.7031C10.7461 12.8065 10.5184 12.9581 10.3268 13.1493C10.1294 13.3386 9.97202 13.5651 9.86373 13.8155C9.75544 14.0659 9.69843 14.3353 9.69605 14.6078C9.69367 14.8803 9.74595 15.1506 9.84984 15.4029C9.95374 15.6551 10.1072 15.8843 10.3012 16.077C10.4952 16.2697 10.7259 16.4221 10.9798 16.5253C11.2338 16.6285 11.5059 16.6805 11.7802 16.6781C12.0546 16.6757 12.3257 16.6191 12.5778 16.5115C12.8299 16.404 13.0579 16.2476 13.2485 16.0516ZM20.5539 7.94712C20.2825 7.94763 20.0137 7.89475 19.763 7.79153C19.5122 7.68831 19.2845 7.5368 19.0931 7.34573C15.0648 3.34431 8.51051 3.34534 4.48123 7.34573C4.09365 7.73073 3.56797 7.94703 3.01984 7.94703C2.47171 7.94703 1.94604 7.73073 1.55845 7.34573C1.17087 6.96073 0.953125 6.43855 0.953125 5.89408C0.953125 5.3496 1.17087 4.82742 1.55845 4.44242C7.19841 -1.15895 16.3748 -1.15895 22.0138 4.44242C22.303 4.72936 22.5 5.09504 22.5799 5.49321C22.6598 5.89139 22.6191 6.30416 22.4628 6.67933C22.3065 7.0545 22.0418 7.3752 21.702 7.60087C21.3622 7.82654 20.9627 7.94704 20.5539 7.94712ZM7.40401 12.3006C6.9954 12.3005 6.59599 12.18 6.25627 11.9545C5.91655 11.729 5.65177 11.4084 5.49542 11.0334C5.33906 10.6584 5.29814 10.2458 5.37783 9.84771C5.45752 9.44961 5.65425 9.08392 5.94314 8.79687C9.1645 5.59595 14.4088 5.59595 17.6312 8.79687C18.0187 9.18188 18.2365 9.70405 18.2365 10.2485C18.2365 10.793 18.0187 11.3152 17.6312 11.7002C17.2436 12.0852 16.7179 12.3015 16.1698 12.3015C15.6216 12.3015 15.096 12.0852 14.7084 11.7002C13.9327 10.9315 12.8818 10.4999 11.7861 10.4999C10.6905 10.4999 9.63954 10.9315 8.86385 11.7002C8.6724 11.8909 8.44485 12.0422 8.19431 12.1452C7.94376 12.2483 7.67518 12.3011 7.40401 12.3006Z" fill="white"/>
</svg>
