<svg width="19" height="18" viewBox="0 0 19 18" fill="none" xmlns="http://www.w3.org/2000/svg">
<path d="M18.5939 15.2621C19.1925 16.3359 18.4411 17.6782 17.2457 17.6782H1.68425C0.486481 17.6782 -0.261359 16.3338 0.336018 15.2621L8.11683 1.29926C8.71567 0.224959 10.2155 0.226905 10.8133 1.29926L18.5939 15.2621ZM9.46506 12.3753C8.64125 12.3753 7.97341 13.0665 7.97341 13.9192C7.97341 14.7718 8.64125 15.4631 9.46506 15.4631C10.2889 15.4631 10.9567 14.7718 10.9567 13.9192C10.9567 13.0665 10.2889 12.3753 9.46506 12.3753ZM8.04886 6.82593L8.28941 11.3904C8.30066 11.604 8.47129 11.7712 8.67795 11.7712H10.2522C10.4588 11.7712 10.6295 11.604 10.6407 11.3904L10.8813 6.82593C10.8934 6.59522 10.7159 6.40123 10.4927 6.40123H8.43738C8.21415 6.40123 8.0367 6.59522 8.04886 6.82593Z" fill="#FDFDFD"/>
</svg>
