<svg width="17" height="19" viewBox="0 0 17 19" fill="none" xmlns="http://www.w3.org/2000/svg">
<path d="M12.147 2.54023C11.4186 3.21615 10.7608 3.92674 10.1781 4.64048C9.2234 3.32542 8.03968 1.99145 6.69905 0.747131C3.25783 3.94005 0.81543 8.10026 0.81543 10.6092C0.81543 15.0657 4.32774 18.6782 8.66026 18.6782C12.9928 18.6782 16.5051 15.0657 16.5051 10.6092C16.5051 8.7436 14.6847 4.89578 12.147 2.54023ZM11.4651 14.4703C10.7066 15.0013 9.77114 15.3161 8.76042 15.3161C6.23361 15.3161 4.1775 13.6442 4.1775 10.9296C4.1775 9.57747 5.02887 8.38603 6.72672 6.35058C6.96942 6.63005 10.1879 10.7402 10.1879 10.7402L12.2412 8.39794C12.3862 8.63784 12.5182 8.87248 12.6359 9.09732C13.5937 10.9251 13.1896 13.2638 11.4651 14.4703Z" fill="#FDFDFD"/>
</svg>
