<svg width="17" height="18" viewBox="0 0 17 18" fill="none" xmlns="http://www.w3.org/2000/svg">
<path d="M14.4451 8.01222H13.6046V5.59574C13.6046 2.78321 11.2162 0.494263 8.28135 0.494263C5.34655 0.494263 2.95808 2.78321 2.95808 5.59574V8.01222H2.11756C1.18949 8.01222 0.436523 8.73381 0.436523 9.62321V16.0672C0.436523 16.9566 1.18949 17.6782 2.11756 17.6782H14.4451C15.3732 17.6782 16.1262 16.9566 16.1262 16.0672V9.62321C16.1262 8.73381 15.3732 8.01222 14.4451 8.01222ZM10.8029 8.01222H5.7598V5.59574C5.7598 4.26331 6.891 3.17925 8.28135 3.17925C9.67171 3.17925 10.8029 4.26331 10.8029 5.59574V8.01222Z" fill="#FDFDFD"/>
</svg>
