<svg width="27" height="14" viewBox="0 0 27 14" fill="none" xmlns="http://www.w3.org/2000/svg">
<path d="M23.0307 10.9881V8.29842H24.3382V5.60877H23.0307V2.91911H3.41865V10.9881H23.0307ZM23.6845 13.6777H2.76492C1.68176 13.6777 0.803711 12.7746 0.803711 11.6605V2.2467C0.803711 1.13259 1.68176 0.229459 2.76492 0.229459H23.6845C24.7676 0.229459 25.6457 1.13259 25.6457 2.2467V2.91911H25.9725C26.5141 2.91911 26.9531 3.37068 26.9531 3.92773V9.97946C26.9531 10.5365 26.5141 10.9881 25.9725 10.9881H25.6457V11.6605C25.6457 12.7746 24.7676 13.6777 23.6845 13.6777ZM17.8008 9.64325H4.72612V4.26394H17.8008V9.64325Z" fill="#FDFDFD"/>
</svg>
