<svg width="21" height="22" viewBox="0 0 21 22" fill="none" xmlns="http://www.w3.org/2000/svg">
<path fill-rule="evenodd" clip-rule="evenodd" d="M4.63003 9.20483C4.63003 8.01475 5.08072 6.87342 5.88296 6.03191C6.68519 5.1904 7.77325 4.71765 8.90778 4.71765C10.0423 4.71765 11.1304 5.1904 11.9326 6.03191C12.7348 6.87342 13.1855 8.01475 13.1855 9.20483C13.1855 10.3949 12.7348 11.5362 11.9326 12.3777C11.1304 13.2193 10.0423 13.692 8.90778 13.692C7.77325 13.692 6.68519 13.2193 5.88296 12.3777C5.08072 11.5362 4.63003 10.3949 4.63003 9.20483ZM8.90778 2.92278C7.9592 2.92278 7.02419 3.15914 6.17974 3.61239C5.33529 4.06565 4.60555 4.72283 4.05064 5.52983C3.49572 6.33683 3.13148 7.27055 2.98792 8.25412C2.84437 9.23768 2.9256 10.2429 3.22492 11.1871C3.52425 12.1313 4.03311 12.9874 4.7096 13.6849C5.38609 14.3824 6.21085 14.9014 7.11599 15.1991C8.02112 15.4968 8.98072 15.5647 9.91576 15.3973C10.8508 15.2298 11.7346 14.8317 12.4942 14.2359L16.8575 18.8137C17.018 18.9821 17.2356 19.0767 17.4625 19.0768C17.6895 19.0769 17.9072 18.9824 18.0677 18.8141C18.2283 18.6458 18.3185 18.4176 18.3186 18.1795C18.3187 17.9414 18.2286 17.7131 18.0681 17.5447L13.7048 12.9678C14.3708 12.034 14.7757 10.9242 14.8745 9.76273C14.9732 8.60122 14.7618 7.43381 14.2639 6.39119C13.766 5.34858 13.0012 4.47191 12.0553 3.85934C11.1093 3.24677 10.0195 2.92248 8.90778 2.92278Z" fill="#FDFDFD"/>
</svg>
