<svg width="17" height="17" viewBox="0 0 17 17" fill="none" xmlns="http://www.w3.org/2000/svg">
<path d="M16.0876 12.9433L12.3285 9.18443C11.587 8.44292 10.4795 8.29847 9.58705 8.73824L6.16505 5.31638V3.32297L2.05609 0.241379L0.00160504 2.29578L3.08333 6.40457H5.07682L8.49882 9.82643C8.06224 10.7188 8.20349 11.8263 8.94503 12.5678L12.7041 16.3267C13.1728 16.7953 13.9304 16.7953 14.3958 16.3267L16.0876 14.635C16.553 14.1663 16.553 13.4088 16.0876 12.9433ZM10.6496 7.46387C11.5581 7.46387 12.412 7.81697 13.054 8.45897L13.6768 9.08171C14.184 8.86022 14.6655 8.55206 15.0828 8.13476C16.2738 6.94385 16.6782 5.26823 16.2994 3.74669C16.2288 3.45779 15.8661 3.35828 15.6542 3.57014L13.2659 5.95838L11.0862 5.59565L10.7234 3.41606L13.1118 1.02783C13.3236 0.815968 13.2209 0.453238 12.9288 0.379409C11.4072 0.00383913 9.73151 0.408299 8.54376 1.596C7.62887 2.51085 7.19872 3.7178 7.22119 4.92155L9.8567 7.55696C10.1167 7.49597 10.3864 7.46387 10.6496 7.46387ZM7.31428 10.0961L5.49414 8.276L0.601899 13.1712C-0.200633 13.9737 -0.200633 15.2738 0.601899 16.0763C1.40443 16.8788 2.70453 16.8788 3.50707 16.0763L7.47479 12.1087C7.23082 11.4699 7.15698 10.7734 7.31428 10.0961ZM2.05609 15.3926C1.63235 15.3926 1.28566 15.0459 1.28566 14.6222C1.28566 14.1952 1.62914 13.8518 2.05609 13.8518C2.48304 13.8518 2.82652 14.1952 2.82652 14.6222C2.82652 15.0459 2.48304 15.3926 2.05609 15.3926Z" fill="white"/>
</svg>
