<svg width="15" height="20" viewBox="0 0 15 20" fill="none" xmlns="http://www.w3.org/2000/svg">
<path d="M13.333 17.7218L13.7471 18.0632C13.8654 18.1581 14.0095 18.2112 14.1574 18.2112C14.5197 18.2112 14.8154 17.9077 14.8154 17.5359V7.28448C14.8154 3.26284 11.6363 0 7.71773 0C3.79921 0 0.620028 3.26284 0.620028 7.28448V17.5359C0.620028 17.9077 0.915765 18.2112 1.27804 18.2112C1.42591 18.2112 1.57008 18.1581 1.68838 18.0632L2.10241 17.7218C2.59777 17.3158 3.31494 17.3803 3.73267 17.8697L4.86017 19.1976C4.98216 19.3418 5.1633 19.4253 5.35183 19.4253C5.54036 19.4253 5.7178 19.3418 5.84349 19.1976L6.82682 18.0405C7.2963 17.4866 8.13546 17.4866 8.60864 18.0405L9.59197 19.1976C9.71396 19.3418 9.8951 19.4253 10.0836 19.4253C10.2722 19.4253 10.4496 19.3418 10.5753 19.1976L11.7028 17.8697C12.1205 17.3803 12.8377 17.3158 13.333 17.7218ZM8.90068 7.28448C8.90068 6.96249 9.02531 6.65368 9.24716 6.426C9.469 6.19831 9.76989 6.0704 10.0836 6.0704C10.3974 6.0704 10.6983 6.19831 10.9201 6.426C11.1419 6.65368 11.2666 6.96249 11.2666 7.28448C11.2666 7.60648 11.1419 7.91528 10.9201 8.14297C10.6983 8.37065 10.3974 8.49856 10.0836 8.49856C9.76989 8.49856 9.469 8.37065 9.24716 8.14297C9.02531 7.91528 8.90068 7.60648 8.90068 7.28448ZM5.35183 8.49856C5.03809 8.49856 4.7372 8.37065 4.51536 8.14297C4.29351 7.91528 4.16888 7.60648 4.16888 7.28448C4.16888 6.96249 4.29351 6.65368 4.51536 6.426C4.7372 6.19831 5.03809 6.0704 5.35183 6.0704C5.66557 6.0704 5.96645 6.19831 6.1883 6.426C6.41015 6.65368 6.53478 6.96249 6.53478 7.28448C6.53478 7.60648 6.41015 7.91528 6.1883 8.14297C5.96645 8.37065 5.66557 8.49856 5.35183 8.49856Z" fill="#FDFDFD"/>
</svg>
