<svg width="23" height="27" viewBox="0 0 23 27" fill="none" xmlns="http://www.w3.org/2000/svg">
<path d="M23 21.8384C23 23.0869 22.6257 24.1579 21.877 25.0514C21.1283 25.9449 20.2268 26.3916 19.1727 26.3916H3.82734C2.77318 26.3916 1.87174 25.9449 1.12305 25.0514C0.374349 24.1579 0 23.0869 0 21.8384C0 20.8647 0.0509115 19.9455 0.152734 19.0806C0.254557 18.2158 0.443229 17.3453 0.71875 16.469C0.994271 15.5927 1.34466 14.8424 1.76992 14.2181C2.19518 13.5939 2.7582 13.0841 3.45898 12.6889C4.15977 12.2937 4.96536 12.0962 5.87578 12.0962C7.44505 13.5624 9.31979 14.2955 11.5 14.2955C13.6802 14.2955 15.5549 13.5624 17.1242 12.0962C18.0346 12.0962 18.8402 12.2937 19.541 12.6889C20.2418 13.0841 20.8048 13.5939 21.2301 14.2181C21.6553 14.8424 22.0057 15.5927 22.2812 16.469C22.5568 17.3453 22.7454 18.2158 22.8473 19.0806C22.9491 19.9455 23 20.8647 23 21.8384ZM18.4 6.5979C18.4 8.4192 17.7262 9.97417 16.3785 11.2628C15.0309 12.5515 13.4047 13.1958 11.5 13.1958C9.59531 13.1958 7.96914 12.5515 6.62148 11.2628C5.27383 9.97417 4.6 8.4192 4.6 6.5979C4.6 4.7766 5.27383 3.22163 6.62148 1.93298C7.96914 0.644326 9.59531 0 11.5 0C13.4047 0 15.0309 0.644326 16.3785 1.93298C17.7262 3.22163 18.4 4.7766 18.4 6.5979Z" fill="#FDFDFD"/>
</svg>
