<svg width="24" height="16" viewBox="0 0 24 16" fill="none" xmlns="http://www.w3.org/2000/svg">
<path d="M21 14.2502H15V11.1252H13.3C12.2 13.6252 9.7 15.2918 7 15.2918C3.1 15.2918 0 12.0627 0 8.00016C0 3.93766 3.1 0.708496 7 0.708496C9.7 0.708496 12.2 2.37516 13.3 4.87516H24V11.1252H21V14.2502ZM17 12.1668H19V9.04183H22V6.9585H11.9L11.7 6.22933C11 4.146 9.1 2.79183 7 2.79183C4.2 2.79183 2 5.0835 2 8.00016C2 10.9168 4.2 13.2085 7 13.2085C9.1 13.2085 11 11.8543 11.7 9.771L11.9 9.04183H17V12.1668ZM7 11.1252C5.3 11.1252 4 9.771 4 8.00016C4 6.22933 5.3 4.87516 7 4.87516C8.7 4.87516 10 6.22933 10 8.00016C10 9.771 8.7 11.1252 7 11.1252ZM7 6.9585C6.4 6.9585 6 7.37516 6 8.00016C6 8.62516 6.4 9.04183 7 9.04183C7.6 9.04183 8 8.62516 8 8.00016C8 7.37516 7.6 6.9585 7 6.9585Z" fill="black"/>
</svg>
