<svg width="24" height="26" viewBox="0 0 24 26" fill="none" xmlns="http://www.w3.org/2000/svg">
<path d="M4.82667 11.3194C6.74667 15.25 9.84 18.4583 13.6133 20.4722L16.5467 17.4167C16.9067 17.0417 17.44 16.9167 17.9067 17.0833C19.4 17.5972 21.0133 17.875 22.6667 17.875C23.4 17.875 24 18.5 24 19.2639V24.1111C24 24.875 23.4 25.5 22.6667 25.5C10.1467 25.5 0 14.9306 0 1.88889C0 1.125 0.6 0.5 1.33333 0.5H6C6.73333 0.5 7.33333 1.125 7.33333 1.88889C7.33333 3.625 7.6 5.29167 8.09333 6.84722C8.24 7.33333 8.13333 7.875 7.76 8.26389L4.82667 11.3194Z" fill="black"/>
</svg>
