<svg width="25" height="26" viewBox="0 0 25 26" fill="none" xmlns="http://www.w3.org/2000/svg">
<g clip-path="url(#clip0_20_10418)">
<path d="M12.5 0.458328C9.18555 0.458328 6.00391 1.7761 3.66211 4.11946C1.3179 6.46375 0.000649355 9.64306 0 12.9583C0 16.2722 1.31836 19.4538 3.66211 21.7972C6.00391 24.1406 9.18555 25.4583 12.5 25.4583C15.8145 25.4583 18.9961 24.1406 21.3379 21.7972C23.6816 19.4538 25 16.2722 25 12.9583C25 9.64446 23.6816 6.46282 21.3379 4.11946C18.9961 1.7761 15.8145 0.458328 12.5 0.458328Z" fill="url(#paint0_linear_20_10418)"/>
<path d="M5.65813 12.8261C9.30266 11.2386 11.7323 10.1919 12.9472 9.68624C16.4198 8.24229 17.1406 7.99151 17.6113 7.98301C17.7148 7.98135 17.9452 8.00694 18.0956 8.12852C18.2206 8.23106 18.2558 8.36973 18.2734 8.4671C18.289 8.56436 18.3105 8.78604 18.2929 8.95909C18.1054 10.9357 17.2909 15.7321 16.8769 17.946C16.7031 18.8827 16.3573 19.1968 16.0234 19.2274C15.2968 19.2942 14.746 18.7478 14.0429 18.287C12.9433 17.5657 12.3222 17.1169 11.2538 16.4132C10.0195 15.5999 10.8202 15.1528 11.5234 14.4224C11.707 14.2312 14.9062 11.322 14.9667 11.0581C14.9745 11.0251 14.9823 10.9021 14.9081 10.8372C14.8359 10.7722 14.7284 10.7944 14.6503 10.812C14.539 10.837 12.7831 11.9987 9.37688 14.297C8.87883 14.6396 8.42766 14.8065 8.02141 14.7978C7.5761 14.7882 6.71672 14.5454 6.07805 14.338C5.2968 14.0835 4.67375 13.9489 4.72844 13.5167C4.75579 13.2917 5.06633 13.0614 5.65813 12.8261Z" fill="white"/>
</g>
<defs>
<linearGradient id="paint0_linear_20_10418" x1="1250" y1="0.458328" x2="1250" y2="2500.46" gradientUnits="userSpaceOnUse">
<stop stop-color="#2AABEE"/>
<stop offset="1" stop-color="#229ED9"/>
</linearGradient>
<clipPath id="clip0_20_10418">
<rect width="25" height="25" fill="white" transform="translate(0 0.458328)"/>
</clipPath>
</defs>
</svg>
