<svg width="119" height="102" viewBox="0 0 119 102" fill="none" xmlns="http://www.w3.org/2000/svg">
<path fill-rule="evenodd" clip-rule="evenodd" d="M0 51.5987L48.553 0.5L59.1178 11.08L69.1705 0.500167L119 50.4013L70.447 101.5L59.8822 90.92L49.8295 101.5L0 51.5987ZM48.5829 2.86508L57.9808 12.2765L20.6175 51.5989L58.7154 89.7515L49.7996 99.1347L2.3038 51.5707L48.5829 2.86508ZM22.9213 51.5708L59.8523 88.555L96.0787 50.4292L59.1477 13.445L22.9213 51.5708ZM98.3825 50.4011L61.0192 89.7235L70.4171 99.1349L116.696 50.4293L69.2004 2.86525L60.2846 12.2485L98.3825 50.4011ZM56.7986 37.4401L50.71 49.3909H70.1448L64.0562 37.4401H56.7986ZM38.8078 50.0866L60.073 75.1868V50.0866H38.8078ZM60.7819 50.0866V75.1868L82.047 50.0866H60.7819ZM64.8202 37.4401L70.9088 49.3909H82.7087L76.6201 37.4401H64.8202ZM44.2348 37.4401L38.1462 49.3909H49.9461L56.0347 37.4401H44.2348ZM42.387 34.563L34.6554 49.7388L60.4274 80.0902L86.1995 49.7388L78.4679 34.563H42.387ZM37.2937 49.4382L60.4274 76.6827L83.5612 49.4382L77.0941 36.7445H43.7608L37.2937 49.4382ZM62.6825 39.6216L66.5483 47.2095H54.3066L58.1724 39.6216H62.6825ZM57.8502 69.151V52.268H43.5468L57.8502 69.151ZM63.0046 52.268H77.3081L63.0046 69.151V52.268ZM75.2464 39.6216L79.1122 47.2095H72.2826L68.4168 39.6216H75.2464ZM41.7427 47.2095H48.5723L52.4381 39.6216H45.6085L41.7427 47.2095Z" fill="#F49D36"/>
</svg>
